# Blender 4.0.2
# www.blender.org
mtllib polygonum_05.mtl
o polygonum.004
v -0.003362 -0.004663 0.000000
v 0.001192 -0.000756 -0.003464
v 0.001192 -0.000756 0.003464
v 0.017767 -0.029274 0.000005
v 0.022172 -0.025204 -0.003464
v 0.021968 -0.024981 0.003458
v 0.041882 -0.051099 0.002866
v 0.045514 -0.046407 -0.000711
v 0.044608 -0.045619 0.006112
v 0.071510 -0.062313 0.010917
v 0.074149 -0.057343 0.007368
v 0.073898 -0.056925 0.014003
v 0.100234 -0.076457 0.006684
v 0.100669 -0.074289 0.005342
v 0.101135 -0.074351 0.007886
v 0.129947 -0.077412 0.000000
v 0.129947 -0.077412 0.000000
v 0.129947 -0.077412 0.000000
v 0.001737 -0.004634 0.000000
v -0.000278 0.001156 -0.003227
v -0.002437 -0.000143 0.003227
v 0.026192 0.010111 0.011136
v 0.024822 0.016246 0.008223
v 0.022284 0.014744 0.014492
v 0.051459 0.018728 0.025819
v 0.050993 0.025160 0.023288
v 0.049058 0.023856 0.029812
v 0.079659 0.021410 0.029771
v 0.079261 0.027681 0.027308
v 0.080580 0.026704 0.033855
v 0.106125 0.019906 0.014226
v 0.106131 0.022515 0.013128
v 0.107428 0.022015 0.015594
v 0.132501 0.012416 0.000000
v 0.132501 0.012416 0.000000
v 0.132501 0.012416 0.000000
v 0.002395 -0.000491 0.000000
v -0.003557 0.001029 -0.003204
v -0.003647 -0.001605 0.003204
v 0.003294 0.027179 0.011445
v -0.002652 0.028556 0.008166
v -0.002690 0.024756 0.013959
v -0.004733 0.048392 0.032151
v -0.009596 0.049123 0.029157
v -0.009634 0.045999 0.033993
v -0.012612 0.075072 0.042420
v -0.012612 0.075072 0.042420
v -0.012612 0.075072 0.042420
v 0.001897 0.004332 0.000000
v -0.003013 0.000852 -0.003433
v -0.002417 0.000136 0.003433
v -0.017496 0.027537 0.004124
v -0.021789 0.023440 0.000547
v -0.020912 0.022443 0.007347
v -0.044277 0.042274 0.011539
v -0.046689 0.037173 0.007519
v -0.045522 0.036021 0.014250
v -0.074985 0.044508 0.016812
v -0.074387 0.039277 0.012637
v -0.074487 0.038279 0.019281
v -0.102919 0.034861 0.009661
v -0.101997 0.032750 0.008001
v -0.102674 0.032234 0.010709
v -0.130599 0.029020 0.000000
v -0.130599 0.029020 0.000000
v -0.130599 0.029020 0.000000
v -0.000326 -0.002058 0.000000
v -0.000326 -0.002058 0.000000
v -0.000326 -0.002058 0.000000
v -0.000326 -0.002058 0.000000
v -0.000326 -0.002058 0.000000
v -0.000326 -0.002058 0.000000
v -0.000326 -0.002058 0.000000
v -0.000326 -0.002058 0.000000
v -0.000326 -0.002058 0.000000
v -0.000326 -0.002058 0.000000
v -0.000326 -0.002058 0.000000
v -0.000326 -0.002058 0.000000
v 0.020815 -0.023343 0.002079
v 0.025907 -0.025631 -0.000550
v 0.023656 -0.008728 0.015121
v 0.041793 -0.018254 0.004170
v 0.034514 0.008093 0.020699
v 0.053728 -0.002042 0.011870
v 0.045201 0.015535 0.018649
v 0.053711 0.010909 0.014461
v 0.023361 -0.024487 0.000765
v 0.031925 -0.011847 0.005981
v 0.046038 0.003157 0.019882
v 0.050791 0.013314 0.019061
v 0.045217 -0.044537 0.003929
v 0.048919 -0.048437 0.001556
v 0.053210 -0.029655 0.012299
v 0.065830 -0.045091 0.002706
v 0.067886 -0.016374 0.012542
v 0.081666 -0.032220 0.004939
v 0.079051 -0.012931 0.007942
v 0.085080 -0.020126 0.004350
v 0.047068 -0.046487 0.002743
v 0.058620 -0.036412 0.003830
v 0.077099 -0.023977 0.011838
v 0.083683 -0.016306 0.008303
v 0.070639 -0.059951 0.012540
v 0.072336 -0.054869 0.013061
v 0.059076 -0.065262 0.024210
v 0.066173 -0.046292 0.024844
v 0.044850 -0.061269 0.034714
v 0.052649 -0.042546 0.037357
v 0.038091 -0.053055 0.039084
v 0.041640 -0.044617 0.040048
v 0.071487 -0.057410 0.012800
v 0.060883 -0.054629 0.021626
v 0.048931 -0.052330 0.039564
v 0.039992 -0.049130 0.042023
v 0.100961 -0.072278 0.007766
v 0.104645 -0.074312 0.005276
v 0.104331 -0.058932 0.015283
v 0.117290 -0.067479 0.005391
v 0.112697 -0.044750 0.015537
v 0.126840 -0.053434 0.007184
v 0.120294 -0.038982 0.011278
v 0.126524 -0.042975 0.007385
v 0.102803 -0.073295 0.006521
v 0.109556 -0.062479 0.007433
v 0.121785 -0.048418 0.013794
v 0.124813 -0.040509 0.011026
v 0.129947 -0.077412 0.000000
v 0.129947 -0.077412 0.000000
v 0.129947 -0.077412 0.000000
v 0.129947 -0.077412 0.000000
v 0.129947 -0.077412 0.000000
v 0.129947 -0.077412 0.000000
v 0.129947 -0.077412 0.000000
v 0.129947 -0.077412 0.000000
v 0.129947 -0.077412 0.000000
v 0.129947 -0.077412 0.000000
v 0.129947 -0.077412 0.000000
v 0.129947 -0.077412 0.000000
v -0.000326 -0.001207 0.000000
v -0.000326 -0.001207 0.000000
v -0.000326 -0.001207 0.000000
v -0.000326 -0.001207 0.000000
v -0.000326 -0.001207 0.000000
v -0.000326 -0.001207 0.000000
v -0.000326 -0.001207 0.000000
v -0.000326 -0.001207 0.000000
v -0.000326 -0.001207 0.000000
v -0.000326 -0.001207 0.000000
v -0.000326 -0.001207 0.000000
v -0.000326 -0.001207 0.000000
v 0.025602 0.010306 0.012294
v 0.020119 0.012320 0.014048
v 0.031709 -0.006250 0.020731
v 0.011176 0.002506 0.026092
v 0.026974 -0.024730 0.028339
v 0.007009 -0.015853 0.036056
v 0.017562 -0.032906 0.032121
v 0.008542 -0.028797 0.035364
v 0.022860 0.011313 0.013171
v 0.019661 -0.002786 0.019894
v 0.017873 -0.021222 0.036019
v 0.013665 -0.031499 0.036404
v 0.048213 0.024829 0.027922
v 0.053302 0.026826 0.025767
v 0.038524 0.036916 0.038656
v 0.057765 0.043057 0.029636
v 0.033072 0.055606 0.042203
v 0.053226 0.062263 0.035273
v 0.034818 0.067760 0.039587
v 0.043867 0.070603 0.036271
v 0.050757 0.025827 0.026845
v 0.046821 0.040224 0.030485
v 0.043939 0.060608 0.042153
v 0.039892 0.070346 0.040307
v 0.077528 0.025573 0.032662
v 0.080360 0.029885 0.031036
v 0.067735 0.027848 0.046799
v 0.078767 0.043292 0.039430
v 0.057154 0.038906 0.056676
v 0.069226 0.054602 0.051175
v 0.053360 0.049680 0.058423
v 0.058786 0.056669 0.055729
v 0.078944 0.027729 0.031849
v 0.071223 0.036126 0.040205
v 0.064010 0.047497 0.057325
v 0.056644 0.053692 0.059443
v 0.108839 0.019954 0.013082
v 0.105308 0.017579 0.015543
v 0.121469 0.011364 0.009179
v 0.107392 0.003549 0.018296
v 0.127610 -0.003256 0.004430
v 0.114700 -0.011635 0.015011
v 0.125849 -0.013514 0.003033
v 0.119894 -0.017155 0.007716
v 0.107073 0.018766 0.014313
v 0.112351 0.007463 0.011224
v 0.123413 -0.008948 0.011509
v 0.124444 -0.016381 0.006620
v 0.132501 0.012416 0.000000
v 0.132501 0.012416 0.000000
v 0.132501 0.012416 0.000000
v 0.132501 0.012416 0.000000
v 0.132501 0.012416 0.000000
v 0.132501 0.012416 0.000000
v 0.132501 0.012416 0.000000
v 0.132501 0.012416 0.000000
v 0.132501 0.012416 0.000000
v 0.132501 0.012416 0.000000
v 0.132501 0.012416 0.000000
v 0.132501 0.012416 0.000000
v -0.001603 -0.000355 0.000000
v -0.001603 -0.000355 0.000000
v -0.001603 -0.000355 0.000000
v -0.001603 -0.000355 0.000000
v -0.001603 -0.000355 0.000000
v -0.001603 -0.000355 0.000000
v -0.001603 -0.000355 0.000000
v -0.001603 -0.000355 0.000000
v -0.001603 -0.000355 0.000000
v -0.001603 -0.000355 0.000000
v -0.001603 -0.000355 0.000000
v -0.001603 -0.000355 0.000000
v 0.002877 0.026755 0.012211
v -0.000834 0.022213 0.013725
v 0.020353 0.026602 0.020697
v 0.005324 0.010051 0.025179
v 0.036047 0.015710 0.027854
v 0.021078 -0.000377 0.034701
v 0.040563 0.004027 0.031106
v 0.033710 -0.003197 0.033958
v 0.001021 0.024484 0.012968
v 0.013125 0.016518 0.019359
v 0.029703 0.008009 0.035100
v 0.037930 0.000653 0.035194
v -0.010145 0.050190 0.031541
v -0.005035 0.051303 0.031732
v -0.020548 0.063281 0.033004
v -0.001050 0.066073 0.033350
v -0.023818 0.080259 0.029587
v -0.004409 0.083974 0.031799
v -0.019792 0.090039 0.025962
v -0.011012 0.091534 0.026829
v -0.007590 0.050747 0.031637
v -0.010280 0.064036 0.029803
v -0.014696 0.084349 0.033271
v -0.015808 0.092341 0.028191
v -0.012612 0.075072 0.042420
v -0.012612 0.075072 0.042420
v -0.012612 0.075072 0.042420
v -0.012612 0.075072 0.042420
v -0.012612 0.075072 0.042420
v -0.012612 0.075072 0.042420
v -0.012612 0.075072 0.042420
v -0.012612 0.075072 0.042420
v -0.012612 0.075072 0.042420
v -0.012612 0.075072 0.042420
v -0.012612 0.075072 0.042420
v -0.012612 0.075072 0.042420
v -0.001177 0.001773 0.000000
v -0.001177 0.001773 0.000000
v -0.001177 0.001773 0.000000
v -0.001177 0.001773 0.000000
v -0.001177 0.001773 0.000000
v -0.001177 0.001773 0.000000
v -0.001177 0.001773 0.000000
v -0.001177 0.001773 0.000000
v -0.001177 0.001773 0.000000
v -0.001177 0.001773 0.000000
v -0.001177 0.001773 0.000000
v -0.001177 0.001773 0.000000
v -0.022552 0.027103 0.003167
v -0.016949 0.028639 0.004946
v -0.035407 0.041707 0.002026
v -0.013827 0.045892 0.008347
v -0.039038 0.061367 -0.002338
v -0.018168 0.066541 0.006073
v -0.034012 0.073050 -0.004934
v -0.024521 0.075181 -0.001283
v -0.019751 0.027871 0.004056
v -0.022990 0.043219 0.001543
v -0.030156 0.066408 0.004642
v -0.030348 0.075825 -0.001177
v -0.048985 0.038897 0.010325
v -0.045612 0.043599 0.011390
v -0.067546 0.042144 0.009300
v -0.053534 0.058886 0.013027
v -0.082233 0.054309 0.003922
v -0.069301 0.071624 0.009647
v -0.085512 0.065809 0.000050
v -0.079502 0.073496 0.002504
v -0.047299 0.041248 0.010858
v -0.059049 0.050611 0.007556
v -0.078351 0.064226 0.009404
v -0.084306 0.070529 0.003101
v -0.077612 0.039656 0.015305
v -0.076710 0.044895 0.016253
v -0.094183 0.035123 0.013106
v -0.089302 0.054555 0.016539
v -0.110660 0.039427 0.006726
v -0.107045 0.058952 0.011893
v -0.117531 0.047640 0.002434
v -0.115696 0.056411 0.004664
v -0.077161 0.042276 0.015779
v -0.090274 0.045430 0.011607
v -0.111676 0.049282 0.011491
v -0.118580 0.052089 0.005068
v -0.100995 0.034871 0.011495
v -0.100514 0.029983 0.011287
v -0.094472 0.041896 0.024014
v -0.093196 0.023549 0.021958
v -0.082120 0.042365 0.035028
v -0.081692 0.023693 0.034705
v -0.073800 0.037454 0.039148
v -0.073616 0.029057 0.038794
v -0.100754 0.032427 0.011391
v -0.091707 0.032803 0.020513
v -0.082524 0.032833 0.038051
v -0.074138 0.033119 0.041188
v -0.130599 0.029020 0.000000
v -0.130599 0.029020 0.000000
v -0.130599 0.029020 0.000000
v -0.130599 0.029020 0.000000
v -0.130599 0.029020 0.000000
v -0.130599 0.029020 0.000000
v -0.130599 0.029020 0.000000
v -0.130599 0.029020 0.000000
v -0.130599 0.029020 0.000000
v -0.130599 0.029020 0.000000
v -0.130599 0.029020 0.000000
v -0.130599 0.029020 0.000000
vn -0.7588 -0.6513 0.0002
vn 0.3797 0.3254 -0.8660
vn 0.3593 0.2940 -0.8857
vn -0.7159 -0.6979 -0.0212
vn 0.3794 0.3254 0.8661
vn 0.3210 0.3645 0.8741
vn 0.3363 0.2388 -0.9110
vn -0.5210 -0.8534 -0.0170
vn 0.1160 0.4708 0.8746
vn 0.3170 0.4465 -0.8368
vn -0.4023 -0.9023 0.1548
vn 0.2113 0.4817 0.8505
vn 0.0227 0.3951 -0.9183
vn -0.2425 -0.9695 0.0356
vn 0.3378 0.3236 0.8838
vn -0.1007 0.5138 -0.8520
vn -0.0379 -0.9990 -0.0257
vn 0.2795 0.4603 0.8426
vn 0.5163 -0.8564 -0.0004
vn 0.0124 0.5907 -0.8068
vn 0.0850 0.6517 -0.7537
vn 0.4532 -0.8887 -0.0693
vn -0.5273 0.2663 0.8069
vn -0.5484 0.3186 0.7731
vn 0.0848 0.7275 -0.6808
vn 0.2157 -0.9762 -0.0241
vn -0.3581 0.3335 0.8721
vn -0.0811 0.7496 -0.6569
vn 0.0292 -0.9991 0.0295
vn 0.2206 0.3542 0.9088
vn -0.1979 0.6439 -0.7391
vn -0.2170 -0.9717 -0.0935
vn 0.5781 0.3640 0.7303
vn -0.1601 0.6004 -0.7835
vn -0.2932 -0.9552 -0.0407
vn 0.5848 0.3095 0.7498
vn 0.9995 -0.0327 0.0030
vn -0.4901 0.3482 -0.7991
vn -0.3996 0.4744 -0.7843
vn 0.9888 0.1488 -0.0115
vn -0.5104 -0.3116 0.8015
vn -0.4888 -0.5114 0.7068
vn -0.5627 0.4094 -0.7182
vn 0.9572 0.1592 0.2418
vn -0.4832 -0.5085 0.7127
vn -0.4793 0.3546 -0.8028
vn 0.9628 0.2292 0.1433
vn -0.5445 -0.2845 0.7890
vn 0.7683 0.6401 0.0010
vn -0.4596 -0.2286 -0.8582
vn -0.3781 -0.1804 -0.9080
vn 0.6373 0.7706 -0.0002
vn -0.3095 -0.4076 0.8591
vn -0.1626 -0.4576 0.8742
vn -0.2782 -0.2338 -0.9316
vn 0.3032 0.9465 0.1107
vn 0.0282 -0.5297 0.8477
vn 0.0133 -0.3158 -0.9487
vn -0.1270 0.9650 0.2296
vn -0.0145 -0.5203 0.8539
vn 0.2650 -0.3664 -0.8919
vn -0.3057 0.9423 0.1362
vn -0.1432 -0.6574 0.7398
vn 0.2939 -0.3292 -0.8974
vn -0.2454 0.9618 0.1215
vn -0.2027 -0.6574 0.7258
vn -0.0000 -0.0000 1.0000
vn 0.1980 -0.5392 0.8185
vn -0.0262 -0.4187 0.9077
vn 0.0206 -0.5277 0.8492
vn 0.1541 -0.5709 0.8064
vn 0.3020 -0.4866 0.8198
vn 0.2824 -0.3230 0.9033
vn 0.6896 -0.1948 0.6975
vn 0.4027 -0.0468 0.9141
vn 0.1284 -0.3629 0.9229
vn 0.0667 0.1034 0.9924
vn 0.2489 -0.6128 0.7500
vn 0.4053 -0.6198 0.6720
vn 0.1872 -0.3922 0.9006
vn 0.0167 -0.1988 0.9799
vn 0.0252 -0.3261 0.9450
vn 0.1354 -0.4123 0.9009
vn 0.2997 -0.3712 0.8789
vn 0.3346 -0.1950 0.9220
vn 0.7226 -0.2294 0.6521
vn 0.5192 0.0334 0.8540
vn 0.1806 -0.1859 0.9658
vn 0.2474 0.2832 0.9266
vn 0.2067 -0.4895 0.8472
vn 0.3422 -0.5552 0.7580
vn 0.6167 -0.2663 0.7408
vn 0.5087 -0.5090 0.6944
vn 0.6106 -0.4299 0.6651
vn 0.6475 -0.2933 0.7034
vn 0.5630 -0.1854 0.8054
vn 0.4090 -0.2601 0.8747
vn 0.2554 0.1819 0.9496
vn 0.1338 -0.1866 0.9733
vn 0.4527 -0.3948 0.7995
vn -0.0033 -0.5168 0.8561
vn 0.6823 -0.1806 0.7084
vn 0.6793 -0.0075 0.7338
vn 0.3840 -0.3733 0.8445
vn 0.1730 -0.2457 0.9538
vn 0.2151 -0.3620 0.9070
vn 0.3408 -0.4080 0.8470
vn 0.4826 -0.3179 0.8161
vn 0.4681 -0.1425 0.8721
vn 0.8198 -0.0412 0.5711
vn 0.5695 0.1347 0.8109
vn 0.3235 -0.1831 0.9283
vn 0.2449 0.2858 0.9265
vn 0.4259 -0.4565 0.7811
vn 0.5650 -0.4726 0.6763
vn 0.3900 0.3726 0.8420
vn 0.6167 0.2678 0.7402
vn 0.5444 0.3782 0.7487
vn 0.4158 0.4110 0.8113
vn 0.3114 0.3081 0.8990
vn 0.3788 0.1368 0.9153
vn -0.0655 -0.0057 0.9978
vn 0.2915 -0.1501 0.9447
vn 0.5089 0.1918 0.8392
vn 0.5954 -0.2685 0.7572
vn 0.3076 0.4495 0.8387
vn 0.1383 0.4496 0.8825
vn 0.4502 -0.1555 0.8793
vn 0.2029 -0.2365 0.9502
vn 0.3203 -0.2779 0.9056
vn 0.4455 -0.2101 0.8703
vn 0.4805 -0.0430 0.8759
vn 0.3385 0.0566 0.9393
vn 0.5356 0.4312 0.7261
vn 0.2137 0.3303 0.9194
vn 0.2633 -0.0833 0.9611
vn -0.1290 0.1850 0.9742
vn 0.5452 -0.1711 0.8207
vn 0.6623 -0.0644 0.7464
vn 0.6854 -0.1644 0.7094
vn 0.5205 -0.3691 0.7700
vn 0.6286 -0.3355 0.7016
vn 0.7012 -0.2097 0.6814
vn 0.6650 -0.0552 0.7448
vn 0.5164 -0.0573 0.8544
vn 0.4804 0.4087 0.7760
vn 0.2901 0.1176 0.9497
vn 0.5135 -0.2158 0.8305
vn 0.0639 -0.1814 0.9813
vn 0.7597 -0.1159 0.6399
vn 0.7993 0.0495 0.5989
vn 0.5232 0.0721 0.8492
vn 0.7004 0.1944 0.6867
vn 0.6001 0.2151 0.7704
vn 0.5132 0.1268 0.8489
vn 0.5147 -0.0439 0.8563
vn 0.6483 -0.1177 0.7522
vn 0.3978 -0.5199 0.7560
vn 0.7160 -0.3656 0.5947
vn 0.6927 0.0331 0.7205
vn 0.9213 -0.1634 0.3528
vn 0.4241 0.0713 0.9028
vn 0.3107 -0.0538 0.9490
vn -0.2262 0.4529 0.8624
vn -0.0512 0.6361 0.7699
vn -0.1795 0.6044 0.7762
vn -0.2536 0.4914 0.8332
vn -0.1919 0.3547 0.9151
vn -0.0081 0.3604 0.9328
vn -0.0224 -0.1093 0.9938
vn 0.2332 0.1811 0.9554
vn -0.0161 0.5047 0.8632
vn 0.4472 0.4365 0.7807
vn -0.3261 0.4011 0.8560
vn -0.3829 0.2396 0.8922
vn -0.0387 0.0754 0.9964
vn -0.2995 0.0212 0.9539
vn -0.1823 -0.0330 0.9827
vn -0.0467 0.0205 0.9987
vn 0.0058 0.1823 0.9832
vn -0.1331 0.2980 0.9452
vn 0.1929 0.5983 0.7777
vn -0.1927 0.5589 0.8065
vn -0.2294 0.1704 0.9583
vn -0.5387 0.4403 0.7183
vn 0.0692 0.0429 0.9967
vn 0.2216 0.1236 0.9673
vn -0.2977 0.0388 0.9539
vn -0.5356 -0.0249 0.8441
vn -0.4273 -0.0751 0.9010
vn -0.3032 -0.0164 0.9528
vn -0.2567 0.1479 0.9551
vn -0.3867 0.2589 0.8851
vn -0.0440 0.5784 0.8146
vn -0.4216 0.5217 0.7417
vn -0.4766 0.1269 0.8699
vn -0.7268 0.3916 0.5643
vn -0.1920 0.0109 0.9813
vn -0.0414 0.0990 0.9942
vn -0.2323 -0.0354 0.9720
vn -0.3820 -0.2447 0.8912
vn -0.2645 -0.2102 0.9412
vn -0.2024 -0.0820 0.9759
vn -0.2680 0.0750 0.9605
vn -0.4406 0.0731 0.8947
vn -0.3724 0.5240 0.7660
vn -0.6349 0.2389 0.7348
vn -0.4294 -0.0869 0.8989
vn -0.7978 -0.0717 0.5987
vn -0.1315 0.0112 0.9913
vn -0.0679 0.1739 0.9824
vn -0.2738 -0.1106 0.9554
vn -0.3145 -0.3652 0.8762
vn -0.2268 -0.2832 0.9318
vn -0.2274 -0.1401 0.9637
vn -0.3515 -0.0259 0.9358
vn -0.5013 -0.1021 0.8592
vn -0.6189 0.3325 0.7116
vn -0.7337 -0.0375 0.6785
vn -0.4243 -0.2422 0.8725
vn -0.7392 -0.3905 0.5487
vn -0.2038 -0.0254 0.9787
vn -0.2141 0.1488 0.9654
vn -0.7391 -0.1156 0.6636
vn -0.7378 0.1541 0.6572
vn -0.7944 0.0462 0.6057
vn -0.7747 -0.0979 0.6247
vn -0.6632 -0.1769 0.7272
vn -0.5615 -0.0580 0.8255
vn -0.2461 -0.4076 0.8794
vn -0.2914 -0.0292 0.9562
vn -0.6498 0.0575 0.7579
vn -0.2933 0.3417 0.8929
vn -0.7598 -0.2145 0.6137
vn -0.6877 -0.3736 0.6225
vt 0.757603 0.393009
vt 0.673690 0.238547
vt 0.693160 0.264730
vt 0.615774 0.448097
vt 0.524335 0.331288
vt 0.403004 0.568297
vt 0.300557 0.479783
vt 0.244031 0.596097
vt 0.194226 0.546599
vt 0.237161 0.361752
vt 0.156306 0.488219
vt 0.415372 0.214369
vt 0.654203 0.212375
s 1
usemtl knotweed
f 1/1/1 2/1/2 5/1/3 4/1/4
f 2/1/2 3/1/5 6/1/6 5/1/3
f 3/1/5 1/1/1 4/1/4 6/1/6
f 4/1/4 5/1/3 8/1/7 7/1/8
f 5/1/3 6/1/6 9/1/9 8/1/7
f 6/1/6 4/1/4 7/1/8 9/1/9
f 7/1/8 8/1/7 11/1/10 10/1/11
f 8/1/7 9/1/9 12/1/12 11/1/10
f 9/1/9 7/1/8 10/1/11 12/1/12
f 10/1/11 11/1/10 14/1/13 13/1/14
f 11/1/10 12/1/12 15/1/15 14/1/13
f 12/1/12 10/1/11 13/1/14 15/1/15
f 13/1/14 14/1/13 17/1/16 16/1/17
f 14/1/13 15/1/15 18/1/18 17/1/16
f 15/1/15 13/1/14 16/1/17 18/1/18
f 19/1/19 20/1/20 23/1/21 22/1/22
f 20/1/20 21/1/23 24/1/24 23/1/21
f 21/1/23 19/1/19 22/1/22 24/1/24
f 22/1/22 23/1/21 26/1/25 25/1/26
f 23/1/21 24/1/24 27/1/27 26/1/25
f 24/1/24 22/1/22 25/1/26 27/1/27
f 25/1/26 26/1/25 29/1/28 28/1/29
f 26/1/25 27/1/27 30/1/30 29/1/28
f 27/1/27 25/1/26 28/1/29 30/1/30
f 28/1/29 29/1/28 32/1/31 31/1/32
f 29/1/28 30/1/30 33/1/33 32/1/31
f 30/1/30 28/1/29 31/1/32 33/1/33
f 31/1/32 32/1/31 35/1/34 34/1/35
f 32/1/31 33/1/33 36/1/36 35/1/34
f 33/1/33 31/1/32 34/1/35 36/1/36
f 37/1/37 38/1/38 41/1/39 40/1/40
f 38/1/38 39/1/41 42/1/42 41/1/39
f 39/1/41 37/1/37 40/1/40 42/1/42
f 40/1/40 41/1/39 44/1/43 43/1/44
f 41/1/39 42/1/42 45/1/45 44/1/43
f 42/1/42 40/1/40 43/1/44 45/1/45
f 43/1/44 44/1/43 47/1/46 46/1/47
f 44/1/43 45/1/45 48/1/48 47/1/46
f 45/1/45 43/1/44 46/1/47 48/1/48
f 49/1/49 50/1/50 53/1/51 52/1/52
f 50/1/50 51/1/53 54/1/54 53/1/51
f 51/1/53 49/1/49 52/1/52 54/1/54
f 52/1/52 53/1/51 56/1/55 55/1/56
f 53/1/51 54/1/54 57/1/57 56/1/55
f 54/1/54 52/1/52 55/1/56 57/1/57
f 55/1/56 56/1/55 59/1/58 58/1/59
f 56/1/55 57/1/57 60/1/60 59/1/58
f 57/1/57 55/1/56 58/1/59 60/1/60
f 58/1/59 59/1/58 62/1/61 61/1/62
f 59/1/58 60/1/60 63/1/63 62/1/61
f 60/1/60 58/1/59 61/1/62 63/1/63
f 61/1/62 62/1/61 65/1/64 64/1/65
f 62/1/61 63/1/63 66/1/66 65/1/64
f 63/1/63 61/1/62 64/1/65 66/1/66
f 75/1/67 68/1/67 70/1/67 76/1/67
f 76/1/67 70/1/67 72/1/67 77/1/67
f 77/1/67 72/1/67 74/1/67 78/1/67
f 71/1/67 77/1/67 78/1/67 73/1/67
f 69/1/67 76/1/67 77/1/67 71/1/67
f 67/1/67 75/1/67 76/1/67 69/1/67
f 87/2/68 80/3/69 82/4/70 88/5/71
f 88/5/71 82/4/70 84/6/72 89/7/73
f 89/7/73 84/6/72 86/8/74 90/9/75
f 83/10/76 89/7/73 90/9/75 85/11/77
f 81/12/78 88/5/71 89/7/73 83/10/76
f 79/13/79 87/2/68 88/5/71 81/12/78
f 99/2/80 92/3/81 94/4/82 100/5/83
f 100/5/83 94/4/82 96/6/84 101/7/85
f 101/7/85 96/6/84 98/8/86 102/9/87
f 95/10/88 101/7/85 102/9/87 97/11/89
f 93/12/90 100/5/83 101/7/85 95/10/88
f 91/13/91 99/2/80 100/5/83 93/12/90
f 111/2/92 104/3/93 106/4/94 112/5/95
f 112/5/95 106/4/94 108/6/96 113/7/97
f 113/7/97 108/6/96 110/8/98 114/9/99
f 107/10/100 113/7/97 114/9/99 109/11/101
f 105/12/102 112/5/95 113/7/97 107/10/100
f 103/13/103 111/2/92 112/5/95 105/12/102
f 123/2/104 116/3/105 118/4/106 124/5/107
f 124/5/107 118/4/106 120/6/108 125/7/109
f 125/7/109 120/6/108 122/8/110 126/9/111
f 119/10/112 125/7/109 126/9/111 121/11/113
f 117/12/114 124/5/107 125/7/109 119/10/112
f 115/13/115 123/2/104 124/5/107 117/12/114
f 135/2/67 128/3/67 130/4/67 136/5/67
f 136/5/67 130/4/67 132/6/67 137/7/67
f 137/7/67 132/6/67 134/8/67 138/9/67
f 131/10/67 137/7/67 138/9/67 133/11/67
f 129/12/67 136/5/67 137/7/67 131/10/67
f 127/13/67 135/2/67 136/5/67 129/12/67
f 147/1/67 140/1/67 142/1/67 148/1/67
f 148/1/67 142/1/67 144/1/67 149/1/67
f 149/1/67 144/1/67 146/1/67 150/1/67
f 143/1/67 149/1/67 150/1/67 145/1/67
f 141/1/67 148/1/67 149/1/67 143/1/67
f 139/1/67 147/1/67 148/1/67 141/1/67
f 159/2/116 152/3/117 154/4/118 160/5/119
f 160/5/119 154/4/118 156/6/120 161/7/121
f 161/7/121 156/6/120 158/8/122 162/9/123
f 155/10/124 161/7/121 162/9/123 157/11/125
f 153/12/126 160/5/119 161/7/121 155/10/124
f 151/13/127 159/2/116 160/5/119 153/12/126
f 171/2/128 164/3/129 166/4/130 172/5/131
f 172/5/131 166/4/130 168/6/132 173/7/133
f 173/7/133 168/6/132 170/8/134 174/9/135
f 167/10/136 173/7/133 174/9/135 169/11/137
f 165/12/138 172/5/131 173/7/133 167/10/136
f 163/13/139 171/2/128 172/5/131 165/12/138
f 183/2/140 176/3/141 178/4/142 184/5/143
f 184/5/143 178/4/142 180/6/144 185/7/145
f 185/7/145 180/6/144 182/8/146 186/9/147
f 179/10/148 185/7/145 186/9/147 181/11/149
f 177/12/150 184/5/143 185/7/145 179/10/148
f 175/13/151 183/2/140 184/5/143 177/12/150
f 195/2/152 188/3/153 190/4/154 196/5/155
f 196/5/155 190/4/154 192/6/156 197/7/157
f 197/7/157 192/6/156 194/8/158 198/9/159
f 191/10/160 197/7/157 198/9/159 193/11/161
f 189/12/162 196/5/155 197/7/157 191/10/160
f 187/13/163 195/2/152 196/5/155 189/12/162
f 207/2/67 200/3/67 202/4/67 208/5/67
f 208/5/67 202/4/67 204/6/67 209/7/67
f 209/7/67 204/6/67 206/8/67 210/9/67
f 203/10/67 209/7/67 210/9/67 205/11/67
f 201/12/67 208/5/67 209/7/67 203/10/67
f 199/13/67 207/2/67 208/5/67 201/12/67
f 219/1/67 212/1/67 214/1/67 220/1/67
f 220/1/67 214/1/67 216/1/67 221/1/67
f 221/1/67 216/1/67 218/1/67 222/1/67
f 215/1/67 221/1/67 222/1/67 217/1/67
f 213/1/67 220/1/67 221/1/67 215/1/67
f 211/1/67 219/1/67 220/1/67 213/1/67
f 231/2/164 224/3/165 226/4/166 232/5/167
f 232/5/167 226/4/166 228/6/168 233/7/169
f 233/7/169 228/6/168 230/8/170 234/9/171
f 227/10/172 233/7/169 234/9/171 229/11/173
f 225/12/174 232/5/167 233/7/169 227/10/172
f 223/13/175 231/2/164 232/5/167 225/12/174
f 243/2/176 236/3/177 238/4/178 244/5/179
f 244/5/179 238/4/178 240/6/180 245/7/181
f 245/7/181 240/6/180 242/8/182 246/9/183
f 239/10/184 245/7/181 246/9/183 241/11/185
f 237/12/186 244/5/179 245/7/181 239/10/184
f 235/13/187 243/2/176 244/5/179 237/12/186
f 255/2/67 248/3/67 250/4/67 256/5/67
f 256/5/67 250/4/67 252/6/67 257/7/67
f 257/7/67 252/6/67 254/8/67 258/9/67
f 251/10/67 257/7/67 258/9/67 253/11/67
f 249/12/67 256/5/67 257/7/67 251/10/67
f 247/13/67 255/2/67 256/5/67 249/12/67
f 267/1/67 260/1/67 262/1/67 268/1/67
f 268/1/67 262/1/67 264/1/67 269/1/67
f 269/1/67 264/1/67 266/1/67 270/1/67
f 263/1/67 269/1/67 270/1/67 265/1/67
f 261/1/67 268/1/67 269/1/67 263/1/67
f 259/1/67 267/1/67 268/1/67 261/1/67
f 279/2/188 272/3/189 274/4/190 280/5/191
f 280/5/191 274/4/190 276/6/192 281/7/193
f 281/7/193 276/6/192 278/8/194 282/9/195
f 275/10/196 281/7/193 282/9/195 277/11/197
f 273/12/198 280/5/191 281/7/193 275/10/196
f 271/13/199 279/2/188 280/5/191 273/12/198
f 291/2/200 284/3/201 286/4/202 292/5/203
f 292/5/203 286/4/202 288/6/204 293/7/205
f 293/7/205 288/6/204 290/8/206 294/9/207
f 287/10/208 293/7/205 294/9/207 289/11/209
f 285/12/210 292/5/203 293/7/205 287/10/208
f 283/13/211 291/2/200 292/5/203 285/12/210
f 303/2/212 296/3/213 298/4/214 304/5/215
f 304/5/215 298/4/214 300/6/216 305/7/217
f 305/7/217 300/6/216 302/8/218 306/9/219
f 299/10/220 305/7/217 306/9/219 301/11/221
f 297/12/222 304/5/215 305/7/217 299/10/220
f 295/13/223 303/2/212 304/5/215 297/12/222
f 315/2/224 308/3/225 310/4/226 316/5/227
f 316/5/227 310/4/226 312/6/228 317/7/229
f 317/7/229 312/6/228 314/8/230 318/9/231
f 311/10/232 317/7/229 318/9/231 313/11/233
f 309/12/234 316/5/227 317/7/229 311/10/232
f 307/13/235 315/2/224 316/5/227 309/12/234
f 327/2/67 320/3/67 322/4/67 328/5/67
f 328/5/67 322/4/67 324/6/67 329/7/67
f 329/7/67 324/6/67 326/8/67 330/9/67
f 323/10/67 329/7/67 330/9/67 325/11/67
f 321/12/67 328/5/67 329/7/67 323/10/67
f 319/13/67 327/2/67 328/5/67 321/12/67
