# Blender 4.0.2
# www.blender.org
mtllib polygonum_06.mtl
o polygonum.005
v 0.001310 -0.002747 0.000000
v -0.001859 0.002347 -0.003464
v -0.001859 0.002347 0.003464
v 0.028898 0.014418 0.000000
v 0.025728 0.019513 -0.003464
v 0.025728 0.019513 0.003464
v 0.054371 0.034980 0.000000
v 0.054371 0.034980 0.000000
v 0.054371 0.034980 0.000000
v -0.004803 -0.001172 0.000000
v 0.001186 -0.003722 -0.002373
v 0.001209 0.001325 0.002373
v -0.004910 -0.024633 0.024948
v 0.001079 -0.027184 0.022575
v 0.001102 -0.022137 0.027321
v -0.001017 -0.048113 0.049896
v -0.001017 -0.048113 0.049896
v -0.001017 -0.048113 0.049896
v -0.000003 0.000526 0.000000
v -0.006146 -0.001201 -0.002698
v -0.003616 -0.004734 0.002698
v -0.014359 0.020070 0.019507
v -0.019066 0.017114 0.015370
v -0.016642 0.013672 0.020873
v -0.050155 0.022897 0.035696
v -0.051528 0.019611 0.030665
v -0.050185 0.016738 0.035950
v -0.087410 0.018092 0.037249
v -0.087410 0.018092 0.037249
v -0.087410 0.018092 0.037249
v -0.000803 0.000649 0.000000
v -0.000803 0.000649 0.000000
v -0.000803 0.000649 0.000000
v -0.000803 0.000649 0.000000
v -0.000803 0.000649 0.000000
v -0.000803 0.000649 0.000000
v -0.000803 0.000649 0.000000
v -0.000803 0.000649 0.000000
v -0.000803 0.000649 0.000000
v -0.000803 0.000649 0.000000
v -0.000803 0.000649 0.000000
v -0.000803 0.000649 0.000000
v 0.026626 0.021260 -0.000090
v 0.031420 0.018595 -0.001415
v 0.027840 0.039219 0.001796
v 0.045029 0.027869 -0.003393
v 0.035722 0.055550 -0.003887
v 0.054048 0.044953 -0.007292
v 0.044349 0.060884 -0.010402
v 0.052472 0.055942 -0.012046
v 0.029023 0.019928 -0.000753
v 0.035352 0.032772 -0.004300
v 0.046746 0.052400 -0.003174
v 0.049707 0.059909 -0.009542
v 0.054371 0.034980 0.000000
v 0.054371 0.034980 0.000000
v 0.054371 0.034980 0.000000
v 0.054371 0.034980 0.000000
v 0.054371 0.034980 0.000000
v 0.054371 0.034980 0.000000
v 0.054371 0.034980 0.000000
v 0.054371 0.034980 0.000000
v 0.054371 0.034980 0.000000
v 0.054371 0.034980 0.000000
v 0.054371 0.034980 0.000000
v 0.054371 0.034980 0.000000
v -0.000803 -0.001190 0.000000
v -0.000803 -0.001190 0.000000
v -0.000803 -0.001190 0.000000
v -0.000803 -0.001190 0.000000
v -0.000803 -0.001190 0.000000
v -0.000803 -0.001190 0.000000
v -0.000803 -0.001190 0.000000
v -0.000803 -0.001190 0.000000
v -0.000803 -0.001190 0.000000
v -0.000803 -0.001190 0.000000
v -0.000803 -0.001190 0.000000
v -0.000803 -0.001190 0.000000
v -0.001157 -0.021573 0.026486
v 0.003855 -0.024121 0.026004
v -0.001585 -0.006950 0.037141
v 0.016642 -0.017451 0.034197
v 0.007278 0.008554 0.043637
v 0.025755 -0.002296 0.042898
v 0.017616 0.014701 0.044437
v 0.025874 0.009739 0.043885
v 0.001349 -0.022847 0.026245
v 0.008050 -0.011095 0.032129
v 0.017101 0.003587 0.046923
v 0.022152 0.012539 0.046706
v -0.001017 -0.048113 0.049896
v -0.001017 -0.048113 0.049896
v -0.001017 -0.048113 0.049896
v -0.001017 -0.048113 0.049896
v -0.001017 -0.048113 0.049896
v -0.001017 -0.048113 0.049896
v -0.001017 -0.048113 0.049896
v -0.001017 -0.048113 0.049896
v -0.001017 -0.048113 0.049896
v -0.001017 -0.048113 0.049896
v -0.001017 -0.048113 0.049896
v -0.001017 -0.048113 0.049896
v -0.003255 -0.001803 0.000000
v -0.003255 -0.001803 0.000000
v -0.003255 -0.001803 0.000000
v -0.003255 -0.001803 0.000000
v -0.003255 -0.001803 0.000000
v -0.003255 -0.001803 0.000000
v -0.003255 -0.001803 0.000000
v -0.003255 -0.001803 0.000000
v -0.003255 -0.001803 0.000000
v -0.003255 -0.001803 0.000000
v -0.003255 -0.001803 0.000000
v -0.003255 -0.001803 0.000000
v -0.016147 0.013549 0.020111
v -0.021792 0.015315 0.018371
v -0.015211 -0.003122 0.030705
v -0.035708 0.004749 0.023185
v -0.022663 -0.022161 0.034325
v -0.044063 -0.014201 0.029084
v -0.032251 -0.030894 0.032022
v -0.041782 -0.027192 0.029451
v -0.018970 0.014432 0.019241
v -0.024848 -0.000098 0.023003
v -0.034808 -0.019176 0.035383
v -0.038023 -0.029735 0.033298
v -0.053183 0.021684 0.033692
v -0.048734 0.023565 0.035853
v -0.066691 0.031928 0.034464
v -0.049236 0.037832 0.042027
v -0.073141 0.048534 0.034015
v -0.056529 0.054751 0.043482
v -0.070853 0.059602 0.034226
v -0.063253 0.062277 0.038344
v -0.050958 0.022625 0.034772
v -0.056365 0.035352 0.035154
v -0.066677 0.052908 0.041439
v -0.068336 0.061821 0.038159
v -0.087410 0.018092 0.037249
v -0.087410 0.018092 0.037249
v -0.087410 0.018092 0.037249
v -0.087410 0.018092 0.037249
v -0.087410 0.018092 0.037249
v -0.087410 0.018092 0.037249
v -0.087410 0.018092 0.037249
v -0.087410 0.018092 0.037249
v -0.087410 0.018092 0.037249
v -0.087410 0.018092 0.037249
v -0.087410 0.018092 0.037249
v -0.087410 0.018092 0.037249
vn 0.5283 -0.8491 -0.0000
vn -0.2642 0.4245 -0.8660
vn -0.2134 0.4551 -0.8645
vn 0.5777 -0.8163 -0.0000
vn -0.2642 0.4245 0.8660
vn -0.2134 0.4551 0.8645
vn -0.1584 0.4859 -0.8595
vn 0.6281 -0.7781 -0.0000
vn -0.1584 0.4859 0.8595
vn -1.0000 0.0046 -0.0000
vn 0.4971 -0.6331 -0.5933
vn 0.4961 -0.6707 -0.5513
vn -0.9986 -0.0340 0.0410
vn 0.5029 0.6286 0.5933
vn 0.5019 0.5890 0.6334
vn 0.4934 -0.7083 -0.5048
vn -0.9936 -0.0749 0.0845
vn 0.4991 0.5449 0.6738
vn 0.8115 0.5843 0.0009
vn -0.7224 0.1589 -0.6729
vn -0.5242 0.2180 -0.8232
vn 0.5810 0.7781 0.2386
vn -0.0887 -0.7273 0.6806
vn 0.1448 -0.7105 0.6886
vn -0.3063 0.0042 -0.9519
vn 0.1021 0.8530 0.5118
vn 0.0945 -0.7927 0.6022
vn -0.1789 -0.0367 -0.9832
vn -0.0931 0.8750 0.4750
vn -0.0121 -0.8456 0.5336
vn -0.0000 -0.0000 1.0000
vn 0.3076 0.0503 0.9502
vn 0.0728 0.1795 0.9811
vn 0.1318 0.0614 0.9894
vn 0.2680 0.0137 0.9633
vn 0.4031 0.1032 0.9093
vn 0.3644 0.2825 0.8874
vn 0.7400 0.3050 0.5994
vn 0.4450 0.5241 0.7261
vn 0.2185 0.2475 0.9439
vn 0.0950 0.6610 0.7444
vn 0.3652 -0.0444 0.9299
vn 0.5175 -0.0808 0.8519
vn -0.1225 -0.4414 0.8889
vn -0.3536 -0.3023 0.8852
vn -0.2988 -0.4194 0.8572
vn -0.1624 -0.4726 0.8662
vn -0.0209 -0.3929 0.9193
vn -0.0541 -0.2196 0.9741
vn 0.4065 -0.1333 0.9039
vn 0.0768 0.0510 0.9957
vn -0.2087 -0.2510 0.9452
vn -0.2538 0.2223 0.9414
vn -0.0578 -0.5247 0.8493
vn 0.1145 -0.5472 0.8292
vn -0.1818 0.3681 0.9119
vn 0.0669 0.2749 0.9591
vn -0.0023 0.3821 0.9241
vn -0.1448 0.4082 0.9013
vn -0.2757 0.2990 0.9136
vn -0.2220 0.1304 0.9663
vn -0.6259 -0.0320 0.7792
vn -0.2968 -0.1606 0.9413
vn -0.0745 0.1923 0.9785
vn 0.0648 -0.2620 0.9629
vn -0.2508 0.4416 0.8615
vn -0.4144 0.4337 0.8001
vn -0.3320 -0.2258 0.9159
vn -0.5481 -0.3087 0.7774
vn -0.4338 -0.3482 0.8310
vn -0.3261 -0.2795 0.9031
vn -0.3142 -0.1137 0.9425
vn -0.4616 -0.0173 0.8869
vn -0.1889 0.3695 0.9098
vn -0.5443 0.2586 0.7980
vn -0.5221 -0.1576 0.8382
vn -0.8103 0.1138 0.5748
vn -0.2238 -0.2381 0.9451
vn -0.0949 -0.1277 0.9873
vt 0.752879 0.394427
vt 0.673690 0.238547
vt 0.693160 0.264730
vt 0.615774 0.448097
vt 0.524335 0.331288
vt 0.403004 0.568297
vt 0.300557 0.479783
vt 0.244031 0.596097
vt 0.194226 0.546599
vt 0.237161 0.361752
vt 0.156306 0.488219
vt 0.415372 0.214369
vt 0.654203 0.212375
s 1
usemtl knotweed
f 1/1/1 2/1/2 5/1/3 4/1/4
f 2/1/2 3/1/5 6/1/6 5/1/3
f 3/1/5 1/1/1 4/1/4 6/1/6
f 4/1/4 5/1/3 8/1/7 7/1/8
f 5/1/3 6/1/6 9/1/9 8/1/7
f 6/1/6 4/1/4 7/1/8 9/1/9
f 10/1/10 11/1/11 14/1/12 13/1/13
f 11/1/11 12/1/14 15/1/15 14/1/12
f 12/1/14 10/1/10 13/1/13 15/1/15
f 13/1/13 14/1/12 17/1/16 16/1/17
f 14/1/12 15/1/15 18/1/18 17/1/16
f 15/1/15 13/1/13 16/1/17 18/1/18
f 19/1/19 20/1/20 23/1/21 22/1/22
f 20/1/20 21/1/23 24/1/24 23/1/21
f 21/1/23 19/1/19 22/1/22 24/1/24
f 22/1/22 23/1/21 26/1/25 25/1/26
f 23/1/21 24/1/24 27/1/27 26/1/25
f 24/1/24 22/1/22 25/1/26 27/1/27
f 25/1/26 26/1/25 29/1/28 28/1/29
f 26/1/25 27/1/27 30/1/30 29/1/28
f 27/1/27 25/1/26 28/1/29 30/1/30
f 39/1/31 32/1/31 34/1/31 40/1/31
f 40/1/31 34/1/31 36/1/31 41/1/31
f 41/1/31 36/1/31 38/1/31 42/1/31
f 35/1/31 41/1/31 42/1/31 37/1/31
f 33/1/31 40/1/31 41/1/31 35/1/31
f 31/1/31 39/1/31 40/1/31 33/1/31
f 51/2/32 44/3/33 46/4/34 52/5/35
f 52/5/35 46/4/34 48/6/36 53/7/37
f 53/7/37 48/6/36 50/8/38 54/9/39
f 47/10/40 53/7/37 54/9/39 49/11/41
f 45/12/42 52/5/35 53/7/37 47/10/40
f 43/13/43 51/2/32 52/5/35 45/12/42
f 63/2/31 56/3/31 58/4/31 64/5/31
f 64/5/31 58/4/31 60/6/31 65/7/31
f 65/7/31 60/6/31 62/8/31 66/9/31
f 59/10/31 65/7/31 66/9/31 61/11/31
f 57/12/31 64/5/31 65/7/31 59/10/31
f 55/13/31 63/2/31 64/5/31 57/12/31
f 75/1/31 68/1/31 70/1/31 76/1/31
f 76/1/31 70/1/31 72/1/31 77/1/31
f 77/1/31 72/1/31 74/1/31 78/1/31
f 71/1/31 77/1/31 78/1/31 73/1/31
f 69/1/31 76/1/31 77/1/31 71/1/31
f 67/1/31 75/1/31 76/1/31 69/1/31
f 87/2/44 80/3/45 82/4/46 88/5/47
f 88/5/47 82/4/46 84/6/48 89/7/49
f 89/7/49 84/6/48 86/8/50 90/9/51
f 83/10/52 89/7/49 90/9/51 85/11/53
f 81/12/54 88/5/47 89/7/49 83/10/52
f 79/13/55 87/2/44 88/5/47 81/12/54
f 99/2/31 92/3/31 94/4/31 100/5/31
f 100/5/31 94/4/31 96/6/31 101/7/31
f 101/7/31 96/6/31 98/8/31 102/9/31
f 95/10/31 101/7/31 102/9/31 97/11/31
f 93/12/31 100/5/31 101/7/31 95/10/31
f 91/13/31 99/2/31 100/5/31 93/12/31
f 111/1/31 104/1/31 106/1/31 112/1/31
f 112/1/31 106/1/31 108/1/31 113/1/31
f 113/1/31 108/1/31 110/1/31 114/1/31
f 107/1/31 113/1/31 114/1/31 109/1/31
f 105/1/31 112/1/31 113/1/31 107/1/31
f 103/1/31 111/1/31 112/1/31 105/1/31
f 123/2/56 116/3/57 118/4/58 124/5/59
f 124/5/59 118/4/58 120/6/60 125/7/61
f 125/7/61 120/6/60 122/8/62 126/9/63
f 119/10/64 125/7/61 126/9/63 121/11/65
f 117/12/66 124/5/59 125/7/61 119/10/64
f 115/13/67 123/2/56 124/5/59 117/12/66
f 135/2/68 128/3/69 130/4/70 136/5/71
f 136/5/71 130/4/70 132/6/72 137/7/73
f 137/7/73 132/6/72 134/8/74 138/9/75
f 131/10/76 137/7/73 138/9/75 133/11/77
f 129/12/78 136/5/71 137/7/73 131/10/76
f 127/13/79 135/2/68 136/5/71 129/12/78
f 147/2/31 140/3/31 142/4/31 148/5/31
f 148/5/31 142/4/31 144/6/31 149/7/31
f 149/7/31 144/6/31 146/8/31 150/9/31
f 143/10/31 149/7/31 150/9/31 145/11/31
f 141/12/31 148/5/31 149/7/31 143/10/31
f 139/13/31 147/2/31 148/5/31 141/12/31
