# Blender 4.0.2
# www.blender.org
mtllib stone_07.mtl
o Cube.006
v -0.022209 -0.005918 -0.015048
v -0.018823 0.016693 0.001403
v 0.015320 0.019581 -0.003008
v -0.002794 -0.016526 0.011188
v -0.022506 -0.001130 0.007199
v 0.022049 -0.004617 0.017933
v 0.021046 -0.012928 -0.006545
vn -0.0913 -0.9449 -0.3145
vn -0.1523 0.5963 -0.7882
vn -0.2378 -0.0532 0.9699
vn -0.1951 0.3395 0.9201
vn 0.2131 0.1427 -0.9666
vn 0.3491 -0.8916 0.2884
vn 0.9777 0.1833 -0.1023
vn 0.0410 0.6604 0.7498
vn -0.9812 0.1855 -0.0531
vn -0.6274 -0.7629 0.1558
vt 0.461504 0.541313
vt 0.503924 0.585351
vt 0.460250 0.592856
vt 0.489732 0.458297
vt 0.478393 0.495849
vt 0.460250 0.435709
vt 0.505159 0.534970
vt 0.549955 0.525576
vt 0.542451 0.548003
vt 0.549955 0.503150
vt 0.415397 0.525738
vt 0.451141 0.503150
vt 0.456443 0.536252
vt 0.505103 0.480723
vt 0.493119 0.435870
vt 0.504122 0.413444
s 0
usemtl stone2
f 7/1/1 4/2/1 1/3/1
f 2/4/2 3/5/2 1/6/2
f 6/7/3 5/8/3 4/9/3
f 2/10/4 5/8/4 6/7/4
f 1/11/5 3/12/5 7/13/5
f 7/1/6 6/7/6 4/2/6
f 3/5/7 6/7/7 7/13/7
f 2/4/8 6/14/8 3/5/8
f 5/15/9 2/4/9 1/6/9
f 1/6/10 4/16/10 5/15/10
