# Blender 4.0.2
# www.blender.org
mtllib stone_06.mtl
o Cube.005
v -0.013003 -0.017345 -0.012834
v 0.016199 0.021687 -0.008625
v 0.022802 -0.007317 -0.014553
v -0.010460 -0.018732 0.016699
v 0.017957 -0.000636 0.017704
v 0.022924 0.023135 0.001395
v -0.030550 0.006439 0.000859
vn -0.2066 0.2564 -0.9442
vn 0.2660 -0.9616 -0.0681
vn -0.2980 0.9525 0.0624
vn -0.1897 0.5821 0.7907
vn -0.7930 -0.6079 0.0397
vn -0.2594 0.3575 0.8972
vn 0.5142 -0.8212 0.2473
vn 0.7744 0.2911 -0.5618
vn 0.9819 -0.0910 0.1663
vt 0.796438 0.241479
vt 0.796438 0.222971
vt 0.822843 0.213337
vt 0.817597 0.241479
vt 0.852225 0.262006
vt 0.827216 0.269590
vt 0.826623 0.236635
vt 0.832879 0.175654
vt 0.841396 0.211108
vt 0.824548 0.211663
vt 0.852659 0.192456
vt 0.827216 0.157146
vt 0.852659 0.159306
vt 0.852984 0.234480
s 0
usemtl stone1
f 1/1/1 7/2/1 2/3/1 3/4/1
f 4/5/2 1/6/2 3/7/2
f 7/8/3 6/9/3 2/10/3
f 5/11/4 6/9/4 7/8/4
f 1/12/5 4/13/5 7/8/5
f 4/13/6 5/11/6 7/8/6
f 3/7/7 5/14/7 4/5/7
f 2/10/8 6/9/8 3/7/8
f 6/9/9 5/14/9 3/7/9
