# Blender 4.0.2
# www.blender.org
mtllib stone_02.mtl
o Cube.001
v -0.013268 -0.018332 -0.013537
v -0.018711 0.019293 -0.006284
v 0.017211 0.021859 0.000714
v 0.016589 0.003853 -0.013412
v 0.023483 0.005751 0.016773
v -0.016373 -0.016103 0.017481
v 0.003925 -0.018867 -0.013505
vn -0.1893 0.6553 0.7312
vn -0.0311 -0.9972 0.0685
vn -0.2729 0.5238 0.8070
vn 0.1091 0.6112 -0.7839
vn 0.4520 -0.8123 0.3685
vn 0.8615 -0.4796 -0.1666
vn 0.9624 0.1464 -0.2290
vn -0.9880 -0.1256 -0.0899
vn -0.0934 0.1313 -0.9869
vt 0.201457 0.923001
vt 0.187539 0.915774
vt 0.184143 0.894375
vt 0.183037 0.944998
vt 0.202436 0.956762
vt 0.183678 0.960241
vt 0.224669 0.915774
vt 0.222424 0.934175
vt 0.179398 0.926891
vt 0.158829 0.917236
vt 0.183678 0.871307
vt 0.201603 0.875139
vt 0.157969 0.938007
vt 0.174625 0.938007
s 0
usemtl stone1
f 5/1/1 3/2/1 2/3/1
f 7/4/2 6/5/2 1/6/2
f 2/7/3 6/8/3 5/1/3
f 3/2/4 4/9/4 2/10/4
f 5/1/5 6/5/5 7/4/5
f 4/9/6 5/1/6 7/4/6
f 3/2/7 5/1/7 4/9/7
f 1/11/8 6/12/8 2/3/8
f 1/13/9 2/10/9 4/9/9 7/14/9
