# Blender v3.0.0 OBJ File: 'market_gardening_v2.blend'
# www.blender.org
mtllib maize_small.mtl
o maize_small_unit.001_Plane.008
v -0.004624 0.000712 0.000000
v 0.003728 0.000541 0.000000
v -0.002583 0.005511 0.000000
v 0.002409 0.005359 0.000000
v -0.000772 -0.002792 0.000000
v -0.001390 0.000988 0.040921
v 0.004968 0.000858 0.040921
v 0.000165 0.004641 0.040921
v 0.003965 0.004525 0.040921
v 0.001543 -0.001679 0.040921
v 0.000204 0.001085 0.081842
v 0.005854 0.000970 0.081842
v 0.001585 0.004332 0.081842
v 0.004962 0.004229 0.081842
v 0.002809 -0.001285 0.081842
v -0.000678 0.011362 0.015333
v 0.001052 0.004328 0.001584
v -0.000179 0.018754 0.028370
v -0.000733 0.027707 0.032507
v -0.000130 0.032849 0.028643
v 0.001410 0.035017 0.021487
v -0.002977 0.011396 0.016670
v -0.000960 0.003509 0.001272
v -0.002829 0.018087 0.028289
v -0.002785 0.027751 0.032984
v -0.002207 0.031493 0.028975
v 0.001394 0.009922 0.017107
v 0.002922 0.002339 0.001874
v 0.002614 0.017015 0.028540
v 0.001306 0.026540 0.033136
v 0.002134 0.031051 0.028758
v 0.011503 -0.005832 0.040435
v 0.002450 0.000502 0.025935
v 0.017771 -0.011604 0.053766
v 0.024910 -0.017500 0.058283
v 0.030415 -0.023676 0.053923
v 0.030680 -0.028101 0.044836
v 0.012960 -0.004054 0.041772
v 0.003062 0.002587 0.025623
v 0.019294 -0.009360 0.053413
v 0.026479 -0.015221 0.059083
v 0.031132 -0.021623 0.052076
v 0.009086 -0.006556 0.042209
v -0.000271 0.000277 0.026225
v 0.014543 -0.012140 0.054150
v 0.021728 -0.018000 0.059820
v 0.026238 -0.024645 0.052857
v -0.008229 0.002420 0.055650
v -0.001346 0.001849 0.042516
v -0.034852 0.002420 0.070673
v -0.019588 0.002420 0.063272
v -0.049406 0.002420 0.073322
v -0.067155 0.002420 0.069298
v -0.079224 0.002420 0.060890
v -0.085259 0.002420 0.047840
v -0.004884 0.005869 0.054422
v 0.000566 0.004128 0.041537
v -0.034522 0.009155 0.071514
v -0.018918 0.007378 0.066944
v -0.045200 0.007461 0.075405
v -0.061467 0.008202 0.070025
v -0.076368 0.005867 0.060539
v -0.006532 -0.002193 0.055647
v 0.001551 -0.000994 0.042877
v -0.031302 -0.004325 0.069905
v -0.019662 -0.003143 0.068046
v -0.045856 -0.004325 0.075174
v -0.065025 -0.002905 0.071269
v -0.077826 -0.000710 0.056881
v 0.003189 0.001769 0.052761
v 0.014907 0.003412 0.080090
v 0.047605 0.004506 0.116128
v 0.029698 0.006549 0.101952
v 0.063193 -0.005396 0.148878
v 0.077695 -0.009536 0.163287
v 0.092126 -0.006678 0.177861
v 0.096942 -0.009373 0.190710
v 0.003735 0.004375 0.058425
v 0.015186 0.006772 0.081235
v 0.049423 0.012967 0.127843
v 0.030655 0.012182 0.103251
v 0.064990 0.001746 0.140859
v 0.077179 -0.005528 0.166811
v 0.091640 -0.004001 0.178671
v 0.002493 -0.000792 0.060304
v 0.013694 -0.002040 0.082736
v 0.047188 -0.002414 0.121387
v 0.027606 0.000370 0.105982
v 0.061457 -0.013397 0.144048
v 0.077592 -0.014565 0.167345
v 0.094717 -0.010594 0.179336
v 0.000277 0.008036 0.092707
v 0.000251 0.003476 0.067377
v -0.009635 0.029970 0.141817
v -0.003658 0.012377 0.121285
v -0.026024 0.053768 0.156502
v -0.046033 0.067144 0.171739
v -0.066408 0.082746 0.175793
v -0.085099 0.100141 0.164751
v -0.094213 0.112222 0.135927
v -0.004332 -0.000249 0.093276
v 0.000211 0.000229 0.071084
v -0.019523 0.020508 0.146695
v -0.008684 0.004904 0.121674
v -0.038255 0.045598 0.160759
v -0.054923 0.059342 0.176463
v -0.075297 0.074944 0.179182
v -0.090969 0.096106 0.162024
v 0.009603 0.010075 0.094100
v 0.004407 0.004609 0.070097
v 0.002380 0.031306 0.152693
v 0.005251 0.015228 0.122498
v -0.015042 0.058773 0.160656
v -0.034465 0.073857 0.178285
v -0.054839 0.089459 0.181003
v -0.077104 0.106459 0.162705
v 0.000536 -0.004038 0.092187
v 0.001384 -0.000238 0.066444
v -0.000396 -0.023539 0.138358
v -0.000082 -0.009931 0.118178
v 0.001988 -0.042603 0.167695
v 0.001469 -0.062664 0.190841
v -0.005811 -0.080797 0.205094
v -0.012747 -0.101945 0.210001
v -0.013548 -0.126043 0.193122
v -0.003871 0.001532 0.091598
v -0.000456 0.001386 0.072729
v -0.009540 -0.017558 0.153770
v -0.007919 -0.002684 0.119510
v -0.013132 -0.044563 0.171318
v -0.011704 -0.059048 0.199334
v -0.013604 -0.078911 0.207870
v -0.018438 -0.099159 0.207338
v 0.007701 -0.001590 0.094385
v 0.004512 0.000882 0.069579
v 0.018129 -0.028855 0.152007
v 0.013134 -0.008296 0.125277
v 0.013187 -0.052104 0.174654
v 0.010662 -0.061790 0.198015
v 0.001892 -0.079614 0.211454
v -0.007896 -0.104877 0.208954
v 0.037756 0.017885 0.162825
v 0.004473 0.002821 0.076231
v 0.015840 0.010322 0.114592
v 0.008990 0.006990 0.094203
v 0.054585 0.029297 0.176695
v 0.030566 0.028528 0.168431
v 0.002124 0.004889 0.077686
v 0.006597 0.014031 0.116404
v 0.003832 0.008742 0.094190
v 0.010799 0.018961 0.142620
v 0.042247 0.009578 0.167785
v 0.004784 0.000472 0.076294
v 0.016700 -0.001544 0.117344
v 0.009730 0.000597 0.094136
v 0.023731 0.015673 0.141161
v 0.023425 0.001971 0.143010
vt 0.139711 0.255112
vt 0.137858 0.259662
vt 0.138856 0.248264
vt 0.136210 0.248264
vt 0.135733 0.255778
vt 0.320841 0.172151
vt 0.320345 0.169923
vt 0.371135 0.163053
vt 0.371518 0.165117
vt 0.320000 0.165667
vt 0.320202 0.163583
vt 0.371039 0.156932
vt 0.370943 0.158765
vt 0.320010 0.167821
vt 0.370972 0.160843
vt 0.269489 0.172559
vt 0.269591 0.170453
vt 0.269802 0.179614
vt 0.269726 0.177276
vt 0.269663 0.175123
vt 0.269313 0.168179
vt 0.320356 0.161511
vt 0.069897 0.131127
vt 0.070886 0.123204
vt 0.072041 0.136391
vt 0.073948 0.123204
vt 0.074500 0.131897
vt 0.371090 0.155104
vt 0.986045 0.510244
vt 0.676744 0.497855
vt 0.651779 0.347661
vt 0.996130 0.382280
vt 0.154805 0.492044
vt 0.029271 0.499200
vt 0.046956 0.380633
vt 0.156183 0.349725
vt 0.372313 0.500644
vt 0.383066 0.338374
vt -0.094515 0.534566
vt 1.000624 0.670475
vt 0.664057 0.654476
vt 0.173735 0.631166
vt 0.045709 0.644926
vt 0.395304 0.708158
vt 1.242221 0.520661
vt 0.783981 0.504725
vt 0.753911 0.394704
vt 1.256800 0.417159
vt 0.083809 0.511314
vt -0.180994 0.512704
vt -0.182263 0.412878
vt 0.101667 0.375177
vt 0.390038 0.511772
vt 0.399681 0.388865
vt -0.398743 0.522222
vt 1.267973 0.616532
vt 0.773865 0.632523
vt 0.127662 0.669749
vt -0.175619 0.668115
vt 0.421557 0.664765
vt -0.238634 0.497312
vt -0.074584 0.493416
vt -0.056233 0.607225
vt 0.095145 0.464570
vt 0.325118 0.496327
vt 0.374693 0.664877
vt 0.161669 0.641014
vt 0.729256 0.507067
vt 0.913137 0.518290
vt 0.952720 0.635584
vt 0.711474 0.684663
vt 0.513060 0.506817
vt 0.512185 0.707948
vt 1.095809 0.495232
vt 1.117316 0.567410
vt -0.100284 0.365655
vt 0.130145 0.312115
vt 0.371924 0.292052
vt 0.701073 0.292052
vt 0.928350 0.377140
vt 0.558193 0.312282
vt 1.108591 0.383685
vt -0.174976 0.517806
vt 0.114492 0.512516
vt 0.126518 0.807486
vt -0.160531 0.733520
vt 0.394226 0.489763
vt 0.712621 0.509751
vt 0.693479 0.884475
vt 0.445290 0.916210
vt 0.991398 0.522572
vt 1.249502 0.523368
vt 1.238419 0.704627
vt 0.994570 0.844249
vt -0.497309 0.555651
vt -0.441435 0.705974
vt 1.407873 0.493034
vt -0.152006 0.285084
vt 0.139433 0.212778
vt 0.401703 0.123935
vt 0.689562 0.106463
vt 0.992296 0.206233
vt 1.293530 0.308980
vt -0.420751 0.301475
vt 0.983864 0.497915
vt 0.947223 0.087899
vt 0.721647 0.050095
vt 0.707747 0.506829
vt 0.149815 0.505457
vt 0.169773 0.036231
vt -0.101459 0.145440
vt -0.094246 0.518216
vt -0.351954 0.508817
vt -0.366444 0.220669
vt -0.604025 0.297163
vt -0.621575 0.505402
vt 1.286214 0.487180
vt 1.284686 0.227080
vt 0.474920 0.020147
vt 0.441461 0.505355
vt 1.567296 0.485396
vt 0.700231 0.923940
vt 0.956670 0.871546
vt -0.090843 0.882391
vt 0.165420 0.943355
vt -0.626582 0.766539
vt -0.333210 0.788301
vt 1.270731 0.812948
vt 0.445927 0.939260
vt 1.258132 0.706555
vt 1.176251 0.503203
vt 0.963223 0.498363
vt 0.972405 0.100195
vt 1.166537 0.238420
vt 0.711285 0.505143
vt 0.427829 0.506814
vt 0.436299 0.040706
vt 0.730369 0.042871
vt -0.106707 0.511725
vt -0.369233 0.519597
vt -0.381950 0.176081
vt -0.121543 0.104573
vt 0.166597 0.508517
vt 0.191576 0.054855
vt 1.480342 0.466174
vt -0.597832 0.561080
vt -0.555086 0.408286
vt 1.182400 0.822744
vt 0.968012 0.931388
vt 0.710943 0.972726
vt 0.437029 0.971856
vt -0.092018 0.923509
vt -0.357512 0.861293
vt 0.195106 0.973964
vt -0.523849 0.693850
vt -0.201709 0.530858
vt 0.146115 0.518708
vt 0.128988 0.835722
vt -0.214370 0.723815
vt 0.611197 0.524053
vt 1.073635 0.511280
vt 1.111214 0.884124
vt 0.566213 0.986108
vt -0.505885 0.523139
vt -0.492485 0.641570
vt 1.484267 0.551120
vt -0.209443 0.286610
vt 0.166367 0.071552
vt 0.598816 0.026247
vt -0.507044 0.408545
vt 1.126363 0.106515
vn 0.0000 0.0000 1.0000
vn -0.5952 0.8035 0.0107
vn -0.0303 -0.9995 -0.0065
vn 0.9196 -0.3912 -0.0349
vn -0.0303 -0.9994 -0.0192
vn -0.5952 0.8035 0.0118
vn 0.6717 0.7385 -0.0581
vn -0.9641 -0.2638 0.0313
vn 0.9179 -0.3905 -0.0699
vn -0.0000 0.0000 -1.0000
vn 0.6726 0.7395 -0.0280
vn -0.9643 -0.2638 0.0216
vn 0.2648 -0.8441 0.4662
vn -0.0662 0.6667 0.7424
vn 0.2299 -0.8477 0.4781
vn -0.5252 0.8392 0.1412
vn 0.1316 -0.4220 0.8970
vn -0.7070 -0.6602 0.2535
vn 0.2826 0.5983 0.7498
vn -0.6080 -0.6637 0.4356
vn 0.5721 0.7426 0.3481
vn -0.3908 -0.4252 0.8164
vn -0.7695 0.2571 0.5846
vn 0.6428 -0.1582 0.7495
vn -0.7301 0.4069 0.5490
vn 0.9668 -0.2174 0.1341
vn -0.4418 0.2161 0.8707
vn -0.0083 0.9162 0.4007
vn 0.1664 -0.5765 0.8000
vn -0.0395 0.9044 0.4248
vn 0.0957 -0.8938 0.4381
vn 0.0925 0.7140 0.6940
vn -0.7106 0.6222 0.3286
vn -0.2666 -0.0065 0.9638
vn 0.5345 -0.4611 0.7083
vn 0.2577 -0.3252 0.9098
vn -0.5200 0.4519 0.7248
vn 0.3183 -0.3649 0.8750
vn 0.7467 -0.5307 0.4011
vn -0.6604 -0.6860 0.3054
vn -0.1975 0.2103 0.9575
vn 0.5638 0.4226 0.7096
vn 0.2566 0.2109 0.9432
vn -0.6329 -0.4207 0.6500
vn 0.2879 0.3690 0.8837
vn 0.7522 0.4848 0.4463
vn -0.8185 -0.0433 0.5729
vn -0.8143 0.0517 0.5782
vn -0.5350 -0.5146 0.6701
vn -0.6613 -0.4345 0.6115
vn -0.8362 -0.3583 0.4153
vn -0.9217 -0.2555 0.2919
vn -0.7457 0.3210 0.5839
vn -0.7707 0.4676 0.4329
vn -0.8495 0.1372 0.5094
vn -0.6543 0.2578 0.7109
vn -0.4624 0.5701 0.6790
vn -0.7309 0.5963 0.3319
vn -0.8497 -0.4801 0.2178
vn -0.7692 0.0709 0.6350
vn 0.2845 0.1667 0.9441
vn 0.6952 -0.4341 0.5730
vn 0.9354 -0.3336 0.1176
vn -0.2768 0.3942 0.8763
vn 0.5228 -0.2296 0.8210
vn 0.8404 -0.5014 0.2058
vn 0.4828 -0.1596 0.8611
vn -0.6380 0.6172 0.4604
vn -0.1908 -0.4397 0.8776
vn -0.1393 -0.8361 0.5307
vn 0.1735 -0.9685 0.1785
vn -0.3569 0.3228 0.8766
vn 0.0502 -0.7244 0.6875
vn 0.2285 -0.9544 0.1923
vn -0.3403 -0.5586 0.7564
vn -0.4734 0.7490 0.4636
vn 0.0408 0.0935 0.9948
vn 0.2756 0.7989 0.5346
vn 0.7156 0.6727 0.1881
vn 0.5586 0.5844 0.5886
vn -0.5518 -0.4661 0.6916
vn 0.5130 0.3470 0.7851
vn 0.7589 0.5655 0.3229
vn 0.7959 0.5925 0.1246
vn -0.3624 0.1780 0.9149
vn -0.0163 0.8428 0.5380
vn -0.2911 0.9286 0.2303
vn -0.0494 0.7758 0.6290
vn -0.1648 -0.5622 0.8104
vn -0.5195 0.6547 0.5491
vn -0.2924 0.7589 0.5819
vn -0.3847 0.9137 0.1312
vn -0.3146 -0.9141 0.2560
vn -0.3845 -0.7941 0.4707
vn -0.3934 -0.8772 0.2752
vn -0.2489 -0.5777 0.7774
vn -0.9522 -0.0389 0.3029
vn -0.9638 0.0268 0.2651
vn -0.9569 -0.1151 0.2666
vn -0.6664 0.0821 0.7410
vn -0.8184 0.0220 0.5742
vn -0.2594 -0.9351 0.2416
usemtl leaf.113
s off
f 4/1/1 3/2/1 2/3/1
f 5/4/1 2/3/1 1/5/1
f 2/3/1 3/2/1 1/5/1
f 7/6/2 10/7/2 15/8/2 12/9/2
f 8/10/3 9/11/3 14/12/3 13/13/3
f 6/14/4 8/10/4 13/13/4 11/15/4
f 3/16/5 4/17/5 9/11/5 8/10/5
f 2/18/6 5/19/6 10/7/6 7/6/6
f 5/19/7 1/20/7 6/14/7 10/7/7
f 4/17/8 2/21/8 7/22/8 9/11/8
f 1/20/9 3/16/9 8/10/9 6/14/9
f 14/23/10 12/24/10 13/25/10
f 15/26/10 11/27/10 12/24/10
f 12/24/10 11/27/10 13/25/10
f 10/7/11 6/14/11 11/15/11 15/8/11
f 9/11/12 7/22/12 12/28/12 14/12/12
f 17/29/13 16/30/13 22/31/13 23/32/13
f 19/33/14 20/34/14 26/35/14 25/36/14
f 16/30/15 18/37/15 24/38/15 22/31/15
f 20/34/16 21/39/16 26/35/16
f 18/37/17 19/33/17 25/36/17 24/38/17
f 16/30/18 17/29/18 28/40/18 27/41/18
f 20/34/19 19/33/19 30/42/19 31/43/19
f 18/37/20 16/30/20 27/41/20 29/44/20
f 21/39/21 20/34/21 31/43/21
f 19/33/22 18/37/22 29/44/22 30/42/22
f 33/45/23 32/46/23 38/47/23 39/48/23
f 35/49/24 36/50/24 42/51/24 41/52/24
f 32/46/25 34/53/25 40/54/25 38/47/25
f 36/50/26 37/55/26 42/51/26
f 34/53/27 35/49/27 41/52/27 40/54/27
f 32/46/28 33/45/28 44/56/28 43/57/28
f 36/50/29 35/49/29 46/58/29 47/59/29
f 34/53/30 32/46/30 43/57/30 45/60/30
f 37/55/31 36/50/31 47/59/31
f 35/49/32 34/53/32 45/60/32 46/58/32
f 55/61/33 54/62/33 62/63/33
f 53/64/34 52/65/34 60/66/34 61/67/34
f 51/68/35 48/69/35 56/70/35 59/71/35
f 52/65/36 50/72/36 58/73/36 60/66/36
f 54/62/37 53/64/37 61/67/37 62/63/37
f 50/72/38 51/68/38 59/71/38 58/73/38
f 48/69/39 49/74/39 57/75/39 56/70/39
f 54/62/40 55/61/40 69/76/40
f 52/65/41 53/64/41 68/77/41 67/78/41
f 48/69/42 51/68/42 66/79/42 63/80/42
f 50/72/43 52/65/43 67/78/43 65/81/43
f 53/64/44 54/62/44 69/76/44 68/77/44
f 51/68/45 50/72/45 65/81/45 66/79/45
f 49/74/46 48/69/46 63/80/46 64/82/46
f 71/83/47 73/84/47 81/85/47 79/86/47
f 72/87/48 74/88/48 82/89/48 80/90/48
f 75/91/49 76/92/49 84/93/49 83/94/49
f 73/84/50 72/87/50 80/90/50 81/85/50
f 70/95/51 71/83/51 79/86/51 78/96/51
f 76/92/52 77/97/52 84/93/52
f 74/88/53 75/91/53 83/94/53 82/89/53
f 73/84/54 71/83/54 86/98/54 88/99/54
f 74/88/55 72/87/55 87/100/55 89/101/55
f 76/92/56 75/91/56 90/102/56 91/103/56
f 72/87/57 73/84/57 88/99/57 87/100/57
f 71/83/58 70/95/58 85/104/58 86/98/58
f 77/97/59 76/92/59 91/103/59
f 75/91/60 74/88/60 89/101/60 90/102/60
f 98/105/61 107/106/61 106/107/61 97/108/61
f 94/109/62 103/110/62 104/111/62 95/112/62
f 92/113/63 101/114/63 102/115/63 93/116/63
f 99/117/64 108/118/64 107/106/64 98/105/64
f 97/108/65 106/107/65 105/119/65 96/120/65
f 95/112/66 104/111/66 101/114/66 92/113/66
f 96/120/67 105/119/67 103/110/67 94/109/67
f 100/121/68 108/118/68 99/117/68
f 97/108/69 114/122/69 115/123/69 98/105/69
f 95/112/70 112/124/70 111/125/70 94/109/70
f 93/116/71 110/126/71 109/127/71 92/113/71
f 98/105/72 115/123/72 116/128/72 99/117/72
f 96/120/73 113/129/73 114/122/73 97/108/73
f 92/113/74 109/127/74 112/124/74 95/112/74
f 94/109/75 111/125/75 113/129/75 96/120/75
f 99/117/76 116/130/76 100/121/76
f 124/131/77 123/132/77 132/133/77 133/134/77
f 122/135/78 121/136/78 130/137/78 131/138/78
f 120/139/79 117/140/79 126/141/79 129/142/79
f 121/136/80 119/143/80 128/144/80 130/137/80
f 125/145/81 124/131/81 133/134/81
f 123/132/82 122/135/82 131/138/82 132/133/82
f 119/143/83 120/139/83 129/142/83 128/144/83
f 117/140/84 118/146/84 127/147/84 126/141/84
f 123/132/85 124/131/85 141/148/85 140/149/85
f 121/136/86 122/135/86 139/150/86 138/151/86
f 117/140/87 120/139/87 137/152/87 134/153/87
f 119/143/88 121/136/88 138/151/88 136/154/88
f 124/131/89 125/145/89 141/148/89
f 122/135/90 123/132/90 140/149/90 139/150/90
f 120/139/91 119/143/91 136/154/91 137/152/91
f 118/146/92 117/140/92 134/153/92 135/155/92
f 145/156/93 144/157/93 149/158/93 150/159/93
f 156/160/94 142/161/94 147/162/94 151/163/94
f 143/164/95 145/156/95 150/159/95 148/165/95
f 142/161/96 146/166/96 147/162/96
f 144/157/97 145/156/97 155/167/97 154/168/97
f 156/160/98 144/157/98 154/168/98 157/169/98
f 145/156/99 143/164/99 153/170/99 155/167/99
f 146/166/100 142/161/100 152/171/100
f 142/161/101 156/160/101 157/169/101 152/171/101
f 144/157/102 156/160/102 151/163/102 149/158/102
