# Blender v3.0.0 OBJ File: 'market_gardening_v2.blend'
# www.blender.org
mtllib maize_big_2.mtl
o maize_big_unit.004_Plane.010
v -0.007651 -0.003237 -0.004415
v 0.006167 -0.003519 -0.004415
v -0.004273 0.004703 -0.004415
v 0.003986 0.004452 -0.004415
v -0.001278 -0.009033 -0.004415
v -0.002299 -0.002781 0.110588
v 0.008219 -0.002996 0.110588
v 0.000272 0.003263 0.110588
v 0.006559 0.003072 0.110588
v 0.002552 -0.007193 0.110588
v 0.000337 -0.002619 0.218546
v 0.009684 -0.002810 0.218546
v 0.002622 0.002752 0.218546
v 0.008209 0.002582 0.218546
v 0.004648 -0.006540 0.218546
v 0.000887 -0.011096 0.250808
v 0.002289 -0.004809 0.208218
v -0.003552 -0.058533 0.334166
v -0.000135 -0.020844 0.293808
v -0.000852 -0.099833 0.380845
v 0.017574 -0.156758 0.390508
v 0.034001 -0.214919 0.383297
v 0.048332 -0.259445 0.355699
v 0.057713 -0.271893 0.313357
v -0.006404 -0.001880 0.249833
v -0.000754 -0.002123 0.218617
v -0.014520 -0.052928 0.353312
v -0.013101 -0.008856 0.296012
v -0.017766 -0.112060 0.372021
v -0.004063 -0.161245 0.405336
v 0.016351 -0.220090 0.388222
v 0.036500 -0.257320 0.353497
v 0.012741 -0.007046 0.254445
v 0.007465 -0.002956 0.213406
v 0.027096 -0.067329 0.356748
v 0.021728 -0.018139 0.305552
v 0.025570 -0.108848 0.375915
v 0.032350 -0.153445 0.402546
v 0.051383 -0.213789 0.393803
v 0.062043 -0.257976 0.351880
v -0.001121 0.014383 0.043180
v 0.001741 0.002746 0.020434
v -0.000296 0.026613 0.064749
v -0.001213 0.041424 0.071593
v -0.000215 0.049931 0.065201
v 0.002333 0.053517 0.053362
v -0.004925 0.014439 0.045393
v -0.001589 0.001390 0.019918
v -0.004681 0.025508 0.064615
v -0.004608 0.041496 0.072383
v -0.003652 0.047687 0.065750
v 0.002306 0.012001 0.046116
v 0.004835 -0.000545 0.020914
v 0.004324 0.023735 0.065031
v 0.002161 0.039493 0.072633
v 0.003530 0.046956 0.065391
v 0.019030 -0.014063 0.094173
v 0.004053 -0.003584 0.070183
v 0.029400 -0.023612 0.116228
v 0.041211 -0.033367 0.123700
v 0.052181 -0.048487 0.120683
v 0.052620 -0.055809 0.105649
v 0.022605 -0.009447 0.096385
v 0.005065 -0.000135 0.069668
v 0.033385 -0.018540 0.115405
v 0.045769 -0.027497 0.124793
v 0.055353 -0.045888 0.116463
v 0.013210 -0.017102 0.097357
v -0.000449 -0.003956 0.070663
v 0.022945 -0.026105 0.116862
v 0.034592 -0.036144 0.126243
v 0.045271 -0.050092 0.118920
v -0.013613 -0.000411 0.127196
v -0.002227 -0.001355 0.105467
v -0.054078 -0.004685 0.166560
v -0.032406 -0.000411 0.139807
v -0.082349 -0.004938 0.170446
v -0.109980 -0.006518 0.169280
v -0.129948 -0.006518 0.155369
v -0.139931 -0.006518 0.133780
v -0.008080 0.005296 0.125164
v 0.000936 0.002415 0.103847
v -0.053531 0.006457 0.167952
v -0.031298 0.007792 0.145881
v -0.075390 0.003402 0.173893
v -0.100571 0.003047 0.170482
v -0.125222 -0.000814 0.154788
v -0.010806 -0.008044 0.127191
v 0.002565 -0.006059 0.106064
v -0.048205 -0.015843 0.165291
v -0.032529 -0.009615 0.147705
v -0.076477 -0.016096 0.173510
v -0.106457 -0.015327 0.172540
v -0.127635 -0.011696 0.148737
v 0.002937 0.005794 0.234950
v 0.001665 0.004206 0.210485
v -0.001486 0.026472 0.287467
v 0.002667 0.017803 0.254132
v -0.002673 0.050665 0.302558
v -0.005338 0.076265 0.312798
v -0.006581 0.100140 0.308251
v -0.007714 0.118033 0.292621
v 0.008775 0.001853 0.230743
v 0.005494 0.002165 0.207653
v 0.009710 0.025951 0.288331
v 0.011113 0.014720 0.259088
v 0.006040 0.043322 0.302727
v 0.004613 0.067660 0.309897
v -0.000727 0.096344 0.305698
v -0.004579 0.002863 0.233926
v -0.002830 -0.000638 0.209151
v -0.012452 0.021087 0.284096
v -0.006254 0.014251 0.261542
v -0.013487 0.043516 0.303142
v -0.013888 0.071294 0.314481
v -0.011897 0.100476 0.301339
v 0.000099 -0.000274 0.127396
v 0.035975 0.005153 0.160728
v 0.124802 0.022737 0.209353
v 0.070055 0.017107 0.185818
v 0.199571 0.017205 0.230383
v 0.241423 0.033180 0.212726
v 0.268699 0.054507 0.195178
v 0.276647 0.070419 0.180382
v 0.003565 0.002010 0.136883
v 0.034831 0.009495 0.164543
v 0.134987 0.032693 0.228789
v 0.068233 0.025039 0.191083
v 0.186059 0.031563 0.228946
v 0.243100 0.040397 0.221733
v 0.269286 0.057600 0.198663
v 0.007321 -0.006521 0.136554
v 0.040606 -0.003947 0.161262
v 0.134862 0.012445 0.209677
v 0.075268 0.005800 0.188247
v 0.196211 0.006376 0.219484
v 0.251001 0.024483 0.209169
v 0.268194 0.054425 0.187051
v 0.002300 -0.002002 0.126782
v -0.009510 -0.028921 0.166322
v -0.053171 -0.103411 0.236058
v -0.022210 -0.067238 0.206054
v -0.108720 -0.153931 0.278587
v -0.146766 -0.189420 0.248516
v -0.166492 -0.212344 0.213455
v -0.169156 -0.223821 0.193544
v 0.004489 -0.006398 0.135898
v -0.004933 -0.032031 0.168345
v -0.049126 -0.122866 0.265667
v -0.014715 -0.072975 0.208261
v -0.090838 -0.165015 0.268957
v -0.140148 -0.200971 0.253617
v -0.164646 -0.216233 0.215333
v -0.002881 -0.001564 0.138948
v -0.017507 -0.024174 0.170569
v -0.068289 -0.092549 0.247314
v -0.031047 -0.061128 0.212800
v -0.120293 -0.138036 0.259147
v -0.159878 -0.186641 0.249144
v -0.168096 -0.209231 0.206104
v 0.013351 0.015685 0.189122
v 0.003993 0.002417 0.150117
v 0.049483 0.044067 0.267071
v 0.020720 0.028149 0.235163
v 0.082742 0.068784 0.307763
v 0.117165 0.114166 0.324786
v 0.146448 0.155272 0.319362
v 0.171725 0.195459 0.296583
v 0.195654 0.213786 0.251946
v 0.000947 0.022246 0.189493
v 0.002063 0.002411 0.156913
v 0.032732 0.060026 0.273590
v 0.007761 0.035529 0.235147
v 0.067806 0.088624 0.312769
v 0.103384 0.127971 0.332756
v 0.130928 0.167616 0.323958
v 0.163954 0.203360 0.290548
v 0.017945 0.000926 0.193093
v 0.008838 -0.003948 0.155618
v 0.053499 0.026629 0.287160
v 0.026596 0.014139 0.238727
v 0.092508 0.052209 0.316467
v 0.134914 0.100974 0.335643
v 0.162021 0.140545 0.329585
v 0.185215 0.184840 0.295625
v -0.006994 -0.002792 0.233403
v 0.007488 -0.002107 0.193367
v -0.056443 -0.020511 0.307077
v -0.022030 -0.010128 0.278674
v -0.098225 -0.053886 0.337098
v -0.138824 -0.095449 0.348855
v -0.169098 -0.145280 0.369638
v -0.180590 -0.200159 0.358558
v -0.176845 -0.234853 0.317532
v 0.006351 -0.010490 0.236492
v 0.011751 -0.002307 0.200314
v -0.042384 -0.037078 0.317358
v -0.009959 -0.018504 0.281232
v -0.089257 -0.078146 0.333993
v -0.121860 -0.109086 0.361378
v -0.150480 -0.151706 0.374779
v -0.169232 -0.205653 0.358679
v -0.010693 0.012605 0.235392
v 0.004890 0.004693 0.197615
v -0.061627 -0.000953 0.324807
v -0.027003 0.004591 0.280132
v -0.111222 -0.038074 0.315583
v -0.161824 -0.083147 0.363582
v -0.189107 -0.136629 0.373279
v -0.194480 -0.195777 0.349418
v 0.013642 0.021254 0.167128
v 0.009496 0.002226 0.121793
v 0.017456 0.103107 0.249046
v 0.017803 0.057714 0.205239
v 0.014408 0.146918 0.309552
v 0.026529 0.223230 0.330898
v 0.034960 0.275892 0.325719
v 0.037989 0.312661 0.325210
v 0.039970 0.341235 0.274131
v 0.018918 0.010722 0.167660
v 0.012216 0.000636 0.132502
v 0.034896 0.090393 0.267828
v 0.028168 0.043853 0.209380
v 0.041275 0.151134 0.311801
v 0.051703 0.215864 0.345065
v 0.048208 0.273684 0.329805
v 0.046457 0.305901 0.321765
v 0.001320 0.020291 0.171294
v 0.004194 0.002286 0.127180
v -0.006175 0.114098 0.261155
v -0.003841 0.061330 0.217145
v -0.001957 0.168050 0.317196
v 0.007737 0.230500 0.345078
v 0.020000 0.283241 0.337051
v 0.030102 0.317409 0.322718
vt 0.139711 0.255112
vt 0.137858 0.259662
vt 0.138856 0.248264
vt 0.136210 0.248264
vt 0.135733 0.255778
vt 0.320841 0.172151
vt 0.320345 0.169923
vt 0.371135 0.163053
vt 0.371518 0.165117
vt 0.320000 0.165667
vt 0.320202 0.163583
vt 0.371039 0.156932
vt 0.370943 0.158765
vt 0.320010 0.167821
vt 0.370972 0.160843
vt 0.269489 0.172559
vt 0.269591 0.170453
vt 0.269802 0.179614
vt 0.269726 0.177276
vt 0.269663 0.175123
vt 0.269313 0.168179
vt 0.320356 0.161511
vt 0.069897 0.131127
vt 0.070886 0.123204
vt 0.072041 0.136391
vt 0.073948 0.123204
vt 0.074500 0.131897
vt 0.371090 0.155104
vt 1.176251 0.503203
vt 0.963223 0.498363
vt 0.972405 0.100195
vt 1.166537 0.238420
vt 0.711285 0.505143
vt 0.427829 0.506814
vt 0.436299 0.040706
vt 0.730369 0.042871
vt -0.106707 0.511725
vt -0.369233 0.519597
vt -0.381950 0.176081
vt -0.121543 0.104573
vt 0.166597 0.508517
vt 0.191576 0.054855
vt 1.480342 0.466174
vt -0.597832 0.561080
vt -0.555086 0.408286
vt 1.182400 0.822744
vt 0.968012 0.931388
vt 0.710943 0.972726
vt 0.437029 0.971856
vt -0.092018 0.923509
vt -0.357512 0.861293
vt 0.195106 0.973964
vt -0.523849 0.693850
vt 0.986045 0.510244
vt 0.676744 0.497855
vt 0.651779 0.347661
vt 0.996130 0.382280
vt 0.154805 0.492044
vt 0.029271 0.499200
vt 0.046956 0.380633
vt 0.156183 0.349725
vt 0.372313 0.500644
vt 0.383066 0.338374
vt -0.094515 0.534566
vt 1.000624 0.670475
vt 0.664057 0.654476
vt 0.173735 0.631166
vt 0.045709 0.644926
vt 0.395304 0.708158
vt 1.242221 0.520661
vt 0.783981 0.504725
vt 0.753911 0.394704
vt 1.256800 0.417159
vt 0.083809 0.511314
vt -0.180994 0.512704
vt -0.182263 0.412878
vt 0.101667 0.375177
vt 0.390038 0.511772
vt 0.399681 0.388865
vt -0.398743 0.522222
vt 1.267973 0.616532
vt 0.773865 0.632523
vt 0.127662 0.669749
vt -0.175619 0.668115
vt 0.421557 0.664765
vt -0.238634 0.497312
vt -0.074584 0.493416
vt -0.056233 0.607225
vt 0.095145 0.464570
vt 0.325118 0.496327
vt 0.374693 0.664877
vt 0.161669 0.641014
vt 0.729256 0.507067
vt 0.913137 0.518290
vt 0.952720 0.635584
vt 0.711474 0.684663
vt 0.513060 0.506817
vt 0.512185 0.707948
vt 1.095809 0.495232
vt 1.117316 0.567410
vt -0.100284 0.365655
vt 0.130145 0.312115
vt 0.371924 0.292052
vt 0.701073 0.292052
vt 0.928350 0.377140
vt 0.558193 0.312282
vt 1.108591 0.383685
vt -0.238634 0.497312
vt -0.074584 0.493416
vt -0.056233 0.607225
vt 0.095145 0.464570
vt 0.325118 0.496327
vt 0.374693 0.664877
vt 0.161669 0.641014
vt 0.729256 0.507067
vt 0.913137 0.518290
vt 0.952720 0.635584
vt 0.711474 0.684663
vt 0.513060 0.506817
vt 0.512185 0.707948
vt 1.095809 0.495232
vt 1.117316 0.567410
vt -0.100284 0.365655
vt 0.130145 0.312115
vt 0.371924 0.292052
vt 0.701073 0.292052
vt 0.928350 0.377140
vt 0.558193 0.312282
vt 1.108591 0.383685
vt -0.174976 0.517806
vt 0.114492 0.512516
vt 0.126518 0.807486
vt -0.160531 0.733520
vt 0.394226 0.489763
vt 0.712621 0.509751
vt 0.693479 0.884475
vt 0.445290 0.916210
vt 0.991398 0.522572
vt 1.249502 0.523368
vt 1.238419 0.704627
vt 0.994570 0.844249
vt -0.497309 0.555651
vt -0.441435 0.705974
vt 1.407873 0.493034
vt -0.152006 0.285084
vt 0.139433 0.212778
vt 0.401703 0.123935
vt 0.689562 0.106463
vt 0.992296 0.206233
vt 1.293530 0.308980
vt -0.420751 0.301475
vt -0.174976 0.517806
vt 0.114492 0.512516
vt 0.126518 0.807486
vt -0.160531 0.733520
vt 0.394226 0.489763
vt 0.712621 0.509751
vt 0.693479 0.884475
vt 0.445290 0.916210
vt 0.991398 0.522572
vt 1.249502 0.523368
vt 1.238419 0.704627
vt 0.994570 0.844249
vt -0.497309 0.555651
vt -0.441435 0.705974
vt 1.407873 0.493034
vt -0.152006 0.285084
vt 0.139433 0.212778
vt 0.401703 0.123935
vt 0.689562 0.106463
vt 0.992296 0.206233
vt 1.293530 0.308980
vt -0.420751 0.301475
vt 0.983864 0.497915
vt 0.947223 0.087899
vt 0.721647 0.050095
vt 0.707747 0.506829
vt 0.149815 0.505457
vt 0.169773 0.036231
vt -0.101459 0.145440
vt -0.094246 0.518216
vt -0.351954 0.508817
vt -0.366444 0.220669
vt -0.604025 0.297163
vt -0.621575 0.505402
vt 1.286214 0.487180
vt 1.284686 0.227080
vt 0.474920 0.020147
vt 0.441461 0.505355
vt 1.567296 0.485396
vt 0.700231 0.923940
vt 0.956670 0.871546
vt -0.090843 0.882391
vt 0.165420 0.943355
vt -0.626582 0.766539
vt -0.333210 0.788301
vt 1.270731 0.812948
vt 0.445927 0.939260
vt 1.258132 0.706555
vt 0.983864 0.497915
vt 0.947223 0.087899
vt 0.721647 0.050095
vt 0.707747 0.506829
vt 0.149815 0.505457
vt 0.169773 0.036231
vt -0.101459 0.145440
vt -0.094246 0.518216
vt -0.351954 0.508817
vt -0.366444 0.220669
vt -0.604025 0.297163
vt -0.621575 0.505402
vt 1.286214 0.487180
vt 1.284686 0.227080
vt 0.474920 0.020147
vt 0.441461 0.505355
vt 1.567296 0.485396
vt 0.700231 0.923940
vt 0.956670 0.871546
vt -0.090843 0.882391
vt 0.165420 0.943355
vt -0.626582 0.766539
vt -0.333210 0.788301
vt 1.270731 0.812948
vt 0.445927 0.939260
vt 1.258132 0.706555
vt 1.176251 0.503203
vt 0.963223 0.498363
vt 0.972405 0.100195
vt 1.166537 0.238420
vt 0.711285 0.505143
vt 0.427829 0.506814
vt 0.436299 0.040706
vt 0.730369 0.042871
vt -0.106707 0.511725
vt -0.369233 0.519597
vt -0.381950 0.176081
vt -0.121543 0.104573
vt 0.166597 0.508517
vt 0.191576 0.054855
vt 1.480342 0.466174
vt -0.597832 0.561080
vt -0.555086 0.408286
vt 1.182400 0.822744
vt 0.968012 0.931388
vt 0.710943 0.972726
vt 0.437029 0.971856
vt -0.092018 0.923509
vt -0.357512 0.861293
vt 0.195106 0.973964
vt -0.523849 0.693850
vn 0.0000 0.0000 1.0000
vn -0.5952 0.8035 0.0067
vn -0.0303 -0.9995 -0.0041
vn 0.9200 -0.3914 -0.0219
vn -0.0303 -0.9995 -0.0113
vn -0.5952 0.8035 0.0070
vn 0.6725 0.7393 -0.0342
vn -0.9644 -0.2638 0.0184
vn 0.9194 -0.3911 -0.0412
vn 0.0000 0.0000 -1.0000
vn 0.6728 0.7397 -0.0175
vn -0.9645 -0.2639 0.0135
vn 0.1336 -0.5646 0.8145
vn -0.0163 0.3711 0.9284
vn 0.7156 0.6727 0.1881
vn 0.1782 0.5362 0.8251
vn -0.2135 -0.9491 0.2317
vn 0.4568 -0.0409 0.8886
vn 0.7530 0.4857 0.4439
vn 0.7959 0.5925 0.1246
vn -0.1120 -0.6323 0.7666
vn -0.1203 0.3076 0.9439
vn -0.2911 0.9286 0.2303
vn -0.0481 0.6212 0.7822
vn 0.1874 -0.9304 0.3151
vn -0.5283 -0.2666 0.8061
vn -0.3462 0.6768 0.6497
vn -0.3847 0.9137 0.1312
vn 0.2648 -0.8441 0.4662
vn -0.0662 0.6667 0.7424
vn 0.2299 -0.8477 0.4781
vn -0.5252 0.8392 0.1412
vn 0.1316 -0.4220 0.8970
vn -0.7070 -0.6602 0.2535
vn 0.2826 0.5983 0.7498
vn -0.6080 -0.6637 0.4356
vn 0.5721 0.7426 0.3481
vn -0.3908 -0.4252 0.8164
vn -0.7459 0.2991 0.5951
vn 0.4203 -0.0490 0.9060
vn -0.6891 0.4571 0.5623
vn 0.8031 -0.5261 0.2797
vn -0.3909 0.2836 0.8757
vn -0.1199 0.8722 0.4743
vn 0.1338 -0.2422 0.9610
vn -0.2284 0.8431 0.4869
vn 0.0957 -0.8938 0.4381
vn -0.0536 0.6098 0.7908
vn -0.7106 0.6222 0.3286
vn -0.0783 -0.1829 0.9800
vn 0.5345 -0.4611 0.7083
vn 0.2025 -0.3088 0.9293
vn -0.5200 0.4519 0.7248
vn 0.7261 -0.3007 0.6184
vn 0.7467 -0.5307 0.4011
vn -0.6604 -0.6860 0.3054
vn -0.0395 0.2848 0.9578
vn 0.5638 0.4226 0.7096
vn 0.2042 0.1848 0.9613
vn -0.6329 -0.4207 0.6500
vn 0.6545 0.3947 0.6448
vn 0.7522 0.4848 0.4463
vn 0.6060 0.5448 0.5797
vn -0.1514 -0.3364 0.9295
vn -0.4154 -0.7983 0.4360
vn -0.2682 -0.5781 0.7706
vn 0.4570 0.2014 0.8664
vn -0.2512 -0.9286 0.2730
vn -0.4877 -0.8702 0.0700
vn -0.6994 0.4445 0.5596
vn 0.3164 -0.3399 0.8857
vn 0.4682 -0.7824 0.4106
vn 0.2259 -0.5685 0.7911
vn -0.4214 0.2922 0.8585
vn 0.4415 -0.8402 0.3149
vn 0.5283 -0.8440 0.0923
vn -0.3073 -0.6128 0.7280
vn -0.1635 -0.6013 0.7821
vn 0.7110 -0.6002 0.3665
vn -0.2310 -0.7492 0.6208
vn -0.2613 -0.8450 0.4666
vn 0.9317 -0.3349 0.1403
vn 0.2815 -0.1765 0.9432
vn -0.5650 -0.1549 0.8104
vn -0.2320 -0.4934 0.8383
vn 0.7364 -0.1242 0.6651
vn -0.3508 -0.1298 0.9274
vn -0.6420 -0.0117 0.7666
vn 0.8744 -0.4827 -0.0494
vn 0.3932 -0.4629 0.7944
vn 0.2295 0.6567 0.7183
vn -0.0776 0.5062 0.8589
vn -0.7989 -0.1783 0.5745
vn -0.1308 0.7536 0.6442
vn -0.0507 0.8137 0.5791
vn -0.9112 -0.2923 0.2904
vn -0.1725 -0.3694 0.9131
vn 0.6711 0.4264 0.6065
vn 0.1123 0.3914 0.9134
vn -0.5157 -0.6471 0.5616
vn 0.6374 0.0876 0.7656
vn 0.7837 0.3341 0.5237
vn -0.9804 -0.0828 0.1789
vn -0.5480 0.1108 0.8291
vn 0.3378 -0.0725 0.9384
vn -0.3702 -0.6548 0.6589
vn -0.1887 -0.8829 0.4300
vn 0.3007 0.4072 0.8624
vn -0.0281 -0.3805 0.9243
vn -0.4554 -0.8363 0.3053
vn -0.3899 -0.5763 0.7182
vn 0.3781 0.7674 0.5178
vn -0.2907 0.3309 0.8978
vn -0.8362 0.1365 0.5311
vn -0.9158 -0.2803 0.2876
vn 0.1528 0.4891 0.8587
vn -0.5115 0.0888 0.8547
vn -0.9308 -0.2759 0.2399
vn -0.7533 0.2196 0.6200
vn 0.5401 0.6364 0.5508
vn -0.1858 0.4427 0.8772
vn 0.3322 0.6829 0.6506
vn 0.3100 0.9317 0.1893
vn -0.2366 -0.1730 0.9561
vn 0.1595 0.3395 0.9270
vn 0.4605 0.8345 0.3027
vn 0.2377 0.2966 0.9249
vn -0.3587 -0.7287 0.5834
vn 0.4092 0.0409 0.9115
vn 0.7348 -0.1523 0.6610
vn 0.9249 0.1663 0.3419
vn -0.2480 -0.2501 0.9359
vn 0.1702 0.4318 0.8858
vn 0.9087 0.2211 0.3541
vn 0.1020 0.1576 0.9822
vn -0.5459 -0.6637 0.5114
vn 0.0213 0.1226 0.9922
vn -0.3034 -0.3015 0.9039
vn -0.7761 -0.4050 0.4834
vn -0.4279 -0.6320 0.6461
vn 0.6664 0.6394 0.3835
vn -0.3838 0.1845 0.9048
vn -0.7829 -0.4376 0.4423
vn -0.8986 -0.3598 0.2512
vn 0.4102 0.1134 0.9049
vn 0.2653 -0.3591 0.8948
vn 0.2557 -0.7089 0.6574
vn -0.2837 -0.7333 0.6179
vn 0.3421 0.8143 0.4688
vn 0.5982 -0.0171 0.8012
vn 0.1794 -0.6532 0.7356
vn 0.2454 -0.8969 0.3678
usemtl leaf.113
s off
f 4/1/1 3/2/1 2/3/1
f 5/4/1 2/3/1 1/5/1
f 2/3/1 3/2/1 1/5/1
f 7/6/2 10/7/2 15/8/2 12/9/2
f 8/10/3 9/11/3 14/12/3 13/13/3
f 6/14/4 8/10/4 13/13/4 11/15/4
f 3/16/5 4/17/5 9/11/5 8/10/5
f 2/18/6 5/19/6 10/7/6 7/6/6
f 5/19/7 1/20/7 6/14/7 10/7/7
f 4/17/8 2/21/8 7/22/8 9/11/8
f 1/20/9 3/16/9 8/10/9 6/14/9
f 14/23/10 12/24/10 13/25/10
f 15/26/10 11/27/10 12/24/10
f 12/24/10 11/27/10 13/25/10
f 10/7/11 6/14/11 11/15/11 15/8/11
f 9/11/12 7/22/12 12/28/12 14/12/12
f 23/29/13 22/30/13 31/31/13 32/32/13
f 21/33/14 20/34/14 29/35/14 30/36/14
f 19/37/15 16/38/15 25/39/15 28/40/15
f 20/34/16 18/41/16 27/42/16 29/35/16
f 24/43/17 23/29/17 32/32/17
f 22/30/18 21/33/18 30/36/18 31/31/18
f 18/41/19 19/37/19 28/40/19 27/42/19
f 16/38/20 17/44/20 26/45/20 25/39/20
f 22/30/21 23/29/21 40/46/21 39/47/21
f 20/34/22 21/33/22 38/48/22 37/49/22
f 16/38/23 19/37/23 36/50/23 33/51/23
f 18/41/24 20/34/24 37/49/24 35/52/24
f 23/29/25 24/43/25 40/46/25
f 21/33/26 22/30/26 39/47/26 38/48/26
f 19/37/27 18/41/27 35/52/27 36/50/27
f 17/44/28 16/38/28 33/51/28 34/53/28
f 42/54/29 41/55/29 47/56/29 48/57/29
f 44/58/30 45/59/30 51/60/30 50/61/30
f 41/55/31 43/62/31 49/63/31 47/56/31
f 45/59/32 46/64/32 51/60/32
f 43/62/33 44/58/33 50/61/33 49/63/33
f 41/55/34 42/54/34 53/65/34 52/66/34
f 45/59/35 44/58/35 55/67/35 56/68/35
f 43/62/36 41/55/36 52/66/36 54/69/36
f 46/64/37 45/59/37 56/68/37
f 44/58/38 43/62/38 54/69/38 55/67/38
f 58/70/39 57/71/39 63/72/39 64/73/39
f 60/74/40 61/75/40 67/76/40 66/77/40
f 57/71/41 59/78/41 65/79/41 63/72/41
f 61/75/42 62/80/42 67/76/42
f 59/78/43 60/74/43 66/77/43 65/79/43
f 57/71/44 58/70/44 69/81/44 68/82/44
f 61/75/45 60/74/45 71/83/45 72/84/45
f 59/78/46 57/71/46 68/82/46 70/85/46
f 62/80/47 61/75/47 72/84/47
f 60/74/48 59/78/48 70/85/48 71/83/48
f 80/86/49 79/87/49 87/88/49
f 78/89/50 77/90/50 85/91/50 86/92/50
f 76/93/51 73/94/51 81/95/51 84/96/51
f 77/90/52 75/97/52 83/98/52 85/91/52
f 79/87/53 78/89/53 86/92/53 87/88/53
f 75/97/54 76/93/54 84/96/54 83/98/54
f 73/94/55 74/99/55 82/100/55 81/95/55
f 79/87/56 80/86/56 94/101/56
f 77/90/57 78/89/57 93/102/57 92/103/57
f 73/94/58 76/93/58 91/104/58 88/105/58
f 75/97/59 77/90/59 92/103/59 90/106/59
f 78/89/60 79/87/60 94/101/60 93/102/60
f 76/93/61 75/97/61 90/106/61 91/104/61
f 74/99/62 73/94/62 88/105/62 89/107/62
f 102/108/63 101/109/63 109/110/63
f 100/111/64 99/112/64 107/113/64 108/114/64
f 98/115/65 95/116/65 103/117/65 106/118/65
f 99/112/66 97/119/66 105/120/66 107/113/66
f 101/109/67 100/111/67 108/114/67 109/110/67
f 97/119/68 98/115/68 106/118/68 105/120/68
f 95/116/69 96/121/69 104/122/69 103/117/69
f 101/109/70 102/108/70 116/123/70
f 99/112/71 100/111/71 115/124/71 114/125/71
f 95/116/72 98/115/72 113/126/72 110/127/72
f 97/119/73 99/112/73 114/125/73 112/128/73
f 100/111/74 101/109/74 116/123/74 115/124/74
f 98/115/75 97/119/75 112/128/75 113/126/75
f 96/121/76 95/116/76 110/127/76 111/129/76
f 118/130/77 120/131/77 128/132/77 126/133/77
f 119/134/78 121/135/78 129/136/78 127/137/78
f 122/138/79 123/139/79 131/140/79 130/141/79
f 120/131/80 119/134/80 127/137/80 128/132/80
f 117/142/81 118/130/81 126/133/81 125/143/81
f 123/139/82 124/144/82 131/140/82
f 121/135/83 122/138/83 130/141/83 129/136/83
f 120/131/84 118/130/84 133/145/84 135/146/84
f 121/135/85 119/134/85 134/147/85 136/148/85
f 123/139/86 122/138/86 137/149/86 138/150/86
f 119/134/87 120/131/87 135/146/87 134/147/87
f 118/130/88 117/142/88 132/151/88 133/145/88
f 124/144/89 123/139/89 138/150/89
f 122/138/90 121/135/90 136/148/90 137/149/90
f 140/152/91 142/153/91 150/154/91 148/155/91
f 141/156/92 143/157/92 151/158/92 149/159/92
f 144/160/93 145/161/93 153/162/93 152/163/93
f 142/153/94 141/156/94 149/159/94 150/154/94
f 139/164/95 140/152/95 148/155/95 147/165/95
f 145/161/96 146/166/96 153/162/96
f 143/157/97 144/160/97 152/163/97 151/158/97
f 142/153/98 140/152/98 155/167/98 157/168/98
f 143/157/99 141/156/99 156/169/99 158/170/99
f 145/161/100 144/160/100 159/171/100 160/172/100
f 141/156/101 142/153/101 157/168/101 156/169/101
f 140/152/102 139/164/102 154/173/102 155/167/102
f 146/166/103 145/161/103 160/172/103
f 144/160/104 143/157/104 158/170/104 159/171/104
f 167/174/105 176/175/105 175/176/105 166/177/105
f 163/178/106 172/179/106 173/180/106 164/181/106
f 161/182/107 170/183/107 171/184/107 162/185/107
f 168/186/108 177/187/108 176/175/108 167/174/108
f 166/177/109 175/176/109 174/188/109 165/189/109
f 164/181/110 173/180/110 170/183/110 161/182/110
f 165/189/111 174/188/111 172/179/111 163/178/111
f 169/190/112 177/187/112 168/186/112
f 166/177/113 183/191/113 184/192/113 167/174/113
f 164/181/114 181/193/114 180/194/114 163/178/114
f 162/185/115 179/195/115 178/196/115 161/182/115
f 167/174/116 184/192/116 185/197/116 168/186/116
f 165/189/117 182/198/117 183/191/117 166/177/117
f 161/182/118 178/196/118 181/193/118 164/181/118
f 163/178/119 180/194/119 182/198/119 165/189/119
f 168/186/120 185/199/120 169/190/120
f 192/200/121 201/201/121 200/202/121 191/203/121
f 188/204/122 197/205/122 198/206/122 189/207/122
f 186/208/123 195/209/123 196/210/123 187/211/123
f 193/212/124 202/213/124 201/201/124 192/200/124
f 191/203/125 200/202/125 199/214/125 190/215/125
f 189/207/126 198/206/126 195/209/126 186/208/126
f 190/215/127 199/214/127 197/205/127 188/204/127
f 194/216/128 202/213/128 193/212/128
f 191/203/129 208/217/129 209/218/129 192/200/129
f 189/207/130 206/219/130 205/220/130 188/204/130
f 187/211/131 204/221/131 203/222/131 186/208/131
f 192/200/132 209/218/132 210/223/132 193/212/132
f 190/215/133 207/224/133 208/217/133 191/203/133
f 186/208/134 203/222/134 206/219/134 189/207/134
f 188/204/135 205/220/135 207/224/135 190/215/135
f 193/212/136 210/225/136 194/216/136
f 218/226/137 217/227/137 226/228/137 227/229/137
f 216/230/138 215/231/138 224/232/138 225/233/138
f 214/234/139 211/235/139 220/236/139 223/237/139
f 215/231/140 213/238/140 222/239/140 224/232/140
f 219/240/141 218/226/141 227/229/141
f 217/227/142 216/230/142 225/233/142 226/228/142
f 213/238/143 214/234/143 223/237/143 222/239/143
f 211/235/144 212/241/144 221/242/144 220/236/144
f 217/227/145 218/226/145 235/243/145 234/244/145
f 215/231/146 216/230/146 233/245/146 232/246/146
f 211/235/147 214/234/147 231/247/147 228/248/147
f 213/238/148 215/231/148 232/246/148 230/249/148
f 218/226/149 219/240/149 235/243/149
f 216/230/150 217/227/150 234/244/150 233/245/150
f 214/234/151 213/238/151 230/249/151 231/247/151
f 212/241/152 211/235/152 228/248/152 229/250/152
