# Blender 4.0.2
# www.blender.org
mtllib taraxacum_04.mtl
o taraxacum.003
o taraxacum.003
v 0.000558 -0.000055 -0.000797
v 0.066441 -0.046532 -0.001066
v 0.000767 0.000361 -0.000751
v 0.067158 -0.041824 0.002253
v 0.008784 -0.006119 0.004266
v 0.013409 -0.009295 0.007034
v 0.018574 -0.012578 0.009562
v 0.024018 -0.015849 0.011401
v 0.029399 -0.018980 0.012443
v 0.034936 -0.022202 0.013065
v 0.040986 -0.025970 0.013611
v 0.046180 -0.029567 0.013313
v 0.051337 -0.033609 0.011431
v 0.055485 -0.037272 0.008120
v 0.061851 -0.042933 0.002121
v 0.065313 -0.035441 0.006900
v 0.061219 -0.029394 0.012040
v 0.053167 -0.030606 0.012505
v 0.051483 -0.021185 0.017860
v 0.041975 -0.024216 0.014637
v 0.039645 -0.016430 0.017988
v 0.031666 -0.015867 0.012120
v 0.026743 -0.010055 0.013978
v 0.020321 -0.010306 0.009589
v 0.016240 -0.006220 0.008680
v 0.010315 -0.004479 0.004313
v 0.000224 -0.000369 -0.000721
v 0.062315 -0.048611 0.001909
v 0.056395 -0.047882 0.006196
v 0.050813 -0.045174 0.012213
v 0.049158 -0.036449 0.012244
v 0.040703 -0.037692 0.016557
v 0.039687 -0.027661 0.014518
v 0.030993 -0.028340 0.015799
v 0.027392 -0.022263 0.011769
v 0.021740 -0.021209 0.013603
v 0.017085 -0.015009 0.009440
v 0.011885 -0.013424 0.008639
v 0.008123 -0.007524 0.004308
vn 0.0996 -0.5737 0.8130
vn -0.3536 0.2585 0.8990
vn -0.5014 0.1583 0.8506
vn -0.3464 0.0029 0.9381
vn -0.4695 -0.0248 0.8826
vn -0.0922 -0.1954 0.9764
vn -0.4537 -0.1020 0.8853
vn -0.3125 -0.4321 0.8460
vn -0.1946 -0.3771 0.9055
vn 0.0342 -0.4596 0.8875
vn 0.1620 -0.5024 0.8493
vn 0.2052 -0.5722 0.7941
vn 0.5842 0.0174 0.8114
vn -0.3477 0.2629 0.9000
vn -0.3184 0.3837 0.8668
vn -0.1666 0.2897 0.9425
vn -0.2159 0.3480 0.9123
vn 0.1152 0.1173 0.9864
vn -0.1634 0.3082 0.9372
vn 0.1199 0.3515 0.9285
vn 0.2427 0.2310 0.9422
vn 0.4209 0.0414 0.9062
vn 0.5486 0.0316 0.8355
vn 0.6810 -0.0737 0.7285
vt 0.897525 0.642841
vt 0.955856 0.685588
vt 0.908565 0.706644
vt 0.825758 0.708276
vt 0.041710 0.261768
vt 0.158277 0.300420
vt 0.154958 0.323827
vt 0.038818 0.266164
vt 0.257397 0.336935
vt 0.249337 0.368677
vt 0.359575 0.371351
vt 0.344389 0.402864
vt 0.426984 0.401640
vt 0.388841 0.469509
vt 0.513398 0.435746
vt 0.488706 0.464613
vt 0.584465 0.462449
vt 0.519620 0.557609
vt 0.633412 0.488194
vt 0.620309 0.505325
vt 0.679556 0.511240
vt 0.605591 0.632308
vt 0.743649 0.546754
vt 0.718985 0.583780
vt 0.803101 0.583130
vt 0.743229 0.694772
vt 0.903167 0.565294
vt 0.945356 0.624918
vt 0.043691 0.256949
vt 0.166863 0.287098
vt 0.294151 0.307484
vt 0.375244 0.344542
vt 0.461561 0.340284
vt 0.538371 0.399921
vt 0.631008 0.378995
vt 0.643138 0.464575
vt 0.745409 0.410750
vt 0.757039 0.510379
vt 0.847070 0.494174
s 0
usemtl taraxacum_leaf
f 15/1/1 2/2/1 4/3/1 16/4/1
f 1/5/2 5/6/2 26/7/2 3/8/2
f 5/6/3 6/9/3 25/10/3 26/7/3
f 6/9/4 7/11/4 24/12/4 25/10/4
f 7/11/5 8/13/5 23/14/5 24/12/5
f 8/13/6 9/15/6 22/16/6 23/14/6
f 9/15/7 10/17/7 21/18/7 22/16/7
f 10/17/8 11/19/8 20/20/8 21/18/8
f 11/19/9 12/21/9 19/22/9 20/20/9
f 12/21/10 13/23/10 18/24/10 19/22/10
f 13/23/11 14/25/11 17/26/11 18/24/11
f 14/25/12 15/1/12 16/4/12 17/26/12
f 15/1/13 29/27/13 28/28/13 2/2/13
f 1/5/14 27/29/14 39/30/14 5/6/14
f 5/6/15 39/30/15 38/31/15 6/9/15
f 6/9/16 38/31/16 37/32/16 7/11/16
f 7/11/17 37/32/17 36/33/17 8/13/17
f 8/13/18 36/33/18 35/34/18 9/15/18
f 9/15/19 35/34/19 34/35/19 10/17/19
f 10/17/20 34/35/20 33/36/20 11/19/20
f 11/19/21 33/36/21 32/37/21 12/21/21
f 12/21/22 32/37/22 31/38/22 13/23/22
f 13/23/23 31/38/23 30/39/23 14/25/23
f 14/25/24 30/39/24 29/27/24 15/1/24
o taraxacum.003
v 0.000478 0.000392 -0.000661
v 0.058184 0.052025 0.007619
v 0.000147 0.000679 -0.000774
v 0.053226 0.054222 0.009041
v 0.006445 0.007664 0.005072
v 0.009615 0.011786 0.008149
v 0.013084 0.016346 0.010990
v 0.016810 0.021050 0.013177
v 0.020626 0.025586 0.014603
v 0.024682 0.030175 0.015663
v 0.029372 0.035117 0.016779
v 0.033942 0.039154 0.017159
v 0.039354 0.042793 0.016252
v 0.044592 0.045326 0.014027
v 0.052929 0.049047 0.009795
v 0.045761 0.054611 0.011376
v 0.037894 0.052930 0.014486
v 0.036834 0.045288 0.016081
v 0.026509 0.046569 0.018065
v 0.027766 0.036569 0.017048
v 0.019309 0.036572 0.017806
v 0.018519 0.028269 0.013088
v 0.011600 0.025204 0.013382
v 0.011493 0.018437 0.010115
v 0.007114 0.015324 0.008375
v 0.005356 0.009427 0.004438
v 0.000652 0.000031 -0.000458
v 0.058146 0.048283 0.011383
v 0.054791 0.043675 0.015607
v 0.049264 0.040083 0.020729
v 0.041100 0.040330 0.018114
v 0.038858 0.032972 0.023243
v 0.030290 0.033723 0.018271
v 0.028363 0.025735 0.020496
v 0.023235 0.022937 0.015244
v 0.020366 0.018221 0.017116
v 0.014907 0.014447 0.011806
v 0.012438 0.009806 0.011078
v 0.007515 0.006771 0.005626
vn 0.3102 0.1196 0.9431
vn -0.5970 -0.1250 0.7925
vn -0.5285 -0.2967 0.7954
vn -0.3720 -0.1650 0.9135
vn -0.3616 -0.2991 0.8831
vn -0.1357 0.0442 0.9898
vn -0.2874 -0.2997 0.9097
vn 0.0641 -0.2407 0.9685
vn 0.0261 -0.1052 0.9941
vn 0.1662 0.0941 0.9816
vn 0.2498 0.2011 0.9472
vn 0.3415 0.2180 0.9142
vn -0.1080 0.7098 0.6961
vn -0.5998 -0.1182 0.7914
vn -0.6934 -0.0705 0.7171
vn -0.5905 0.0691 0.8040
vn -0.6478 0.0287 0.7613
vn -0.3727 0.3114 0.8741
vn -0.6051 0.0751 0.7926
vn -0.5694 0.3551 0.7414
vn -0.4312 0.4501 0.7820
vn -0.2003 0.5748 0.7934
vn -0.1373 0.6830 0.7174
vn 0.0254 0.7689 0.6389
vt 0.897525 0.642841
vt 0.955856 0.685588
vt 0.908565 0.706644
vt 0.825758 0.708276
vt 0.041710 0.261768
vt 0.158277 0.300420
vt 0.154958 0.323827
vt 0.038818 0.266164
vt 0.257397 0.336935
vt 0.249337 0.368677
vt 0.359575 0.371351
vt 0.344389 0.402864
vt 0.426984 0.401640
vt 0.388841 0.469509
vt 0.513398 0.435746
vt 0.488706 0.464613
vt 0.584465 0.462449
vt 0.519620 0.557609
vt 0.633412 0.488194
vt 0.620309 0.505325
vt 0.679556 0.511240
vt 0.605591 0.632308
vt 0.743649 0.546754
vt 0.718985 0.583780
vt 0.803101 0.583130
vt 0.743229 0.694772
vt 0.903167 0.565294
vt 0.945356 0.624918
vt 0.043691 0.256949
vt 0.166863 0.287098
vt 0.294151 0.307484
vt 0.375244 0.344542
vt 0.461561 0.340284
vt 0.538371 0.399921
vt 0.631008 0.378995
vt 0.643138 0.464575
vt 0.745409 0.410750
vt 0.757039 0.510379
vt 0.847070 0.494174
s 0
usemtl taraxacum_leaf
f 54/40/25 41/41/25 43/42/25 55/43/25
f 40/44/26 44/45/26 65/46/26 42/47/26
f 44/45/27 45/48/27 64/49/27 65/46/27
f 45/48/28 46/50/28 63/51/28 64/49/28
f 46/50/29 47/52/29 62/53/29 63/51/29
f 47/52/30 48/54/30 61/55/30 62/53/30
f 48/54/31 49/56/31 60/57/31 61/55/31
f 49/56/32 50/58/32 59/59/32 60/57/32
f 50/58/33 51/60/33 58/61/33 59/59/33
f 51/60/34 52/62/34 57/63/34 58/61/34
f 52/62/35 53/64/35 56/65/35 57/63/35
f 53/64/36 54/40/36 55/43/36 56/65/36
f 54/40/37 68/66/37 67/67/37 41/41/37
f 40/44/38 66/68/38 78/69/38 44/45/38
f 44/45/39 78/69/39 77/70/39 45/48/39
f 45/48/40 77/70/40 76/71/40 46/50/40
f 46/50/41 76/71/41 75/72/41 47/52/41
f 47/52/42 75/72/42 74/73/42 48/54/42
f 48/54/43 74/73/43 73/74/43 49/56/43
f 49/56/44 73/74/44 72/75/44 50/58/44
f 50/58/45 72/75/45 71/76/45 51/60/45
f 51/60/46 71/76/46 70/77/46 52/62/46
f 52/62/47 70/77/47 69/78/47 53/64/47
f 53/64/48 69/78/48 68/66/48 54/40/48
o taraxacum.003
v -0.000521 0.000621 -0.000848
v -0.048401 0.061560 0.015173
v -0.000823 0.000279 -0.000791
v -0.049822 0.056929 0.018173
v -0.005554 0.007853 0.006057
v -0.008463 0.011710 0.009847
v -0.011882 0.015838 0.013522
v -0.015681 0.020113 0.016592
v -0.019597 0.024336 0.018875
v -0.023702 0.028738 0.020792
v -0.028142 0.033795 0.022776
v -0.031983 0.038570 0.023769
v -0.035936 0.043946 0.023267
v -0.039307 0.048876 0.021168
v -0.044625 0.056589 0.017070
v -0.049118 0.049892 0.021821
v -0.046155 0.042518 0.025520
v -0.038289 0.041481 0.024452
v -0.038468 0.031550 0.028602
v -0.029375 0.032286 0.023835
v -0.028839 0.023963 0.026048
v -0.022624 0.022053 0.018800
v -0.019390 0.015081 0.019203
v -0.014133 0.014163 0.013739
v -0.011665 0.009369 0.011775
v -0.007423 0.006712 0.006293
v -0.000110 0.000818 -0.000819
v -0.043492 0.062062 0.017350
v -0.037490 0.059299 0.020236
v -0.032062 0.054558 0.024711
v -0.032982 0.045938 0.023810
v -0.024077 0.044355 0.026353
v -0.026310 0.034929 0.023505
v -0.017862 0.033124 0.023055
v -0.016931 0.026969 0.018057
v -0.011689 0.024271 0.018621
v -0.009842 0.017741 0.013278
v -0.005617 0.014985 0.011369
v -0.004541 0.008991 0.006063
vn 0.2123 0.4739 0.8546
vn 0.4157 -0.4534 0.7885
vn 0.5752 -0.3912 0.7184
vn 0.4890 -0.2121 0.8461
vn 0.6032 -0.2117 0.7690
vn 0.3131 0.0407 0.9489
vn 0.6109 -0.1341 0.7802
vn 0.5657 0.2240 0.7936
vn 0.4493 0.1957 0.8717
vn 0.2543 0.3381 0.9061
vn 0.1395 0.4179 0.8977
vn 0.1092 0.5030 0.8574
vn -0.4139 0.0391 0.9095
vn 0.4090 -0.4561 0.7904
vn 0.3410 -0.5596 0.7554
vn 0.2382 -0.4385 0.8666
vn 0.2626 -0.5036 0.8231
vn 0.0297 -0.2037 0.9786
vn 0.2289 -0.4546 0.8608
vn -0.0520 -0.4190 0.9065
vn -0.1307 -0.2727 0.9532
vn -0.2504 -0.0393 0.9673
vn -0.3803 0.0130 0.9248
vn -0.4934 0.1624 0.8545
vt 0.897525 0.642841
vt 0.955856 0.685588
vt 0.908565 0.706644
vt 0.825758 0.708276
vt 0.041710 0.261768
vt 0.158277 0.300420
vt 0.154958 0.323827
vt 0.038818 0.266164
vt 0.257397 0.336935
vt 0.249337 0.368677
vt 0.359575 0.371351
vt 0.344389 0.402864
vt 0.426984 0.401640
vt 0.388841 0.469509
vt 0.513398 0.435746
vt 0.488706 0.464613
vt 0.584465 0.462449
vt 0.519620 0.557609
vt 0.633412 0.488194
vt 0.620309 0.505325
vt 0.679556 0.511240
vt 0.605591 0.632308
vt 0.743649 0.546754
vt 0.718985 0.583780
vt 0.803101 0.583130
vt 0.743229 0.694772
vt 0.903167 0.565294
vt 0.945356 0.624918
vt 0.043691 0.256949
vt 0.166863 0.287098
vt 0.294151 0.307484
vt 0.375244 0.344542
vt 0.461561 0.340284
vt 0.538371 0.399921
vt 0.631008 0.378995
vt 0.643138 0.464575
vt 0.745409 0.410750
vt 0.757039 0.510379
vt 0.847070 0.494174
s 0
usemtl taraxacum_leaf
f 93/79/49 80/80/49 82/81/49 94/82/49
f 79/83/50 83/84/50 104/85/50 81/86/50
f 83/84/51 84/87/51 103/88/51 104/85/51
f 84/87/52 85/89/52 102/90/52 103/88/52
f 85/89/53 86/91/53 101/92/53 102/90/53
f 86/91/54 87/93/54 100/94/54 101/92/54
f 87/93/55 88/95/55 99/96/55 100/94/55
f 88/95/56 89/97/56 98/98/56 99/96/56
f 89/97/57 90/99/57 97/100/57 98/98/57
f 90/99/58 91/101/58 96/102/58 97/100/58
f 91/101/59 92/103/59 95/104/59 96/102/59
f 92/103/60 93/79/60 94/82/60 95/104/60
f 93/79/61 107/105/61 106/106/61 80/80/61
f 79/83/62 105/107/62 117/108/62 83/84/62
f 83/84/63 117/108/63 116/109/63 84/87/63
f 84/87/64 116/109/64 115/110/64 85/89/64
f 85/89/65 115/110/65 114/111/65 86/91/65
f 86/91/66 114/111/66 113/112/66 87/93/66
f 87/93/67 113/112/67 112/113/67 88/95/67
f 88/95/68 112/113/68 111/114/68 89/97/68
f 89/97/69 111/114/69 110/115/69 90/99/69
f 90/99/70 110/115/70 109/116/70 91/101/70
f 91/101/71 109/116/71 108/117/71 92/103/71
f 92/103/72 108/117/72 107/105/72 93/79/72
o taraxacum.003
v -0.000586 -0.000457 -0.001087
v -0.094107 -0.028789 0.012582
v -0.000324 -0.000923 -0.000880
v -0.089813 -0.031431 0.017587
v -0.012248 -0.001793 0.006464
v -0.018579 -0.002738 0.010663
v -0.025420 -0.004201 0.014753
v -0.032488 -0.006204 0.018146
v -0.039414 -0.008562 0.020623
v -0.046566 -0.011165 0.022650
v -0.054631 -0.013891 0.024662
v -0.061952 -0.016282 0.025433
v -0.069770 -0.018954 0.024273
v -0.076560 -0.021527 0.021179
v -0.087066 -0.025813 0.015365
v -0.081943 -0.032356 0.023558
v -0.072748 -0.030777 0.029248
v -0.068082 -0.022318 0.026737
v -0.057299 -0.025238 0.034175
v -0.053566 -0.015624 0.026536
v -0.044032 -0.017598 0.031111
v -0.038009 -0.012960 0.021646
v -0.028619 -0.011751 0.023206
v -0.024447 -0.007392 0.015838
v -0.017514 -0.006849 0.014154
v -0.011740 -0.004334 0.007372
v -0.000649 0.000101 -0.001176
v -0.093006 -0.022350 0.014177
v -0.087770 -0.015701 0.017208
v -0.080737 -0.010065 0.022744
v -0.070945 -0.014634 0.023899
v -0.065813 -0.004257 0.025692
v -0.055307 -0.011150 0.024929
v -0.049608 -0.002149 0.023241
v -0.041228 -0.004679 0.018504
v -0.035997 0.000522 0.018855
v -0.026741 -0.001174 0.013619
v -0.021455 0.002194 0.011185
v -0.013150 -0.000183 0.006008
vn -0.4853 0.5163 0.7056
vn 0.4565 0.4097 0.7897
vn 0.4613 0.5627 0.6859
vn 0.2483 0.5632 0.7881
vn 0.2965 0.6538 0.6962
vn -0.0601 0.4975 0.8654
vn 0.2251 0.6869 0.6910
vn -0.1258 0.7566 0.6417
vn -0.1488 0.6556 0.7403
vn -0.3515 0.5245 0.7755
vn -0.4632 0.4403 0.7691
vn -0.5473 0.4298 0.7181
vn -0.2966 -0.1874 0.9364
vn 0.4566 0.4031 0.7931
vn 0.5351 0.3012 0.7893
vn 0.3728 0.2651 0.8892
vn 0.4476 0.2590 0.8559
vn 0.0691 0.1655 0.9838
vn 0.3856 0.2504 0.8881
vn 0.2523 0.0092 0.9676
vn 0.0832 -0.0099 0.9965
vn -0.1764 -0.0474 0.9832
vn -0.2630 -0.1610 0.9513
vn -0.4308 -0.2351 0.8713
vt 0.897525 0.642841
vt 0.955856 0.685588
vt 0.908565 0.706644
vt 0.825758 0.708276
vt 0.041710 0.261768
vt 0.158277 0.300420
vt 0.154958 0.323827
vt 0.038818 0.266164
vt 0.257397 0.336935
vt 0.249337 0.368677
vt 0.359575 0.371351
vt 0.344389 0.402864
vt 0.426984 0.401640
vt 0.388841 0.469509
vt 0.513398 0.435746
vt 0.488706 0.464613
vt 0.584465 0.462449
vt 0.519620 0.557609
vt 0.633412 0.488194
vt 0.620309 0.505325
vt 0.679556 0.511240
vt 0.605591 0.632308
vt 0.743649 0.546754
vt 0.718985 0.583780
vt 0.803101 0.583130
vt 0.743229 0.694772
vt 0.903167 0.565294
vt 0.945356 0.624918
vt 0.043691 0.256949
vt 0.166863 0.287098
vt 0.294151 0.307484
vt 0.375244 0.344542
vt 0.461561 0.340284
vt 0.538371 0.399921
vt 0.631008 0.378995
vt 0.643138 0.464575
vt 0.745409 0.410750
vt 0.757039 0.510379
vt 0.847070 0.494174
s 0
usemtl taraxacum_leaf
f 132/118/73 119/119/73 121/120/73 133/121/73
f 118/122/74 122/123/74 143/124/74 120/125/74
f 122/123/75 123/126/75 142/127/75 143/124/75
f 123/126/76 124/128/76 141/129/76 142/127/76
f 124/128/77 125/130/77 140/131/77 141/129/77
f 125/130/78 126/132/78 139/133/78 140/131/78
f 126/132/79 127/134/79 138/135/79 139/133/79
f 127/134/80 128/136/80 137/137/80 138/135/80
f 128/136/81 129/138/81 136/139/81 137/137/81
f 129/138/82 130/140/82 135/141/82 136/139/82
f 130/140/83 131/142/83 134/143/83 135/141/83
f 131/142/84 132/118/84 133/121/84 134/143/84
f 132/118/85 146/144/85 145/145/85 119/119/85
f 118/122/86 144/146/86 156/147/86 122/123/86
f 122/123/87 156/147/87 155/148/87 123/126/87
f 123/126/88 155/148/88 154/149/88 124/128/88
f 124/128/89 154/149/89 153/150/89 125/130/89
f 125/130/90 153/150/90 152/151/90 126/132/90
f 126/132/91 152/151/91 151/152/91 127/134/91
f 127/134/92 151/152/92 150/153/92 128/136/92
f 128/136/93 150/153/93 149/154/93 129/138/93
f 129/138/94 149/154/94 148/155/94 130/140/94
f 130/140/95 148/155/95 147/156/95 131/142/95
f 131/142/96 147/156/96 146/144/96 132/118/96
o taraxacum.003
v -0.000003 -0.000664 -0.001003
v 0.026789 -0.092971 0.001593
v 0.000488 -0.000431 -0.000874
v 0.030339 -0.089156 0.006149
v 0.002276 -0.012496 0.005306
v 0.003743 -0.018930 0.008786
v 0.005670 -0.025862 0.012040
v 0.007983 -0.032982 0.014517
v 0.010478 -0.039914 0.016062
v 0.013120 -0.047042 0.017121
v 0.015850 -0.055059 0.018091
v 0.018059 -0.062270 0.017977
v 0.020179 -0.069849 0.015937
v 0.021890 -0.076307 0.012127
v 0.024644 -0.086242 0.005194
v 0.032524 -0.081890 0.012144
v 0.032299 -0.073272 0.018396
v 0.023890 -0.068423 0.017786
v 0.028333 -0.058454 0.024991
v 0.017875 -0.054172 0.019631
v 0.020865 -0.045222 0.024199
v 0.014913 -0.038693 0.016330
v 0.014312 -0.029636 0.018578
v 0.008949 -0.025042 0.012558
v 0.008334 -0.018187 0.011445
v 0.004886 -0.012106 0.005746
v -0.000556 -0.000710 -0.000992
v 0.020940 -0.091880 0.004339
v 0.015270 -0.086853 0.008734
v 0.011070 -0.080253 0.015445
v 0.015941 -0.070888 0.016289
v 0.006476 -0.065816 0.020165
v 0.013253 -0.055682 0.018800
v 0.004502 -0.049869 0.019133
v 0.006328 -0.041474 0.014631
v 0.001565 -0.036313 0.016203
v 0.002530 -0.027020 0.011424
v -0.000972 -0.021667 0.010006
v 0.000627 -0.013315 0.005107
vn -0.3930 -0.5192 0.7589
vn -0.2441 0.4131 0.8773
vn -0.4133 0.4274 0.8040
vn -0.4015 0.2084 0.8918
vn -0.5060 0.2641 0.8211
vn -0.3322 -0.1055 0.9373
vn -0.5417 0.1938 0.8179
vn -0.6298 -0.1519 0.7617
vn -0.5132 -0.1830 0.8385
vn -0.3842 -0.3900 0.8369
vn -0.3060 -0.5027 0.8085
vn -0.3075 -0.5836 0.7516
vn 0.3466 -0.3590 0.8666
vn -0.2370 0.4129 0.8794
vn -0.1352 0.4895 0.8615
vn -0.0863 0.3205 0.9433
vn -0.0842 0.3971 0.9139
vn 0.0196 0.0096 0.9998
vn -0.0717 0.3330 0.9402
vn 0.1758 0.1904 0.9658
vn 0.1947 0.0195 0.9807
vn 0.2212 -0.2395 0.9454
vn 0.3243 -0.3260 0.8880
vn 0.3774 -0.4898 0.7859
vt 0.897525 0.642841
vt 0.955856 0.685588
vt 0.908565 0.706644
vt 0.825758 0.708276
vt 0.041710 0.261768
vt 0.158277 0.300420
vt 0.154958 0.323827
vt 0.038818 0.266164
vt 0.257397 0.336935
vt 0.249337 0.368677
vt 0.359575 0.371351
vt 0.344389 0.402864
vt 0.426984 0.401640
vt 0.388841 0.469509
vt 0.513398 0.435746
vt 0.488706 0.464613
vt 0.584465 0.462449
vt 0.519620 0.557609
vt 0.633412 0.488194
vt 0.620309 0.505325
vt 0.679556 0.511240
vt 0.605591 0.632308
vt 0.743649 0.546754
vt 0.718985 0.583780
vt 0.803101 0.583130
vt 0.743229 0.694772
vt 0.903167 0.565294
vt 0.945356 0.624918
vt 0.043691 0.256949
vt 0.166863 0.287098
vt 0.294151 0.307484
vt 0.375244 0.344542
vt 0.461561 0.340284
vt 0.538371 0.399921
vt 0.631008 0.378995
vt 0.643138 0.464575
vt 0.745409 0.410750
vt 0.757039 0.510379
vt 0.847070 0.494174
s 0
usemtl taraxacum_leaf
f 171/157/97 158/158/97 160/159/97 172/160/97
f 157/161/98 161/162/98 182/163/98 159/164/98
f 161/162/99 162/165/99 181/166/99 182/163/99
f 162/165/100 163/167/100 180/168/100 181/166/100
f 163/167/101 164/169/101 179/170/101 180/168/101
f 164/169/102 165/171/102 178/172/102 179/170/102
f 165/171/103 166/173/103 177/174/103 178/172/103
f 166/173/104 167/175/104 176/176/104 177/174/104
f 167/175/105 168/177/105 175/178/105 176/176/105
f 168/177/106 169/179/106 174/180/106 175/178/106
f 169/179/107 170/181/107 173/182/107 174/180/107
f 170/181/108 171/157/108 172/160/108 173/182/108
f 171/157/109 185/183/109 184/184/109 158/158/109
f 157/161/110 183/185/110 195/186/110 161/162/110
f 161/162/111 195/186/111 194/187/111 162/165/111
f 162/165/112 194/187/112 193/188/112 163/167/112
f 163/167/113 193/188/113 192/189/113 164/169/113
f 164/169/114 192/189/114 191/190/114 165/171/114
f 165/171/115 191/190/115 190/191/115 166/173/115
f 166/173/116 190/191/116 189/192/116 167/175/116
f 167/175/117 189/192/117 188/193/117 168/177/117
f 168/177/118 188/193/118 187/194/118 169/179/118
f 169/179/119 187/194/119 186/195/119 170/181/119
f 170/181/120 186/195/120 185/183/120 171/157/120
