# Blender 4.0.2
# www.blender.org
mtllib polygonum_07.mtl
o polygonum.006
v 0.003566 -0.002833 0.010129
v -0.001838 -0.000044 0.006810
v -0.000654 0.001546 0.013448
v 0.021188 0.020879 0.001245
v 0.016767 0.024828 -0.002341
v 0.016933 0.025216 0.004574
v 0.040528 0.037104 0.005614
v 0.040310 0.043615 0.003257
v 0.037148 0.041975 0.009199
v 0.060892 0.030193 0.027202
v 0.062508 0.034078 0.027082
v 0.059526 0.033124 0.029896
v 0.084241 0.023497 0.047750
v 0.084241 0.023497 0.047750
v 0.084241 0.023497 0.047750
v -0.001854 -0.005564 0.011884
v 0.002585 -0.001135 0.008937
v -0.000626 0.000585 0.014830
v 0.023077 -0.018914 0.029369
v 0.027429 -0.014442 0.026360
v 0.023968 -0.012596 0.032070
v 0.049293 -0.029085 0.050278
v 0.051012 -0.023872 0.046051
v 0.049626 -0.022610 0.052721
v 0.083936 -0.025686 0.043064
v 0.083807 -0.022523 0.040609
v 0.084701 -0.022019 0.044481
v 0.115843 -0.033309 0.035566
v 0.115843 -0.033309 0.035566
v 0.115843 -0.033309 0.035566
v -0.000554 0.001987 0.012590
v -0.000217 -0.004027 0.009167
v -0.001277 -0.003993 0.016013
v -0.031844 0.002996 0.007740
v -0.031633 -0.003015 0.004301
v -0.032303 -0.002991 0.011197
v -0.063249 0.003258 0.006454
v -0.064470 -0.002672 0.003085
v -0.063139 -0.002761 0.009883
v -0.087922 0.007763 0.017831
v -0.092024 0.002717 0.015945
v -0.087815 0.001881 0.021183
v -0.102490 0.020668 0.042106
v -0.104635 0.018814 0.041791
v -0.102468 0.018205 0.043544
v -0.119908 0.031572 0.065786
v -0.119908 0.031572 0.065786
v -0.119908 0.031572 0.065786
v -0.002237 0.004596 0.012375
v 0.000561 -0.000719 0.008923
v 0.000042 -0.000961 0.015827
v -0.030269 -0.008626 0.009791
v -0.026152 -0.013115 0.006490
v -0.026843 -0.013465 0.013374
v -0.048935 -0.034583 0.005678
v -0.044124 -0.036673 0.003151
v -0.044792 -0.037076 0.008921
v -0.054657 -0.065344 0.003031
v -0.054657 -0.065344 0.003031
v -0.054657 -0.065344 0.003031
v 0.000358 -0.000443 0.010129
v 0.000358 -0.000443 0.010129
v 0.000358 -0.000443 0.010129
v 0.000358 -0.000443 0.010129
v 0.000358 -0.000443 0.010129
v 0.000358 -0.000443 0.010129
v 0.000358 -0.000443 0.010129
v 0.000358 -0.000443 0.010129
v 0.000358 -0.000443 0.010129
v 0.000358 -0.000443 0.010129
v 0.000358 -0.000443 0.010129
v 0.000358 -0.000443 0.010129
v 0.018016 0.027408 0.000635
v 0.023484 0.024516 -0.000168
v 0.018639 0.047403 0.000627
v 0.038332 0.035012 -0.002519
v 0.027213 0.064984 -0.007029
v 0.048006 0.053676 -0.008231
v 0.037024 0.070419 -0.014223
v 0.046259 0.065122 -0.014875
v 0.020750 0.025962 0.000234
v 0.027571 0.039904 -0.004768
v 0.039417 0.062049 -0.005112
v 0.042900 0.069663 -0.012796
v 0.040289 0.044237 0.006204
v 0.044183 0.040171 0.005378
v 0.046818 0.060897 0.009796
v 0.060283 0.044622 0.006242
v 0.060392 0.074072 0.006727
v 0.074865 0.058084 0.005180
v 0.071315 0.076546 0.002001
v 0.077676 0.069231 0.001160
v 0.042236 0.042204 0.005791
v 0.052879 0.052493 0.004312
v 0.069656 0.067437 0.008815
v 0.075907 0.073835 0.003573
v 0.058315 0.031594 0.029373
v 0.059817 0.036417 0.029607
v 0.045621 0.027679 0.038678
v 0.052155 0.045557 0.038479
v 0.030708 0.032289 0.045488
v 0.037548 0.050156 0.047278
v 0.023757 0.040312 0.047492
v 0.026910 0.048342 0.048095
v 0.059066 0.034005 0.029490
v 0.047779 0.037363 0.035500
v 0.033693 0.041197 0.049697
v 0.025030 0.044310 0.050101
v 0.084241 0.023497 0.047750
v 0.084241 0.023497 0.047750
v 0.084241 0.023497 0.047750
v 0.084241 0.023497 0.047750
v 0.084241 0.023497 0.047750
v 0.084241 0.023497 0.047750
v 0.084241 0.023497 0.047750
v 0.084241 0.023497 0.047750
v 0.084241 0.023497 0.047750
v 0.084241 0.023497 0.047750
v 0.084241 0.023497 0.047750
v 0.084241 0.023497 0.047750
v 0.000035 -0.002038 0.011884
v 0.000035 -0.002038 0.011884
v 0.000035 -0.002038 0.011884
v 0.000035 -0.002038 0.011884
v 0.000035 -0.002038 0.011884
v 0.000035 -0.002038 0.011884
v 0.000035 -0.002038 0.011884
v 0.000035 -0.002038 0.011884
v 0.000035 -0.002038 0.011884
v 0.000035 -0.002038 0.011884
v 0.000035 -0.002038 0.011884
v 0.000035 -0.002038 0.011884
v 0.028599 -0.014679 0.029108
v 0.026382 -0.020540 0.029128
v 0.048477 -0.012820 0.031411
v 0.038567 -0.034221 0.031021
v 0.067758 -0.020505 0.027607
v 0.058776 -0.042476 0.029461
v 0.075065 -0.030811 0.023181
v 0.070819 -0.040625 0.023859
v 0.027490 -0.017609 0.029118
v 0.042642 -0.023519 0.027151
v 0.065810 -0.032441 0.031662
v 0.074713 -0.036380 0.025698
v 0.050975 -0.028500 0.049832
v 0.046166 -0.026852 0.052321
v 0.056519 -0.045350 0.053695
v 0.038464 -0.037840 0.062158
v 0.051890 -0.063454 0.057462
v 0.034569 -0.056314 0.068022
v 0.043125 -0.071323 0.060196
v 0.035284 -0.067960 0.064766
v 0.048571 -0.027676 0.051077
v 0.045500 -0.041680 0.054742
v 0.044326 -0.061503 0.065932
v 0.039968 -0.070769 0.064702
v 0.082549 -0.021667 0.044690
v 0.086609 -0.019802 0.042366
v 0.076472 -0.012608 0.056601
v 0.091633 -0.006642 0.046913
v 0.073193 0.002879 0.062683
v 0.089453 0.008995 0.054664
v 0.074799 0.013474 0.061729
v 0.082064 0.016123 0.057940
v 0.084579 -0.020734 0.043528
v 0.082410 -0.008927 0.048931
v 0.082562 0.006899 0.061609
v 0.079294 0.015468 0.061879
v 0.115843 -0.033309 0.035566
v 0.115843 -0.033309 0.035566
v 0.115843 -0.033309 0.035566
v 0.115843 -0.033309 0.035566
v 0.115843 -0.033309 0.035566
v 0.115843 -0.033309 0.035566
v 0.115843 -0.033309 0.035566
v 0.115843 -0.033309 0.035566
v 0.115843 -0.033309 0.035566
v 0.115843 -0.033309 0.035566
v 0.115843 -0.033309 0.035566
v 0.115843 -0.033309 0.035566
v -0.000683 -0.002011 0.012590
v -0.000683 -0.002011 0.012590
v -0.000683 -0.002011 0.012590
v -0.000683 -0.002011 0.012590
v -0.000683 -0.002011 0.012590
v -0.000683 -0.002011 0.012590
v -0.000683 -0.002011 0.012590
v -0.000683 -0.002011 0.012590
v -0.000683 -0.002011 0.012590
v -0.000683 -0.002011 0.012590
v -0.000683 -0.002011 0.012590
v -0.000683 -0.002011 0.012590
v -0.029968 0.001469 0.009849
v -0.029142 -0.004628 0.010609
v -0.021472 0.013139 0.023523
v -0.019099 -0.010040 0.024819
v -0.005399 0.016566 0.036399
v -0.003994 -0.006676 0.039963
v 0.005511 0.011672 0.042094
v 0.006123 0.001174 0.043437
v -0.029555 -0.001580 0.010229
v -0.017733 0.001198 0.020963
v -0.005308 0.005364 0.042211
v 0.005391 0.006715 0.045572
v -0.060814 -0.001029 0.008687
v -0.064145 -0.005700 0.007473
v -0.048327 -0.003245 0.022576
v -0.061427 -0.020010 0.016692
v -0.035709 -0.015119 0.032053
v -0.049667 -0.032083 0.028330
v -0.031527 -0.026808 0.033736
v -0.037831 -0.034368 0.031824
v -0.062480 -0.003365 0.008080
v -0.053114 -0.012351 0.016240
v -0.043102 -0.024291 0.033983
v -0.034967 -0.031068 0.035420
v -0.086340 0.003936 0.019881
v -0.089621 -0.000368 0.019701
v -0.072701 0.002623 0.030553
v -0.085774 -0.012909 0.028718
v -0.059793 -0.007910 0.037969
v -0.073286 -0.023440 0.038248
v -0.055848 -0.018643 0.039717
v -0.061980 -0.025582 0.039626
v -0.087980 0.001784 0.019791
v -0.078213 -0.006108 0.026328
v -0.066288 -0.016015 0.041663
v -0.058739 -0.022349 0.042146
v -0.105261 0.021416 0.042439
v -0.100527 0.022485 0.043235
v -0.115471 0.033191 0.044860
v -0.097338 0.035977 0.047325
v -0.118700 0.049411 0.043998
v -0.100833 0.052764 0.048318
v -0.114892 0.059086 0.042493
v -0.106793 0.060451 0.044296
v -0.102894 0.021950 0.042837
v -0.105615 0.034516 0.042926
v -0.110591 0.052753 0.048825
v -0.111416 0.060928 0.045252
v -0.119908 0.031572 0.065786
v -0.119908 0.031572 0.065786
v -0.119908 0.031572 0.065786
v -0.119908 0.031572 0.065786
v -0.119908 0.031572 0.065786
v -0.119908 0.031572 0.065786
v -0.119908 0.031572 0.065786
v -0.119908 0.031572 0.065786
v -0.119908 0.031572 0.065786
v -0.119908 0.031572 0.065786
v -0.119908 0.031572 0.065786
v -0.119908 0.031572 0.065786
v -0.000545 0.000972 0.012375
v -0.000545 0.000972 0.012375
v -0.000545 0.000972 0.012375
v -0.000545 0.000972 0.012375
v -0.000545 0.000972 0.012375
v -0.000545 0.000972 0.012375
v -0.000545 0.000972 0.012375
v -0.000545 0.000972 0.012375
v -0.000545 0.000972 0.012375
v -0.000545 0.000972 0.012375
v -0.000545 0.000972 0.012375
v -0.000545 0.000972 0.012375
v -0.030531 -0.009345 0.010427
v -0.025278 -0.008641 0.013357
v -0.045146 0.001975 0.016398
v -0.024659 0.003599 0.026272
v -0.051216 0.020052 0.023641
v -0.031644 0.021204 0.035694
v -0.047734 0.031428 0.028729
v -0.038796 0.031873 0.033944
v -0.027905 -0.008993 0.011892
v -0.033077 0.004567 0.018227
v -0.043401 0.020870 0.033144
v -0.044638 0.031819 0.033757
v -0.049150 -0.035930 0.005950
v -0.046280 -0.032544 0.008739
v -0.065696 -0.035711 0.008929
v -0.053740 -0.023335 0.018587
v -0.080099 -0.026295 0.012873
v -0.068772 -0.014638 0.024385
v -0.084254 -0.016475 0.016295
v -0.079006 -0.011219 0.021312
v -0.047715 -0.034237 0.007345
v -0.059045 -0.027466 0.011034
v -0.076305 -0.021206 0.021451
v -0.082932 -0.014362 0.020769
v -0.054657 -0.065344 0.003031
v -0.054657 -0.065344 0.003031
v -0.054657 -0.065344 0.003031
v -0.054657 -0.065344 0.003031
v -0.054657 -0.065344 0.003031
v -0.054657 -0.065344 0.003031
v -0.054657 -0.065344 0.003031
v -0.054657 -0.065344 0.003031
v -0.054657 -0.065344 0.003031
v -0.054657 -0.065344 0.003031
v -0.054657 -0.065344 0.003031
v -0.054657 -0.065344 0.003031
vn 0.8032 -0.5957 -0.0033
vn -0.5485 0.1008 -0.8300
vn -0.3693 0.2941 -0.8815
vn 0.7165 -0.6879 -0.1155
vn -0.2535 0.5006 0.8277
vn -0.4191 0.4802 0.7706
vn 0.2184 0.7348 -0.6421
vn 0.4269 -0.8498 -0.3092
vn -0.5102 0.5207 0.6845
vn 0.6647 0.6596 -0.3509
vn 0.0016 -0.9513 -0.3081
vn -0.5550 0.2556 0.7916
vn 0.6664 0.6478 -0.3692
vn 0.0068 -0.9485 -0.3168
vn -0.5067 0.2366 0.8290
vn -0.4722 -0.8815 0.0003
vn 0.6376 0.2258 -0.7365
vn 0.6481 0.1894 -0.7376
vn -0.4169 -0.9089 -0.0004
vn -0.1653 0.6557 0.7367
vn -0.2158 0.6728 0.7076
vn 0.2860 0.3086 -0.9072
vn -0.1873 -0.9306 0.3145
vn -0.1115 0.4863 0.8667
vn -0.0810 0.4404 -0.8942
vn -0.0298 -0.9862 0.1626
vn 0.2839 0.6582 0.6973
vn -0.0291 0.3512 -0.9359
vn -0.1904 -0.9665 0.1724
vn 0.4087 0.5559 0.7238
vn 0.0321 0.9995 -0.0000
vn 0.1163 -0.5041 -0.8558
vn 0.0741 -0.4847 -0.8715
vn 0.0223 0.9992 -0.0327
vn -0.1487 -0.4955 0.8558
vn -0.0948 -0.5078 0.8562
vn -0.2172 -0.4657 -0.8579
vn 0.0626 0.9888 -0.1355
vn 0.0920 -0.6071 0.7893
vn -0.7277 -0.3699 -0.5776
vn 0.2078 0.9518 -0.2258
vn 0.2318 -0.6781 0.6974
vn -0.9014 -0.2074 -0.3801
vn 0.4098 0.8955 -0.1739
vn 0.4348 -0.5742 0.6937
vn -0.8715 -0.2531 -0.4201
vn 0.3731 0.9160 -0.1473
vn 0.4144 -0.5992 0.6850
vn -0.4240 0.9057 -0.0007
vn 0.2735 -0.4217 -0.8645
vn 0.3299 -0.2674 -0.9053
vn -0.6373 0.7705 -0.0098
vn 0.1435 -0.4830 0.8638
vn 0.1406 -0.3525 0.9252
vn 0.4480 -0.1868 -0.8743
vn -0.9108 0.4050 -0.0808
vn 0.2413 -0.3122 0.9189
vn 0.5334 -0.1925 -0.8237
vn -0.9768 0.1902 -0.0987
vn 0.3383 -0.3037 0.8907
vn -0.0000 -0.0000 1.0000
vn 0.2430 0.1625 0.9563
vn 0.0030 0.2857 0.9583
vn 0.0648 0.1713 0.9831
vn 0.2037 0.1260 0.9709
vn 0.3394 0.2142 0.9159
vn 0.2970 0.3886 0.8722
vn 0.6899 0.3938 0.6074
vn 0.3809 0.6144 0.6910
vn 0.1487 0.3545 0.9231
vn 0.0266 0.7396 0.6725
vn 0.3046 0.0683 0.9500
vn 0.4627 0.0293 0.8860
vn 0.1437 -0.0831 0.9861
vn -0.0401 0.1141 0.9927
vn -0.0236 -0.0169 0.9996
vn 0.0930 -0.1054 0.9901
vn 0.2565 -0.0628 0.9645
vn 0.2804 0.1200 0.9523
vn 0.6868 0.0286 0.7263
vn 0.4589 0.3274 0.8260
vn 0.1236 0.1323 0.9835
vn 0.1720 0.5698 0.8036
vn 0.1712 -0.1907 0.9666
vn 0.3150 -0.2720 0.9093
vn 0.4708 -0.1732 0.8651
vn 0.3719 -0.4212 0.8272
vn 0.4778 -0.3443 0.8082
vn 0.5078 -0.2037 0.8370
vn 0.4068 -0.0865 0.9094
vn 0.2424 -0.1555 0.9576
vn 0.0799 0.2896 0.9538
vn -0.0458 -0.0758 0.9961
vn 0.2984 -0.2970 0.9071
vn -0.1610 -0.4190 0.8936
vn 0.5417 -0.0906 0.8357
vn 0.5349 0.0842 0.8407
vn 0.0591 -0.0344 0.9977
vn 0.1566 0.2148 0.9640
vn 0.0467 0.1454 0.9883
vn 0.0173 0.0021 0.9998
vn 0.1249 -0.1296 0.9837
vn 0.2985 -0.0752 0.9515
vn 0.3771 -0.5077 0.7746
vn 0.5532 -0.1637 0.8168
vn 0.2435 0.0747 0.9670
vn 0.6442 0.1932 0.7401
vn -0.0269 -0.1072 0.9939
vn -0.0414 -0.2781 0.9597
vn 0.4857 0.1734 0.8568
vn 0.6960 0.0851 0.7129
vn 0.6308 0.1935 0.7514
vn 0.5105 0.2166 0.8322
vn 0.4093 0.1009 0.9068
vn 0.4687 -0.0720 0.8804
vn 0.0270 -0.2142 0.9764
vn 0.3693 -0.3557 0.8585
vn 0.5939 -0.0065 0.8045
vn 0.6479 -0.4417 0.6206
vn 0.4075 0.2519 0.8778
vn 0.2432 0.2482 0.9377
vn 0.5859 -0.2962 0.7543
vn 0.3507 -0.3810 0.8555
vn 0.4565 -0.4181 0.7853
vn 0.5770 -0.3488 0.7386
vn 0.6208 -0.1853 0.7618
vn 0.4968 -0.0929 0.8629
vn 0.6728 0.3045 0.6742
vn 0.3842 0.1835 0.9048
vn 0.4196 -0.2327 0.8774
vn 0.0492 0.0399 0.9980
vn 0.6686 -0.3051 0.6782
vn 0.7764 -0.1914 0.6005
vn -0.7079 -0.0228 0.7060
vn -0.7169 0.2417 0.6539
vn -0.7713 0.1249 0.6241
vn -0.7455 -0.0132 0.6663
vn -0.6272 -0.0701 0.7757
vn -0.5263 0.0669 0.8477
vn -0.1962 -0.2586 0.9458
vn -0.2526 0.1258 0.9594
vn -0.6215 0.1665 0.7655
vn -0.2709 0.4802 0.8343
vn -0.7268 -0.1294 0.6746
vn -0.6484 -0.2824 0.7070
vn -0.5854 0.1945 0.7871
vn -0.4116 0.3981 0.8198
vn -0.5281 0.3645 0.7670
vn -0.6042 0.2393 0.7601
vn -0.5620 0.0860 0.8227
vn -0.4003 0.0887 0.9121
vn -0.3805 -0.3797 0.8432
vn -0.1657 -0.0871 0.9823
vn -0.3987 0.2465 0.8834
vn 0.0662 0.2091 0.9757
vn -0.6687 0.1453 0.7292
vn -0.7153 -0.0205 0.6985
vn -0.4305 0.2741 0.8600
vn -0.2511 0.4748 0.8435
vn -0.3757 0.4401 0.8156
vn -0.4534 0.3170 0.8331
vn -0.4024 0.1682 0.8999
vn -0.2272 0.1737 0.9582
vn -0.2260 -0.2992 0.9270
vn 0.0140 -0.0022 0.9999
vn -0.2288 0.3285 0.9164
vn 0.2446 0.2859 0.9265
vn -0.5235 0.2226 0.8224
vn -0.5770 0.0562 0.8148
vn -0.1308 -0.0893 0.9874
vn -0.3850 -0.1394 0.9123
vn -0.2694 -0.1959 0.9429
vn -0.1374 -0.1439 0.9800
vn -0.0884 0.0190 0.9959
vn -0.2266 0.1374 0.9643
vn 0.1045 0.4655 0.8789
vn -0.2809 0.4166 0.8646
vn -0.3199 0.0081 0.9474
vn -0.6139 0.3093 0.7263
vn -0.0225 -0.1199 0.9925
vn 0.1296 -0.0334 0.9910
vn -0.3369 -0.5478 0.7658
vn -0.5596 -0.5568 0.6139
vn -0.4477 -0.6208 0.6435
vn -0.3349 -0.5924 0.7328
vn -0.3112 -0.4565 0.8335
vn -0.4522 -0.3375 0.8256
vn -0.1535 -0.0076 0.9881
vn -0.5169 -0.0446 0.8549
vn -0.5228 -0.4435 0.7280
vn -0.7945 -0.0740 0.6027
vn -0.2296 -0.5770 0.7838
vn -0.0929 -0.4998 0.8611
vn -0.0368 -0.6026 0.7972
vn -0.1863 -0.7533 0.6307
vn -0.0636 -0.7339 0.6763
vn -0.0039 -0.6381 0.7699
vn -0.0807 -0.5117 0.8554
vn -0.2623 -0.5046 0.8225
vn -0.2481 -0.0537 0.9673
vn -0.4937 -0.3118 0.8118
vn -0.2408 -0.6360 0.7331
vn -0.6606 -0.5170 0.5443
vn 0.0628 -0.5590 0.8268
vn 0.1134 -0.4107 0.9047
vt 0.756029 0.397261
vt 0.673690 0.238547
vt 0.693160 0.264730
vt 0.615774 0.448097
vt 0.524335 0.331288
vt 0.403004 0.568297
vt 0.300557 0.479783
vt 0.244031 0.596097
vt 0.194226 0.546599
vt 0.237161 0.361752
vt 0.156306 0.488219
vt 0.415372 0.214369
vt 0.654203 0.212375
s 1
usemtl knotweed
f 1/1/1 2/1/2 5/1/3 4/1/4
f 2/1/2 3/1/5 6/1/6 5/1/3
f 3/1/5 1/1/1 4/1/4 6/1/6
f 4/1/4 5/1/3 8/1/7 7/1/8
f 5/1/3 6/1/6 9/1/9 8/1/7
f 6/1/6 4/1/4 7/1/8 9/1/9
f 7/1/8 8/1/7 11/1/10 10/1/11
f 8/1/7 9/1/9 12/1/12 11/1/10
f 9/1/9 7/1/8 10/1/11 12/1/12
f 10/1/11 11/1/10 14/1/13 13/1/14
f 11/1/10 12/1/12 15/1/15 14/1/13
f 12/1/12 10/1/11 13/1/14 15/1/15
f 16/1/16 17/1/17 20/1/18 19/1/19
f 17/1/17 18/1/20 21/1/21 20/1/18
f 18/1/20 16/1/16 19/1/19 21/1/21
f 19/1/19 20/1/18 23/1/22 22/1/23
f 20/1/18 21/1/21 24/1/24 23/1/22
f 21/1/21 19/1/19 22/1/23 24/1/24
f 22/1/23 23/1/22 26/1/25 25/1/26
f 23/1/22 24/1/24 27/1/27 26/1/25
f 24/1/24 22/1/23 25/1/26 27/1/27
f 25/1/26 26/1/25 29/1/28 28/1/29
f 26/1/25 27/1/27 30/1/30 29/1/28
f 27/1/27 25/1/26 28/1/29 30/1/30
f 31/1/31 32/1/32 35/1/33 34/1/34
f 32/1/32 33/1/35 36/1/36 35/1/33
f 33/1/35 31/1/31 34/1/34 36/1/36
f 34/1/34 35/1/33 38/1/37 37/1/38
f 35/1/33 36/1/36 39/1/39 38/1/37
f 36/1/36 34/1/34 37/1/38 39/1/39
f 37/1/38 38/1/37 41/1/40 40/1/41
f 38/1/37 39/1/39 42/1/42 41/1/40
f 39/1/39 37/1/38 40/1/41 42/1/42
f 40/1/41 41/1/40 44/1/43 43/1/44
f 41/1/40 42/1/42 45/1/45 44/1/43
f 42/1/42 40/1/41 43/1/44 45/1/45
f 43/1/44 44/1/43 47/1/46 46/1/47
f 44/1/43 45/1/45 48/1/48 47/1/46
f 45/1/45 43/1/44 46/1/47 48/1/48
f 49/1/49 50/1/50 53/1/51 52/1/52
f 50/1/50 51/1/53 54/1/54 53/1/51
f 51/1/53 49/1/49 52/1/52 54/1/54
f 52/1/52 53/1/51 56/1/55 55/1/56
f 53/1/51 54/1/54 57/1/57 56/1/55
f 54/1/54 52/1/52 55/1/56 57/1/57
f 55/1/56 56/1/55 59/1/58 58/1/59
f 56/1/55 57/1/57 60/1/60 59/1/58
f 57/1/57 55/1/56 58/1/59 60/1/60
f 69/1/61 62/1/61 64/1/61 70/1/61
f 70/1/61 64/1/61 66/1/61 71/1/61
f 71/1/61 66/1/61 68/1/61 72/1/61
f 65/1/61 71/1/61 72/1/61 67/1/61
f 63/1/61 70/1/61 71/1/61 65/1/61
f 61/1/61 69/1/61 70/1/61 63/1/61
f 81/2/62 74/3/63 76/4/64 82/5/65
f 82/5/65 76/4/64 78/6/66 83/7/67
f 83/7/67 78/6/66 80/8/68 84/9/69
f 77/10/70 83/7/67 84/9/69 79/11/71
f 75/12/72 82/5/65 83/7/67 77/10/70
f 73/13/73 81/2/62 82/5/65 75/12/72
f 93/2/74 86/3/75 88/4/76 94/5/77
f 94/5/77 88/4/76 90/6/78 95/7/79
f 95/7/79 90/6/78 92/8/80 96/9/81
f 89/10/82 95/7/79 96/9/81 91/11/83
f 87/12/84 94/5/77 95/7/79 89/10/82
f 85/13/85 93/2/74 94/5/77 87/12/84
f 105/2/86 98/3/87 100/4/88 106/5/89
f 106/5/89 100/4/88 102/6/90 107/7/91
f 107/7/91 102/6/90 104/8/92 108/9/93
f 101/10/94 107/7/91 108/9/93 103/11/95
f 99/12/96 106/5/89 107/7/91 101/10/94
f 97/13/97 105/2/86 106/5/89 99/12/96
f 117/2/61 110/3/61 112/4/61 118/5/61
f 118/5/61 112/4/61 114/6/61 119/7/61
f 119/7/61 114/6/61 116/8/61 120/9/61
f 113/10/61 119/7/61 120/9/61 115/11/61
f 111/12/61 118/5/61 119/7/61 113/10/61
f 109/13/61 117/2/61 118/5/61 111/12/61
f 129/1/61 122/1/61 124/1/61 130/1/61
f 130/1/61 124/1/61 126/1/61 131/1/61
f 131/1/61 126/1/61 128/1/61 132/1/61
f 125/1/61 131/1/61 132/1/61 127/1/61
f 123/1/61 130/1/61 131/1/61 125/1/61
f 121/1/61 129/1/61 130/1/61 123/1/61
f 141/2/98 134/3/99 136/4/100 142/5/101
f 142/5/101 136/4/100 138/6/102 143/7/103
f 143/7/103 138/6/102 140/8/104 144/9/105
f 137/10/106 143/7/103 144/9/105 139/11/107
f 135/12/108 142/5/101 143/7/103 137/10/106
f 133/13/109 141/2/98 142/5/101 135/12/108
f 153/2/110 146/3/111 148/4/112 154/5/113
f 154/5/113 148/4/112 150/6/114 155/7/115
f 155/7/115 150/6/114 152/8/116 156/9/117
f 149/10/118 155/7/115 156/9/117 151/11/119
f 147/12/120 154/5/113 155/7/115 149/10/118
f 145/13/121 153/2/110 154/5/113 147/12/120
f 165/2/122 158/3/123 160/4/124 166/5/125
f 166/5/125 160/4/124 162/6/126 167/7/127
f 167/7/127 162/6/126 164/8/128 168/9/129
f 161/10/130 167/7/127 168/9/129 163/11/131
f 159/12/132 166/5/125 167/7/127 161/10/130
f 157/13/133 165/2/122 166/5/125 159/12/132
f 177/2/61 170/3/61 172/4/61 178/5/61
f 178/5/61 172/4/61 174/6/61 179/7/61
f 179/7/61 174/6/61 176/8/61 180/9/61
f 173/10/61 179/7/61 180/9/61 175/11/61
f 171/12/61 178/5/61 179/7/61 173/10/61
f 169/13/61 177/2/61 178/5/61 171/12/61
f 189/1/61 182/1/61 184/1/61 190/1/61
f 190/1/61 184/1/61 186/1/61 191/1/61
f 191/1/61 186/1/61 188/1/61 192/1/61
f 185/1/61 191/1/61 192/1/61 187/1/61
f 183/1/61 190/1/61 191/1/61 185/1/61
f 181/1/61 189/1/61 190/1/61 183/1/61
f 201/2/134 194/3/135 196/4/136 202/5/137
f 202/5/137 196/4/136 198/6/138 203/7/139
f 203/7/139 198/6/138 200/8/140 204/9/141
f 197/10/142 203/7/139 204/9/141 199/11/143
f 195/12/144 202/5/137 203/7/139 197/10/142
f 193/13/145 201/2/134 202/5/137 195/12/144
f 213/2/146 206/3/147 208/4/148 214/5/149
f 214/5/149 208/4/148 210/6/150 215/7/151
f 215/7/151 210/6/150 212/8/152 216/9/153
f 209/10/154 215/7/151 216/9/153 211/11/155
f 207/12/156 214/5/149 215/7/151 209/10/154
f 205/13/157 213/2/146 214/5/149 207/12/156
f 225/2/158 218/3/159 220/4/160 226/5/161
f 226/5/161 220/4/160 222/6/162 227/7/163
f 227/7/163 222/6/162 224/8/164 228/9/165
f 221/10/166 227/7/163 228/9/165 223/11/167
f 219/12/168 226/5/161 227/7/163 221/10/166
f 217/13/169 225/2/158 226/5/161 219/12/168
f 237/2/170 230/3/171 232/4/172 238/5/173
f 238/5/173 232/4/172 234/6/174 239/7/175
f 239/7/175 234/6/174 236/8/176 240/9/177
f 233/10/178 239/7/175 240/9/177 235/11/179
f 231/12/180 238/5/173 239/7/175 233/10/178
f 229/13/181 237/2/170 238/5/173 231/12/180
f 249/2/61 242/3/61 244/4/61 250/5/61
f 250/5/61 244/4/61 246/6/61 251/7/61
f 251/7/61 246/6/61 248/8/61 252/9/61
f 245/10/61 251/7/61 252/9/61 247/11/61
f 243/12/61 250/5/61 251/7/61 245/10/61
f 241/13/61 249/2/61 250/5/61 243/12/61
f 261/1/61 254/1/61 256/1/61 262/1/61
f 262/1/61 256/1/61 258/1/61 263/1/61
f 263/1/61 258/1/61 260/1/61 264/1/61
f 257/1/61 263/1/61 264/1/61 259/1/61
f 255/1/61 262/1/61 263/1/61 257/1/61
f 253/1/61 261/1/61 262/1/61 255/1/61
f 273/2/182 266/3/183 268/4/184 274/5/185
f 274/5/185 268/4/184 270/6/186 275/7/187
f 275/7/187 270/6/186 272/8/188 276/9/189
f 269/10/190 275/7/187 276/9/189 271/11/191
f 267/12/192 274/5/185 275/7/187 269/10/190
f 265/13/193 273/2/182 274/5/185 267/12/192
f 285/2/194 278/3/195 280/4/196 286/5/197
f 286/5/197 280/4/196 282/6/198 287/7/199
f 287/7/199 282/6/198 284/8/200 288/9/201
f 281/10/202 287/7/199 288/9/201 283/11/203
f 279/12/204 286/5/197 287/7/199 281/10/202
f 277/13/205 285/2/194 286/5/197 279/12/204
f 297/2/61 290/3/61 292/4/61 298/5/61
f 298/5/61 292/4/61 294/6/61 299/7/61
f 299/7/61 294/6/61 296/8/61 300/9/61
f 293/10/61 299/7/61 300/9/61 295/11/61
f 291/12/61 298/5/61 299/7/61 293/10/61
f 289/13/61 297/2/61 298/5/61 291/12/61
