# Blender 4.0.2
# www.blender.org
mtllib portulaca_06.mtl
o portulaca.005
v 0.001127 -0.004601 0.000000
v -0.002319 0.000311 -0.003463
v -0.002484 0.000192 0.003463
v 0.034415 0.019660 0.001192
v 0.031948 0.025176 -0.002197
v 0.031373 0.024803 0.004698
v 0.071424 0.036143 0.008066
v 0.071424 0.036143 0.008066
v 0.071424 0.036143 0.008066
v 0.000688 0.003156 0.000000
v -0.002820 -0.001711 -0.003464
v -0.002820 -0.001711 0.003464
v -0.023902 0.020871 0.000000
v -0.027100 0.015795 -0.003464
v -0.027100 0.015795 0.003464
v -0.052313 0.031841 0.000000
v -0.052313 0.031841 0.000000
v -0.052313 0.031841 0.000000
v -0.002752 -0.002139 0.000000
v 0.002731 0.000298 -0.003464
v 0.002731 0.000298 0.003464
v 0.013048 -0.037391 0.000000
v 0.017770 -0.033689 -0.003464
v 0.017770 -0.033689 0.003464
v 0.048159 -0.059691 0.000000
v 0.048159 -0.059691 0.000000
v 0.048159 -0.059691 0.000000
v -0.001225 -0.001366 0.000000
v -0.001225 -0.001366 0.000000
v -0.001225 -0.001366 0.000000
v -0.001225 -0.001366 0.000000
v -0.001225 -0.001366 0.000000
v -0.001225 -0.001366 0.000000
v -0.001225 -0.001366 0.000000
v -0.001225 -0.001366 0.000000
v -0.001225 -0.001366 0.000000
v -0.001225 -0.001366 0.000000
v -0.001225 -0.001366 0.000000
v -0.001225 -0.001366 0.000000
v -0.001225 -0.001366 0.000000
v -0.001225 -0.001366 0.000000
v -0.001225 -0.001366 0.000000
v -0.001225 -0.001366 0.000000
v -0.001225 -0.001366 0.000000
v -0.001225 -0.001366 0.000000
v -0.001225 -0.001366 0.000000
v -0.001225 -0.001366 0.000000
v -0.001225 -0.001366 0.000000
v -0.001225 -0.001366 0.000000
v -0.001225 -0.001366 0.000000
v -0.001225 -0.001366 0.000000
v -0.001225 -0.001366 0.000000
v -0.001225 -0.001366 0.000000
v -0.001225 -0.001366 0.000000
v -0.001225 -0.001366 0.000000
v 0.049159 0.007467 0.013612
v 0.033632 0.023756 0.007597
v 0.056872 0.023947 0.008183
v 0.060681 0.000210 0.012534
v 0.069440 0.017749 0.006991
v 0.071644 -0.000565 0.012225
v 0.077278 0.011472 0.008259
v 0.052886 0.015336 0.009589
v 0.065350 0.008671 0.008515
v 0.074356 0.005101 0.009022
v 0.030047 0.039878 0.010835
v 0.020503 0.031072 0.012902
v 0.024689 0.046833 0.013261
v 0.013752 0.037328 0.015838
v 0.017979 0.050899 0.012709
v 0.010078 0.044874 0.014346
v 0.024432 0.035202 0.010970
v 0.018459 0.042354 0.013786
v 0.013550 0.048106 0.012676
v 0.026172 0.015167 0.012937
v 0.035281 0.012005 0.011666
v 0.022881 0.007751 0.014705
v 0.033181 0.003939 0.013478
v 0.023370 0.002759 0.015301
v 0.030417 0.000313 0.014318
v 0.030582 0.013438 0.011633
v 0.027941 0.005486 0.013480
v 0.026748 0.001380 0.014152
v 0.071424 0.036143 0.008066
v 0.071424 0.036143 0.008066
v 0.071424 0.036143 0.008066
v 0.071424 0.036143 0.008066
v 0.071424 0.036143 0.008066
v 0.071424 0.036143 0.008066
v 0.071424 0.036143 0.008066
v 0.071424 0.036143 0.008066
v 0.071424 0.036143 0.008066
v 0.071424 0.036143 0.008066
v 0.071424 0.036143 0.008066
v 0.071424 0.036143 0.008066
v 0.071424 0.036143 0.008066
v 0.071424 0.036143 0.008066
v 0.071424 0.036143 0.008066
v 0.071424 0.036143 0.008066
v 0.071424 0.036143 0.008066
v 0.071424 0.036143 0.008066
v 0.071424 0.036143 0.008066
v 0.071424 0.036143 0.008066
v 0.071424 0.036143 0.008066
v 0.071424 0.036143 0.008066
v 0.071424 0.036143 0.008066
v 0.071424 0.036143 0.008066
v 0.071424 0.036143 0.008066
v 0.071424 0.036143 0.008066
v 0.071424 0.036143 0.008066
v 0.071424 0.036143 0.008066
v -0.001651 -0.000089 0.000000
v -0.001651 -0.000089 0.000000
v -0.001651 -0.000089 0.000000
v -0.001651 -0.000089 0.000000
v -0.001651 -0.000089 0.000000
v -0.001651 -0.000089 0.000000
v -0.001651 -0.000089 0.000000
v -0.001651 -0.000089 0.000000
v -0.001651 -0.000089 0.000000
v -0.001651 -0.000089 0.000000
v -0.001651 -0.000089 0.000000
v -0.001651 -0.000089 0.000000
v -0.001651 -0.000089 0.000000
v -0.001651 -0.000089 0.000000
v -0.001651 -0.000089 0.000000
v -0.001651 -0.000089 0.000000
v -0.001651 -0.000089 0.000000
v -0.001651 -0.000089 0.000000
v -0.001651 -0.000089 0.000000
v -0.001651 -0.000089 0.000000
v -0.001651 -0.000089 0.000000
v -0.001651 -0.000089 0.000000
v -0.001651 -0.000089 0.000000
v -0.001651 -0.000089 0.000000
v -0.001651 -0.000089 0.000000
v -0.001651 -0.000089 0.000000
v -0.001651 -0.000089 0.000000
v -0.001651 -0.000089 0.000000
v -0.014446 0.002017 0.017410
v -0.027103 0.018161 0.006354
v -0.005303 0.018404 0.014456
v -0.003230 -0.005242 0.020277
v 0.006944 0.012204 0.017534
v 0.007240 -0.006004 0.023562
v 0.013918 0.005965 0.021405
v -0.009574 0.009814 0.014660
v 0.002536 0.003147 0.017825
v 0.010874 -0.000397 0.021302
v -0.031469 0.034346 0.007934
v -0.041214 0.025563 0.006962
v -0.037292 0.041342 0.008351
v -0.048524 0.031867 0.007422
v -0.043442 0.045386 0.005568
v -0.051479 0.039378 0.004668
v -0.036849 0.029661 0.006329
v -0.043379 0.036861 0.006911
v -0.047635 0.042584 0.004152
v -0.035939 0.009665 0.009150
v -0.026923 0.006493 0.010970
v -0.039664 0.002278 0.009900
v -0.029538 -0.001542 0.012161
v -0.039419 -0.002703 0.010721
v -0.032444 -0.005157 0.012129
v -0.031352 0.007917 0.009384
v -0.034489 -0.000004 0.010430
v -0.035857 -0.004099 0.010758
v -0.052313 0.031841 0.000000
v -0.052313 0.031841 0.000000
v -0.052313 0.031841 0.000000
v -0.052313 0.031841 0.000000
v -0.052313 0.031841 0.000000
v -0.052313 0.031841 0.000000
v -0.052313 0.031841 0.000000
v -0.052313 0.031841 0.000000
v -0.052313 0.031841 0.000000
v -0.052313 0.031841 0.000000
v -0.052313 0.031841 0.000000
v -0.052313 0.031841 0.000000
v -0.052313 0.031841 0.000000
v -0.052313 0.031841 0.000000
v -0.052313 0.031841 0.000000
v -0.052313 0.031841 0.000000
v -0.052313 0.031841 0.000000
v -0.052313 0.031841 0.000000
v -0.052313 0.031841 0.000000
v -0.052313 0.031841 0.000000
v -0.052313 0.031841 0.000000
v -0.052313 0.031841 0.000000
v -0.052313 0.031841 0.000000
v -0.052313 0.031841 0.000000
v -0.052313 0.031841 0.000000
v -0.052313 0.031841 0.000000
v -0.052313 0.031841 0.000000
v -0.052313 0.031841 0.000000
v 0.000903 -0.000515 0.000000
v 0.000903 -0.000515 0.000000
v 0.000903 -0.000515 0.000000
v 0.000903 -0.000515 0.000000
v 0.000903 -0.000515 0.000000
v 0.000903 -0.000515 0.000000
v 0.000903 -0.000515 0.000000
v 0.000903 -0.000515 0.000000
v 0.000903 -0.000515 0.000000
v 0.000903 -0.000515 0.000000
v 0.000903 -0.000515 0.000000
v 0.000903 -0.000515 0.000000
v 0.000903 -0.000515 0.000000
v 0.000903 -0.000515 0.000000
v 0.000903 -0.000515 0.000000
v 0.000903 -0.000515 0.000000
v 0.000903 -0.000515 0.000000
v 0.000903 -0.000515 0.000000
v 0.000903 -0.000515 0.000000
v 0.000903 -0.000515 0.000000
v 0.000903 -0.000515 0.000000
v 0.000903 -0.000515 0.000000
v 0.000903 -0.000515 0.000000
v 0.000903 -0.000515 0.000000
v 0.000903 -0.000515 0.000000
v 0.000903 -0.000515 0.000000
v 0.000903 -0.000515 0.000000
v 0.000903 -0.000515 0.000000
v 0.001149 -0.022712 0.017701
v 0.016983 -0.035926 0.006411
v -0.005145 -0.040183 0.012959
v -0.011338 -0.017460 0.020268
v -0.018501 -0.036160 0.015590
v -0.022069 -0.018583 0.022864
v -0.026666 -0.031344 0.019400
v -0.002284 -0.030999 0.014057
v -0.015582 -0.026499 0.016818
v -0.024650 -0.024541 0.019950
v 0.023815 -0.051460 0.007208
v 0.032160 -0.041145 0.007532
v 0.030698 -0.057543 0.007568
v 0.040409 -0.046314 0.008091
v 0.037628 -0.060391 0.004942
v 0.044714 -0.053105 0.005027
v 0.028513 -0.045844 0.006303
v 0.036122 -0.052034 0.006867
v 0.041435 -0.056845 0.004013
v 0.024243 -0.026333 0.010434
v 0.014660 -0.024721 0.011829
v 0.026720 -0.018473 0.011959
v 0.015904 -0.016424 0.013761
v 0.025631 -0.013625 0.013105
v 0.018219 -0.012378 0.014184
v 0.019387 -0.025325 0.010458
v 0.021178 -0.017049 0.012274
v 0.021864 -0.012793 0.012981
v 0.048159 -0.059691 0.000000
v 0.048159 -0.059691 0.000000
v 0.048159 -0.059691 0.000000
v 0.048159 -0.059691 0.000000
v 0.048159 -0.059691 0.000000
v 0.048159 -0.059691 0.000000
v 0.048159 -0.059691 0.000000
v 0.048159 -0.059691 0.000000
v 0.048159 -0.059691 0.000000
v 0.048159 -0.059691 0.000000
v 0.048159 -0.059691 0.000000
v 0.048159 -0.059691 0.000000
v 0.048159 -0.059691 0.000000
v 0.048159 -0.059691 0.000000
v 0.048159 -0.059691 0.000000
v 0.048159 -0.059691 0.000000
v 0.048159 -0.059691 0.000000
v 0.048159 -0.059691 0.000000
v 0.048159 -0.059691 0.000000
v 0.048159 -0.059691 0.000000
v 0.048159 -0.059691 0.000000
v 0.048159 -0.059691 0.000000
v 0.048159 -0.059691 0.000000
v 0.048159 -0.059691 0.000000
v 0.048159 -0.059691 0.000000
v 0.048159 -0.059691 0.000000
v 0.048159 -0.059691 0.000000
v 0.048159 -0.059691 0.000000
vn 0.5885 -0.8085 -0.0010
vn -0.2723 0.4188 -0.8663
vn -0.1398 0.5441 -0.8273
vn 0.5068 -0.8608 -0.0460
vn -0.3137 0.3898 0.8658
vn -0.2899 0.4855 0.8247
vn 0.0550 0.5694 -0.8202
vn 0.4096 -0.9121 -0.0181
vn -0.1969 0.4344 0.8789
vn 0.5847 0.8113 -0.0000
vn -0.2924 -0.4054 -0.8661
vn -0.3078 -0.3660 -0.8782
vn 0.4800 0.8773 -0.0000
vn -0.2924 -0.4054 0.8661
vn -0.3078 -0.3660 0.8782
vn -0.3533 -0.3695 -0.8595
vn 0.3602 0.9329 -0.0000
vn -0.3533 -0.3695 0.8595
vn -0.9135 -0.4069 -0.0000
vn 0.4557 0.2003 -0.8673
vn 0.3389 0.1993 -0.9195
vn -0.7601 -0.6499 -0.0000
vn 0.4557 0.2003 0.8673
vn 0.3389 0.1993 0.9195
vn 0.3766 0.3245 -0.8677
vn -0.5361 -0.8441 -0.0000
vn 0.3766 0.3245 0.8677
vn -0.0000 -0.0000 1.0000
vn 0.0321 0.2990 0.9537
vn 0.1182 0.2538 0.9600
vn 0.0702 0.1308 0.9889
vn 0.1939 0.3585 0.9132
vn 0.1871 0.3608 0.9137
vn 0.1186 0.2539 0.9599
vn 0.0823 0.4193 0.9041
vn 0.0328 0.2857 0.9578
vn 0.0706 0.1238 0.9898
vn -0.0148 0.1529 0.9881
vn 0.2722 -0.0641 0.9601
vn 0.2961 -0.0772 0.9520
vn 0.4081 0.0235 0.9126
vn 0.1844 -0.1802 0.9662
vn 0.1037 -0.0618 0.9927
vn 0.1827 0.0652 0.9810
vn -0.0381 0.1228 0.9917
vn 0.0571 0.2049 0.9771
vn 0.3027 0.1290 0.9443
vn 0.1479 0.2810 0.9482
vn 0.2313 0.2943 0.9273
vn 0.2060 0.2271 0.9518
vn 0.0746 0.2616 0.9623
vn 0.3255 0.1643 0.9311
vn 0.3043 0.1076 0.9465
vn 0.1793 0.1499 0.9723
vn 0.3120 0.1074 0.9440
vn 0.1718 0.1435 0.9746
vn 0.0475 0.1924 0.9802
vn 0.0333 0.1753 0.9839
vn -0.2779 0.3183 0.9064
vn -0.1987 0.2734 0.9412
vn -0.2541 0.1509 0.9553
vn -0.1115 0.3772 0.9194
vn -0.1181 0.3796 0.9176
vn -0.1983 0.2735 0.9412
vn -0.2138 0.4376 0.8734
vn -0.2786 0.3050 0.9107
vn -0.2541 0.1439 0.9564
vn -0.3341 0.1728 0.9265
vn -0.0547 -0.0442 0.9975
vn -0.0296 -0.0574 0.9979
vn 0.0897 0.0427 0.9951
vn -0.1403 -0.1603 0.9770
vn -0.2246 -0.0415 0.9736
vn -0.1455 0.0853 0.9857
vn -0.3575 0.1427 0.9230
vn -0.2623 0.2248 0.9384
vn -0.0197 0.1486 0.9887
vn -0.1667 0.3004 0.9391
vn -0.0809 0.3134 0.9462
vn -0.1132 0.2467 0.9625
vn -0.2407 0.2811 0.9290
vn 0.0063 0.1837 0.9830
vn -0.0191 0.1273 0.9917
vn -0.1455 0.1698 0.9747
vn -0.0110 0.1270 0.9918
vn -0.1533 0.1635 0.9746
vn -0.2725 0.2123 0.9384
vn -0.2872 0.1952 0.9378
vn 0.2700 -0.3415 0.9003
vn 0.1827 -0.3121 0.9323
vn 0.2171 -0.1841 0.9586
vn 0.1145 -0.4261 0.8974
vn 0.1215 -0.4273 0.8959
vn 0.1824 -0.3123 0.9323
vn 0.2276 -0.4663 0.8548
vn 0.2683 -0.3287 0.9055
vn 0.2159 -0.1773 0.9602
vn 0.3012 -0.1912 0.9342
vn -0.0129 -0.0258 0.9996
vn -0.0398 -0.0167 0.9991
vn -0.1413 -0.1333 0.9809
vn 0.0543 0.1033 0.9932
vn 0.1564 -0.0005 0.9877
vn 0.0978 -0.1385 0.9855
vn 0.3196 -0.1576 0.9344
vn 0.2379 -0.2542 0.9374
vn -0.0163 -0.2204 0.9753
vn 0.1555 -0.3435 0.9262
vn 0.0727 -0.3700 0.9262
vn 0.0930 -0.3006 0.9492
vn 0.2261 -0.3124 0.9227
vn -0.0360 -0.2585 0.9653
vn -0.0204 -0.1997 0.9796
vn 0.1119 -0.2209 0.9689
vn -0.0285 -0.2007 0.9792
vn 0.1186 -0.2134 0.9697
vn 0.2459 -0.2404 0.9390
vn 0.2578 -0.2213 0.9405
vt 0.863645 0.911306
vt 0.863795 0.911306
vt 0.803259 0.911306
vt 0.804751 0.911306
vt 0.865718 0.911306
vt 0.865760 0.911306
vt 0.806559 0.911306
vt 0.805829 0.911306
vt 0.859961 0.911306
vt 0.857225 0.911306
vt 0.804023 0.911306
vt 0.805868 0.911306
vt 0.747623 0.911306
vt 0.751839 0.911306
vt 0.778028 0.911306
vt 0.774145 0.911306
vt 0.833508 0.911306
vt 0.790531 0.911306
vt 0.821856 0.911306
vt 0.825929 0.911306
vt 0.788474 0.911306
vt 0.784870 0.911306
vt 0.803438 0.911306
vt 0.810681 0.911306
vt 0.811660 0.911306
vt 0.781019 0.911306
vt 0.778811 0.911306
vt 0.855704 0.911306
vt 0.803645 0.911306
vt 0.751381 0.911306
vt 0.782687 0.911306
vt 0.784974 0.911306
vt 0.832510 0.911306
vt 0.544590 0.450819
vt 0.675134 0.320110
vt 0.713660 0.405319
vt 0.636661 0.234822
vt 0.734333 0.130223
vt 0.777113 0.211881
vt 0.800952 0.106654
vt 0.826791 0.165369
vt 0.813410 0.295700
vt 0.853156 0.223553
vt 0.558060 0.434871
vt 0.675177 0.318051
vt 0.700668 0.406712
vt 0.641991 0.211723
vt 0.712494 0.138440
vt 0.753274 0.245877
vt 0.781774 0.114672
vt 0.812441 0.182011
vt 0.782086 0.355466
vt 0.833809 0.256016
vt 0.554320 0.436723
vt 0.678433 0.312251
vt 0.717686 0.402615
vt 0.639682 0.221391
vt 0.724335 0.135108
vt 0.767642 0.223183
vt 0.786317 0.120761
vt 0.813634 0.181700
vt 0.804648 0.312693
vt 0.839391 0.244145
s 1
usemtl portulaca
f 1/1/1 2/2/2 5/3/3 4/4/4
f 2/5/2 3/6/5 6/7/6 5/8/3
f 3/9/5 1/10/1 4/11/4 6/12/6
f 4/4/4 5/3/3 8/13/7 7/13/8
f 5/8/3 6/7/6 9/13/9 8/13/7
f 6/12/6 4/11/4 7/13/8 9/13/9
f 10/13/10 11/14/11 14/15/12 13/16/13
f 11/17/11 12/17/14 15/18/15 14/18/12
f 12/19/14 10/20/10 13/21/13 15/22/15
f 13/16/13 14/15/12 17/23/16 16/23/17
f 14/18/12 15/18/15 18/13/18 17/13/16
f 15/22/15 13/21/13 16/13/17 18/13/18
f 19/24/19 20/25/20 23/26/21 22/27/22
f 20/28/20 21/28/23 24/29/24 23/29/21
f 21/30/23 19/13/19 22/31/22 24/32/24
f 22/27/22 23/26/21 26/13/25 25/13/26
f 23/29/21 24/29/24 27/13/27 26/13/25
f 24/32/24 22/31/22 25/33/26 27/33/27
f 29/23/28 35/23/28 30/23/28
f 35/23/28 28/23/28 31/23/28 36/23/28
f 36/23/28 31/23/28 33/23/28 37/23/28
f 32/23/28 36/23/28 37/23/28 34/23/28
f 30/23/28 35/23/28 36/23/28 32/23/28
f 29/23/28 28/23/28 35/23/28
f 29/23/28 44/23/28 39/23/28
f 44/23/28 38/23/28 40/23/28 45/23/28
f 45/23/28 40/23/28 42/23/28 46/23/28
f 41/23/28 45/23/28 46/23/28 43/23/28
f 39/23/28 44/23/28 45/23/28 41/23/28
f 29/23/28 38/23/28 44/23/28
f 29/23/28 53/23/28 48/23/28
f 53/23/28 47/23/28 49/23/28 54/23/28
f 54/23/28 49/23/28 51/23/28 55/23/28
f 50/23/28 54/23/28 55/23/28 52/23/28
f 48/23/28 53/23/28 54/23/28 50/23/28
f 29/23/28 47/23/28 53/23/28
f 57/34/29 63/35/30 58/36/31
f 63/35/30 56/37/32 59/38/33 64/39/34
f 64/39/34 59/38/33 61/40/35 65/41/36
f 60/42/37 64/39/34 65/41/36 62/43/38
f 58/36/31 63/35/30 64/39/34 60/42/37
f 57/34/29 56/37/32 63/35/30
f 57/44/39 72/45/40 67/46/41
f 72/45/40 66/47/42 68/48/43 73/49/44
f 73/49/44 68/48/43 70/50/45 74/51/46
f 69/52/47 73/49/44 74/51/46 71/53/48
f 67/46/41 72/45/40 73/49/44 69/52/47
f 57/44/39 66/47/42 72/45/40
f 57/54/49 81/55/50 76/56/51
f 81/55/50 75/57/52 77/58/53 82/59/54
f 82/59/54 77/58/53 79/60/55 83/61/56
f 78/62/57 82/59/54 83/61/56 80/63/58
f 76/56/51 81/55/50 82/59/54 78/62/57
f 57/54/49 75/57/52 81/55/50
f 85/34/28 91/35/28 86/36/28
f 91/35/28 84/37/28 87/38/28 92/39/28
f 92/39/28 87/38/28 89/40/28 93/41/28
f 88/42/28 92/39/28 93/41/28 90/43/28
f 86/36/28 91/35/28 92/39/28 88/42/28
f 85/34/28 84/37/28 91/35/28
f 85/44/28 100/45/28 95/46/28
f 100/45/28 94/47/28 96/48/28 101/49/28
f 101/49/28 96/48/28 98/50/28 102/51/28
f 97/52/28 101/49/28 102/51/28 99/53/28
f 95/46/28 100/45/28 101/49/28 97/52/28
f 85/44/28 94/47/28 100/45/28
f 85/54/28 109/55/28 104/56/28
f 109/55/28 103/57/28 105/58/28 110/59/28
f 110/59/28 105/58/28 107/60/28 111/61/28
f 106/62/28 110/59/28 111/61/28 108/63/28
f 104/56/28 109/55/28 110/59/28 106/62/28
f 85/54/28 103/57/28 109/55/28
f 113/23/28 119/23/28 114/23/28
f 119/23/28 112/23/28 115/23/28 120/23/28
f 120/23/28 115/23/28 117/23/28 121/23/28
f 116/23/28 120/23/28 121/23/28 118/23/28
f 114/23/28 119/23/28 120/23/28 116/23/28
f 113/23/28 112/23/28 119/23/28
f 113/23/28 128/23/28 123/23/28
f 128/23/28 122/23/28 124/23/28 129/23/28
f 129/23/28 124/23/28 126/23/28 130/23/28
f 125/23/28 129/23/28 130/23/28 127/23/28
f 123/23/28 128/23/28 129/23/28 125/23/28
f 113/23/28 122/23/28 128/23/28
f 113/23/28 137/23/28 132/23/28
f 137/23/28 131/23/28 133/23/28 138/23/28
f 138/23/28 133/23/28 135/23/28 139/23/28
f 134/23/28 138/23/28 139/23/28 136/23/28
f 132/23/28 137/23/28 138/23/28 134/23/28
f 113/23/28 131/23/28 137/23/28
f 141/34/59 147/35/60 142/36/61
f 147/35/60 140/37/62 143/38/63 148/39/64
f 148/39/64 143/38/63 145/40/65 149/41/66
f 144/42/67 148/39/64 149/41/66 146/43/68
f 142/36/61 147/35/60 148/39/64 144/42/67
f 141/34/59 140/37/62 147/35/60
f 141/44/69 156/45/70 151/46/71
f 156/45/70 150/47/72 152/48/73 157/49/74
f 157/49/74 152/48/73 154/50/75 158/51/76
f 153/52/77 157/49/74 158/51/76 155/53/78
f 151/46/71 156/45/70 157/49/74 153/52/77
f 141/44/69 150/47/72 156/45/70
f 141/54/79 165/55/80 160/56/81
f 165/55/80 159/57/82 161/58/83 166/59/84
f 166/59/84 161/58/83 163/60/85 167/61/86
f 162/62/87 166/59/84 167/61/86 164/63/88
f 160/56/81 165/55/80 166/59/84 162/62/87
f 141/54/79 159/57/82 165/55/80
f 169/34/28 175/35/28 170/36/28
f 175/35/28 168/37/28 171/38/28 176/39/28
f 176/39/28 171/38/28 173/40/28 177/41/28
f 172/42/28 176/39/28 177/41/28 174/43/28
f 170/36/28 175/35/28 176/39/28 172/42/28
f 169/34/28 168/37/28 175/35/28
f 169/44/28 184/45/28 179/46/28
f 184/45/28 178/47/28 180/48/28 185/49/28
f 185/49/28 180/48/28 182/50/28 186/51/28
f 181/52/28 185/49/28 186/51/28 183/53/28
f 179/46/28 184/45/28 185/49/28 181/52/28
f 169/44/28 178/47/28 184/45/28
f 169/54/28 193/55/28 188/56/28
f 193/55/28 187/57/28 189/58/28 194/59/28
f 194/59/28 189/58/28 191/60/28 195/61/28
f 190/62/28 194/59/28 195/61/28 192/63/28
f 188/56/28 193/55/28 194/59/28 190/62/28
f 169/54/28 187/57/28 193/55/28
f 197/23/28 203/23/28 198/23/28
f 203/23/28 196/23/28 199/23/28 204/23/28
f 204/23/28 199/23/28 201/23/28 205/23/28
f 200/23/28 204/23/28 205/23/28 202/23/28
f 198/23/28 203/23/28 204/23/28 200/23/28
f 197/23/28 196/23/28 203/23/28
f 197/23/28 212/23/28 207/23/28
f 212/23/28 206/23/28 208/23/28 213/23/28
f 213/23/28 208/23/28 210/23/28 214/23/28
f 209/23/28 213/23/28 214/23/28 211/23/28
f 207/23/28 212/23/28 213/23/28 209/23/28
f 197/23/28 206/23/28 212/23/28
f 197/23/28 221/23/28 216/23/28
f 221/23/28 215/23/28 217/23/28 222/23/28
f 222/23/28 217/23/28 219/23/28 223/23/28
f 218/23/28 222/23/28 223/23/28 220/23/28
f 216/23/28 221/23/28 222/23/28 218/23/28
f 197/23/28 215/23/28 221/23/28
f 225/34/89 231/35/90 226/36/91
f 231/35/90 224/37/92 227/38/93 232/39/94
f 232/39/94 227/38/93 229/40/95 233/41/96
f 228/42/97 232/39/94 233/41/96 230/43/98
f 226/36/91 231/35/90 232/39/94 228/42/97
f 225/34/89 224/37/92 231/35/90
f 225/44/99 240/45/100 235/46/101
f 240/45/100 234/47/102 236/48/103 241/49/104
f 241/49/104 236/48/103 238/50/105 242/51/106
f 237/52/107 241/49/104 242/51/106 239/53/108
f 235/46/101 240/45/100 241/49/104 237/52/107
f 225/44/99 234/47/102 240/45/100
f 225/54/109 249/55/110 244/56/111
f 249/55/110 243/57/112 245/58/113 250/59/114
f 250/59/114 245/58/113 247/60/115 251/61/116
f 246/62/117 250/59/114 251/61/116 248/63/118
f 244/56/111 249/55/110 250/59/114 246/62/117
f 225/54/109 243/57/112 249/55/110
f 253/34/28 259/35/28 254/36/28
f 259/35/28 252/37/28 255/38/28 260/39/28
f 260/39/28 255/38/28 257/40/28 261/41/28
f 256/42/28 260/39/28 261/41/28 258/43/28
f 254/36/28 259/35/28 260/39/28 256/42/28
f 253/34/28 252/37/28 259/35/28
f 253/44/28 268/45/28 263/46/28
f 268/45/28 262/47/28 264/48/28 269/49/28
f 269/49/28 264/48/28 266/50/28 270/51/28
f 265/52/28 269/49/28 270/51/28 267/53/28
f 263/46/28 268/45/28 269/49/28 265/52/28
f 253/44/28 262/47/28 268/45/28
f 253/54/28 277/55/28 272/56/28
f 277/55/28 271/57/28 273/58/28 278/59/28
f 278/59/28 273/58/28 275/60/28 279/61/28
f 274/62/28 278/59/28 279/61/28 276/63/28
f 272/56/28 277/55/28 278/59/28 274/62/28
f 253/54/28 271/57/28 277/55/28
